<svg width="28" height="28" viewBox="0 0 28 28" fill="none" xmlns="http://www.w3.org/2000/svg">
<path fill-rule="evenodd" clip-rule="evenodd" d="M27.4795 3.5C27.4795 2.57174 27.1204 1.6815 26.4813 1.02513C25.8422 0.368749 24.9754 -1.12414e-07 24.0715 -1.5299e-07L3.62389 -1.07093e-06C2.72004 -1.1115e-06 1.85322 0.368748 1.21411 1.02513C0.574993 1.6815 0.215942 2.57174 0.215942 3.5L0.215941 24.5C0.215941 25.4283 0.574992 26.3185 1.21411 26.9749C1.85322 27.6312 2.72004 28 3.62388 28L24.0715 28C24.9754 28 25.8422 27.6312 26.4813 26.9749C27.1204 26.3185 27.4795 25.4283 27.4795 24.5L27.4795 3.5ZM9.33901 14.6195C9.17903 14.7838 8.96205 14.8761 8.7358 14.8761C8.50956 14.8761 8.29258 14.7838 8.13259 14.6195C7.97262 14.4552 7.88274 14.2324 7.88274 14C7.88274 13.7676 7.97262 13.5448 8.13259 13.3805L13.2445 8.1305C13.3237 8.04901 13.4177 7.98436 13.5212 7.94025C13.6247 7.89614 13.7357 7.87343 13.8477 7.87343C13.9598 7.87343 14.0707 7.89614 14.1743 7.94025C14.2778 7.98436 14.3718 8.04901 14.4509 8.1305L19.5628 13.3805C19.6421 13.4619 19.7049 13.5584 19.7478 13.6647C19.7906 13.771 19.8127 13.8849 19.8127 14C19.8127 14.115 19.7906 14.229 19.7478 14.3353C19.7049 14.4416 19.6421 14.5381 19.5628 14.6195C19.4836 14.7009 19.3896 14.7654 19.2861 14.8094C19.1826 14.8534 19.0717 14.8761 18.9596 14.8761C18.8476 14.8761 18.7367 14.8534 18.6332 14.8094C18.5297 14.7654 18.4356 14.7009 18.3564 14.6195L14.6997 10.8622L14.6997 19.25C14.6997 19.4821 14.6099 19.7046 14.4502 19.8687C14.2904 20.0328 14.0737 20.125 13.8477 20.125C13.6218 20.125 13.405 20.0328 13.2453 19.8687C13.0855 19.7046 12.9957 19.4821 12.9957 19.25L12.9957 10.8622L9.33901 14.6195Z" fill="#616161"/>
</svg>
