<svg width="41" height="41" viewBox="0 0 41 41" fill="none" xmlns="http://www.w3.org/2000/svg">
<circle cx="20.5" cy="20.5" r="20.5" fill="#99CFD0"/>
<path d="M32.75 29.75H11.25V10.25C11.25 10.1125 11.1375 10 11 10H9.25C9.1125 10 9 10.1125 9 10.25V31.75C9 31.8875 9.1125 32 9.25 32H32.75C32.8875 32 33 31.8875 33 31.75V30C33 29.8625 32.8875 29.75 32.75 29.75ZM14 27.25H15.75C15.8875 27.25 16 27.1375 16 27V22.5C16 22.3625 15.8875 22.25 15.75 22.25H14C13.8625 22.25 13.75 22.3625 13.75 22.5V27C13.75 27.1375 13.8625 27.25 14 27.25ZM18.75 27.25H20.5C20.6375 27.25 20.75 27.1375 20.75 27V17C20.75 16.8625 20.6375 16.75 20.5 16.75H18.75C18.6125 16.75 18.5 16.8625 18.5 17V27C18.5 27.1375 18.6125 27.25 18.75 27.25ZM23.5 27.25H25.25C25.3875 27.25 25.5 27.1375 25.5 27V19.4375C25.5 19.3 25.3875 19.1875 25.25 19.1875H23.5C23.3625 19.1875 23.25 19.3 23.25 19.4375V27C23.25 27.1375 23.3625 27.25 23.5 27.25ZM28.25 27.25H30C30.1375 27.25 30.25 27.1375 30.25 27V14.5C30.25 14.3625 30.1375 14.25 30 14.25H28.25C28.1125 14.25 28 14.3625 28 14.5V27C28 27.1375 28.1125 27.25 28.25 27.25Z" fill="#008689"/>
</svg>
