<svg width="41" height="41" viewBox="0 0 41 41" fill="none" xmlns="http://www.w3.org/2000/svg">
<circle cx="20.5" cy="20.5" r="20.5" fill="#008689" fill-opacity="0.4"/>
<g clip-path="url(#clip0_202_1903)">
<path fill-rule="evenodd" clip-rule="evenodd" d="M33.1602 23.854C33.1602 23.4699 33.0845 23.0896 32.9375 22.7347C32.7905 22.3799 32.5751 22.0574 32.3035 21.7858C32.0319 21.5142 31.7095 21.2988 31.3546 21.1518C30.9998 21.0048 30.6195 20.9292 30.2354 20.9292C29.8513 20.9292 29.471 21.0048 29.1161 21.1518C28.7612 21.2988 28.4388 21.5142 28.1672 21.7858C27.8956 22.0574 27.6802 22.3799 27.5332 22.7347C27.3862 23.0896 27.3106 23.4699 27.3106 23.854C27.3106 24.9472 27.9166 25.889 28.8064 26.3911C27.9775 29.2297 25.9143 30.8162 23.499 30.8162C20.598 30.8162 18.2005 28.8925 17.844 24.9799C20.5519 24.7824 24.2773 23.1246 24.2773 19.6993V14.3829C24.2773 13.1099 23.7485 11.9216 22.8083 11.1328C22.7968 10.5592 22.558 10.0136 22.1443 9.61613C21.7307 9.21861 21.176 9.0017 20.6024 9.01312C20.0288 9.02455 19.4832 9.26337 19.0857 9.67705C18.6882 10.0907 18.4713 10.6454 18.4827 11.219C18.4828 11.6107 18.589 11.9951 18.7901 12.3313C18.9912 12.6675 19.2797 12.9429 19.6248 13.1282C19.97 13.3135 20.3589 13.4018 20.7502 13.3836C21.1416 13.3655 21.5206 13.2417 21.8472 13.0252C22.122 13.3936 22.8781 13.9016 22.8781 14.3829V19.6993C22.8781 22.1814 18.7441 23.8985 17.3048 23.8985H16.1209C15.1494 23.8985 10.9249 22.4532 10.9249 19.6993V14.3829C10.9249 13.9076 11.8132 13.3862 12.082 13.0193C12.3649 13.2033 12.6868 13.3187 13.0222 13.3564C13.3575 13.394 13.697 13.3528 14.0136 13.236C14.3302 13.1193 14.6152 12.9302 14.8458 12.6839C15.0765 12.4375 15.2464 12.1407 15.3421 11.8171C15.4378 11.4935 15.4566 11.1521 15.397 10.8199C15.3374 10.4878 15.201 10.1741 14.9988 9.90396C14.7966 9.63381 14.5341 9.4146 14.2322 9.26381C13.9303 9.11302 13.5974 9.03481 13.26 9.03541C12.085 9.03541 11.1328 9.97271 11.0987 11.1402C10.1747 11.926 9.50928 13.1203 9.50928 14.3829V19.6993C9.50928 23.1989 13.0223 24.8522 15.7584 24.9874C16.1551 29.9917 19.5492 32.7309 23.5718 32.7309C26.9808 32.7309 29.8091 30.4879 30.8444 26.7119C31.4994 26.573 32.0869 26.2134 32.5085 25.6931C32.93 25.1729 33.1601 24.5236 33.1602 23.854Z" fill="#008689"/>
</g>
<defs>
<clipPath id="clip0_202_1903">
<rect width="25.2522" height="23.7668" fill="white" transform="translate(8 9)"/>
</clipPath>
</defs>
</svg>
