<svg width="424" height="356" viewBox="0 0 424 356" fill="none" xmlns="http://www.w3.org/2000/svg">
<path d="M418.298 142.211L218.438 2.1006C214.349 -0.7002 208.974 -0.7002 204.887 2.1006L5.01748 142.211C0.763585 145.179 -0.974715 150.5 0.536985 155.426C2.04869 160.355 6.6425 163.656 11.795 163.656H61.971V314.406C61.971 337.199 80.506 355.789 103.299 355.789H319.959C342.807 355.789 361.342 337.195 361.342 314.406L361.346 163.656H411.522C416.674 163.656 421.264 160.351 422.78 155.426C424.346 150.496 422.553 145.176 418.299 142.207L418.298 142.211ZM168.028 332.101V202.631H255.333V332.161H168.028V332.101ZM349.528 140.021C342.978 140.021 337.766 145.341 337.766 151.837V314.347C337.766 324.147 329.759 332.101 320.012 332.101L278.914 332.097V190.807C278.914 184.311 273.649 178.991 267.152 178.991H156.212C149.716 178.991 144.396 184.311 144.396 190.807V332.097L103.294 332.093C93.4937 332.093 85.5405 324.14 85.5405 314.339V151.829C85.5405 145.333 80.2749 140.013 73.7245 140.013H49.1425L211.652 26.1628L374.163 140.013L349.528 140.021Z" fill="#008689"/>
</svg>
