<svg width="17" height="17" viewBox="0 0 17 17" fill="none" xmlns="http://www.w3.org/2000/svg">
<path fill-rule="evenodd" clip-rule="evenodd" d="M5.28763 0.755002C6.1185 0.716752 6.38342 0.708252 8.49992 0.708252C10.6164 0.708252 10.8813 0.71746 11.7115 0.755002C12.5417 0.792544 13.1083 0.925002 13.6042 1.11696C14.1234 1.31317 14.5944 1.61988 14.984 2.01654C15.3807 2.40542 15.6867 2.87575 15.8822 3.39567C16.0748 3.8915 16.2066 4.45817 16.2448 5.28692C16.2831 6.11921 16.2916 6.38413 16.2916 8.49992C16.2916 10.6164 16.2824 10.8813 16.2448 11.7122C16.2073 12.541 16.0748 13.1076 15.8822 13.6035C15.6867 14.1234 15.3802 14.5946 14.984 14.984C14.5944 15.3807 14.1234 15.6867 13.6042 15.8822C13.1083 16.0748 12.5417 16.2066 11.7129 16.2448C10.8813 16.2831 10.6164 16.2916 8.49992 16.2916C6.38342 16.2916 6.1185 16.2824 5.28763 16.2448C4.45888 16.2073 3.89221 16.0748 3.39638 15.8822C2.8764 15.6866 2.40529 15.3801 2.01584 14.984C1.61944 14.5949 1.31268 14.124 1.11696 13.6042C0.925002 13.1083 0.793252 12.5417 0.755002 11.7129C0.716752 10.8806 0.708252 10.6157 0.708252 8.49992C0.708252 6.38342 0.71746 6.1185 0.755002 5.28834C0.792544 4.45817 0.925002 3.8915 1.11696 3.39567C1.31297 2.87581 1.61996 2.40493 2.01654 2.01584C2.40545 1.61952 2.87609 1.31277 3.39567 1.11696C3.8915 0.925002 4.45817 0.793252 5.28692 0.755002H5.28763ZM11.6485 2.1575C10.8268 2.11996 10.5803 2.11217 8.49992 2.11217C6.41954 2.11217 6.17304 2.11996 5.35138 2.1575C4.59134 2.19221 4.17909 2.319 3.90425 2.42596C3.54088 2.56763 3.28092 2.7355 3.00821 3.00821C2.7497 3.25971 2.55075 3.56587 2.42596 3.90425C2.319 4.17909 2.19221 4.59134 2.1575 5.35138C2.11996 6.17304 2.11217 6.41954 2.11217 8.49992C2.11217 10.5803 2.11996 10.8268 2.1575 11.6485C2.19221 12.4085 2.319 12.8208 2.42596 13.0956C2.55063 13.4335 2.74967 13.7402 3.00821 13.9916C3.25967 14.2502 3.56638 14.4492 3.90425 14.5739C4.17909 14.6808 4.59134 14.8076 5.35138 14.8423C6.17304 14.8799 6.41884 14.8877 8.49992 14.8877C10.581 14.8877 10.8268 14.8799 11.6485 14.8423C12.4085 14.8076 12.8208 14.6808 13.0956 14.5739C13.459 14.4322 13.7189 14.2643 13.9916 13.9916C14.2502 13.7402 14.4492 13.4335 14.5739 13.0956C14.6808 12.8208 14.8076 12.4085 14.8423 11.6485C14.8799 10.8268 14.8877 10.5803 14.8877 8.49992C14.8877 6.41954 14.8799 6.17304 14.8423 5.35138C14.8076 4.59134 14.6808 4.17909 14.5739 3.90425C14.4322 3.54088 14.2643 3.28092 13.9916 3.00821C13.7401 2.74972 13.434 2.55078 13.0956 2.42596C12.8208 2.319 12.4085 2.19221 11.6485 2.1575ZM7.50471 10.9019C8.06051 11.1332 8.67939 11.1645 9.25566 10.9902C9.83192 10.816 10.3298 10.4471 10.6643 9.94651C10.9988 9.44595 11.1491 8.84478 11.0896 8.2457C11.0301 7.64662 10.7645 7.08677 10.338 6.66179C10.0662 6.39013 9.73753 6.18212 9.37565 6.05273C9.01378 5.92334 8.62772 5.8758 8.24527 5.91352C7.86282 5.95124 7.49348 6.07329 7.16386 6.27089C6.83424 6.46848 6.55253 6.7367 6.33901 7.05623C6.12549 7.37576 5.98547 7.73866 5.92903 8.11881C5.8726 8.49895 5.90115 8.88688 6.01263 9.25466C6.12412 9.62244 6.31576 9.96093 6.57376 10.2458C6.83177 10.5306 7.14971 10.7547 7.50471 10.9019ZM5.668 5.668C6.03989 5.29611 6.4814 5.00111 6.9673 4.79984C7.4532 4.59857 7.97398 4.49498 8.49992 4.49498C9.02585 4.49498 9.54664 4.59857 10.0325 4.79984C10.5184 5.00111 10.9599 5.29611 11.3318 5.668C11.7037 6.03989 11.9987 6.4814 12.2 6.9673C12.4013 7.4532 12.5049 7.97398 12.5049 8.49992C12.5049 9.02585 12.4013 9.54664 12.2 10.0325C11.9987 10.5184 11.7037 10.9599 11.3318 11.3318C10.5808 12.0829 9.56209 12.5049 8.49992 12.5049C7.43774 12.5049 6.41907 12.0829 5.668 11.3318C4.91693 10.5808 4.49498 9.56209 4.49498 8.49992C4.49498 7.43774 4.91693 6.41907 5.668 5.668ZM13.3931 5.09142C13.4852 5.00448 13.559 4.89994 13.6101 4.78398C13.6611 4.66802 13.6883 4.543 13.6902 4.41633C13.692 4.28965 13.6684 4.16389 13.6208 4.04649C13.5732 3.92909 13.5025 3.82245 13.4129 3.73286C13.3233 3.64328 13.2167 3.57258 13.0993 3.52495C12.9819 3.47732 12.8561 3.45373 12.7294 3.45558C12.6027 3.45743 12.4777 3.48467 12.3618 3.5357C12.2458 3.58673 12.1413 3.66051 12.0543 3.75267C11.8853 3.9319 11.7927 4.16996 11.7963 4.41633C11.7999 4.66269 11.8993 4.89796 12.0736 5.07218C12.2478 5.24641 12.4831 5.34587 12.7294 5.34946C12.9758 5.35306 13.2139 5.26049 13.3931 5.09142Z" fill="#005359"/>
</svg>
