<svg xmlns="http://www.w3.org/2000/svg" viewBox="0 0 281.37 169.8"><defs><style>.cls-1{isolation:isolate;}.cls-2{fill:#ddd;}.cls-3{fill:#005359;}.cls-4{fill:#00a78d;}.cls-5{fill:#1d1d1b;opacity:0.1;mix-blend-mode:multiply;}.cls-6{fill:#00484c;}.cls-7{fill:#fff;}.cls-8{fill:#00967f;}</style></defs><g class="cls-1"><g id="Camada_1" data-name="Camada 1"><polygon class="cls-3" points="31.41 100.71 31.41 100.72 31.41 100.72 31.41 100.71"/><polygon class="cls-3" points="31.41 100.71 31.41 100.72 31.41 100.72 31.41 100.71"/><path class="cls-3" d="M201.85,115.45v5.19a11.61,11.61,0,0,1-.38,3,8.4,8.4,0,0,1-1.08,2.46,5.44,5.44,0,0,1-1.71,1.64,4.44,4.44,0,0,1-4.49,0,5.35,5.35,0,0,1-1.68-1.64,7.91,7.91,0,0,1-1.08-2.46,11.19,11.19,0,0,1-.39-3V109.88a11,11,0,0,0-3,.38,12.82,12.82,0,0,0-2.5,1v9.37a12.14,12.14,0,0,0,.81,4.46,11.28,11.28,0,0,0,2.25,3.62,10.7,10.7,0,0,0,15.63,0,11.28,11.28,0,0,0,2.25-3.62,12.14,12.14,0,0,0,.81-4.46V114a13.09,13.09,0,0,1-3.92,1.33A11.6,11.6,0,0,1,201.85,115.45Z"/><path class="cls-3" d="M226.53,100.11V111a13.17,13.17,0,0,0-1.54-.8,11.43,11.43,0,0,0-8.89,0,11.63,11.63,0,0,0-3.62,2.45,11.27,11.27,0,0,0-1.6,2,11.7,11.7,0,0,0-.88,1.64,11.5,11.5,0,0,0,0,8.92,11.58,11.58,0,0,0,6.08,6.08,11,11,0,0,0,4.46.9,11.24,11.24,0,0,0,4.48-.9,11.62,11.62,0,0,0,6.1-6.08,11.07,11.07,0,0,0,.9-4.46v-22a11.53,11.53,0,0,0-3,.36A11.76,11.76,0,0,0,226.53,100.11Zm0,20v.72a8.66,8.66,0,0,1-.5,3,8.57,8.57,0,0,1-1.31,2.41,5.85,5.85,0,0,1-.87.92,5.45,5.45,0,0,1-1,.68,4.82,4.82,0,0,1-2.32.61,4.75,4.75,0,0,1-2.34-.61,6.43,6.43,0,0,1-1.89-1.65,7,7,0,0,1-.72-1.11,8,8,0,0,1-.54-1.3,9.65,9.65,0,0,1,0-6,8,8,0,0,1,1.28-2.43,6.26,6.26,0,0,1,1.89-1.64,4.58,4.58,0,0,1,2.3-.61,4.81,4.81,0,0,1,2.72.83,6.68,6.68,0,0,1,2.05,2.23v0a8.78,8.78,0,0,1,.76,1.64A9,9,0,0,1,226.53,120.1Z"/><path class="cls-3" d="M242.19,124a14.38,14.38,0,0,0,1.71.13H244c.58,0,1.15,0,1.71,0a14.28,14.28,0,0,0,4.37-.9,7.88,7.88,0,0,0,3.13-2.11,5.29,5.29,0,0,0,1.31-3.36,6.35,6.35,0,0,0-.66-3.19,8.85,8.85,0,0,0-2-2.7,9.65,9.65,0,0,0-3-1.87,9.8,9.8,0,0,0-3.69-.7,11.21,11.21,0,0,0-4.48.9,11.45,11.45,0,0,0-6.11,6.1,11.24,11.24,0,0,0-.9,4.48,11.07,11.07,0,0,0,.9,4.46,11.59,11.59,0,0,0,6.11,6.08,11.21,11.21,0,0,0,4.48.9,11,11,0,0,0,4.32-.86A11.58,11.58,0,0,0,253,129c.63-.71-.38-3-1.51-3.81a14.79,14.79,0,0,1-2.68,2.28,6.91,6.91,0,0,1-1.67.74,5.18,5.18,0,0,1-2,.21,4.91,4.91,0,0,1-2.35-.59,6.12,6.12,0,0,1-1.89-1.6,8,8,0,0,1-1.28-2.36l-.08-.26c.73.12,1.51.24,2.24.34Zm-1.48-8.59a5.55,5.55,0,0,1,1.82-1.57,4.94,4.94,0,0,1,2.37-.56,5.73,5.73,0,0,1,2.59.47,3.88,3.88,0,0,1,1.39,1.1,3,3,0,0,1,.59,1.24,6.06,6.06,0,0,1,.11.83,4.52,4.52,0,0,1-.23,1,2.87,2.87,0,0,1-1.17,1.41,6.54,6.54,0,0,1-2.86,1,10.71,10.71,0,0,1-2.23,0,13.23,13.23,0,0,1-3.86-1.17,9.37,9.37,0,0,1,.29-1.32A7.61,7.61,0,0,1,240.71,115.39Z"/><path class="cls-3" d="M211.75,108.35a9.13,9.13,0,0,1-1.76.18,8.47,8.47,0,0,1-3.38-.68h0a7.25,7.25,0,0,1-1.13,1.2,7.48,7.48,0,0,1-2.34,1.33,7.2,7.2,0,0,1-1.28.3v2.67a11.6,11.6,0,0,0,1.53-.14,13.57,13.57,0,0,0,4.28-1.5A16.14,16.14,0,0,0,211.75,108.35Z"/><path class="cls-3" d="M211.75,108.35a9.13,9.13,0,0,1-1.76.18,8.47,8.47,0,0,1-3.38-.68h0a7.25,7.25,0,0,1-1.13,1.2,7.48,7.48,0,0,1-2.34,1.33,7.2,7.2,0,0,1-1.28.3v2.67a11.6,11.6,0,0,0,1.53-.14,13.57,13.57,0,0,0,4.28-1.5A16.14,16.14,0,0,0,211.75,108.35Z"/><path class="cls-4" d="M153,126.71a10,10,0,0,0-.85-.6,5.32,5.32,0,0,1-4.83,1.67,6.89,6.89,0,0,1-2.58-.62,6.69,6.69,0,0,1-2.07-1.77,9.62,9.62,0,0,1-1.46-2.75,10.31,10.31,0,0,1-.54-3.37v-.62h0V100.5c-.55.24-1.11.47-1.66.74a23.09,23.09,0,0,0-4.52,3v3.89h0v10.94a12.67,12.67,0,0,0,1,5.08c.23.52.49,1,.76,1.48a11.77,11.77,0,0,0,2,2.66,11.43,11.43,0,0,0,1.84,1.49,13.11,13.11,0,0,0,2.35,1.31,12.67,12.67,0,0,0,5.08,1,12.93,12.93,0,0,0,4.35-.72,12.57,12.57,0,0,0,2-.94,10.37,10.37,0,0,0,1.61-1A11.61,11.61,0,0,0,153,126.71Z"/><path class="cls-4" d="M49.92,126.71a6.82,6.82,0,0,0-.62-.43,6.75,6.75,0,0,1-2.18,1.21,7.94,7.94,0,0,1-2.69.41,5.62,5.62,0,0,1-2.65-.66,6.88,6.88,0,0,1-2.18-1.85,9.4,9.4,0,0,1-1.47-2.75,10.31,10.31,0,0,1-.54-3.37v-.62h0V100.5c-.55.24-1.11.47-1.66.74a23.09,23.09,0,0,0-4.52,3v3.89h0v10.94a12.67,12.67,0,0,0,1,5.08,13.18,13.18,0,0,0,6.94,6.94,12.72,12.72,0,0,0,5.09,1,12.92,12.92,0,0,0,4.34-.72,13.07,13.07,0,0,0,3.61-2A11.55,11.55,0,0,0,49.92,126.71Z"/><path class="cls-4" d="M53.62,111.68v20h1.09a12.49,12.49,0,0,0,4.46-1.32v-20a10.91,10.91,0,0,0-3,.39A12.66,12.66,0,0,0,53.62,111.68Z"/><path class="cls-4" d="M56.39,100.86A3,3,0,0,0,53.3,104a3.09,3.09,0,0,0,.89,2.23,2.94,2.94,0,0,0,2.2.91A3.11,3.11,0,0,0,59.53,104a2.93,2.93,0,0,0-.91-2.2A3.07,3.07,0,0,0,56.39,100.86Z"/><path class="cls-4" d="M68.27,125.64a8.23,8.23,0,0,1-1.3-2.46,9.52,9.52,0,0,1-.47-3v-5.73a28.33,28.33,0,0,1,6,.18v-4.18s-2.7-.29-6-.42v-8.49a10.91,10.91,0,0,0-3,.39A13.29,13.29,0,0,0,61,103v17.23a11.07,11.07,0,0,0,.91,4.5A11.66,11.66,0,0,0,68,130.82a11.44,11.44,0,0,0,4.52.91v-3.82a4.73,4.73,0,0,1-2.36-.62A6.36,6.36,0,0,1,68.27,125.64Z"/><path class="cls-4" d="M92.25,112.7a11.87,11.87,0,0,0-3.68-2.48,11.35,11.35,0,0,0-4.48-.9,11.23,11.23,0,0,0-4.5.9,11.9,11.9,0,0,0-3.66,2.48,11.7,11.7,0,0,0-2.48,3.68,11.35,11.35,0,0,0-.91,4.48,11.24,11.24,0,0,0,.91,4.5,11.71,11.71,0,0,0,6.14,6.14,11.53,11.53,0,0,0,9,0,11.66,11.66,0,0,0,6.16-6.14,11.24,11.24,0,0,0,.91-4.5,11.35,11.35,0,0,0-.91-4.48A11.87,11.87,0,0,0,92.25,112.7Zm-2.59,11.18a8,8,0,0,1-1.3,2.48A6.23,6.23,0,0,1,86.43,128a4.76,4.76,0,0,1-2.34.62,4.7,4.7,0,0,1-2.36-.62,6.28,6.28,0,0,1-1.91-1.66,8,8,0,0,1-1.3-2.48,9.41,9.41,0,0,1-.48-3,9.25,9.25,0,0,1,.48-3,8.6,8.6,0,0,1,1.3-2.48,6.21,6.21,0,0,1,1.91-1.68,4.69,4.69,0,0,1,2.36-.61,4.75,4.75,0,0,1,2.34.61,6.17,6.17,0,0,1,1.93,1.68,8.6,8.6,0,0,1,1.3,2.48,9.25,9.25,0,0,1,.48,3A9.41,9.41,0,0,1,89.66,123.88Z"/><path class="cls-4" d="M132.93,116.38a11.67,11.67,0,0,0-2.47-3.68,11.92,11.92,0,0,0-3.69-2.48,11.63,11.63,0,0,0-9,0,11.66,11.66,0,0,0-6.14,6.16,11.18,11.18,0,0,0-.91,4.48v0a11.14,11.14,0,0,0,.91,4.5,11.84,11.84,0,0,0,2.48,3.66,11.59,11.59,0,0,0,3.66,2.47,11.07,11.07,0,0,0,4.5.91,11.45,11.45,0,0,0,2.52-.27,12,12,0,0,0,2.3-.77v-.08a11,11,0,0,0,1.51-.83,12.07,12.07,0,0,0,2.24.86,11,11,0,0,0,3,.37V120.86A11.18,11.18,0,0,0,132.93,116.38Zm-6.29,9.88-.22.26a7,7,0,0,1-.7.74l-.06,0a5.63,5.63,0,0,1-1,.71h0a3.54,3.54,0,0,1-.52.25l-.1,0a4.11,4.11,0,0,1-.46.15,2.27,2.27,0,0,1-.25.06l-.36.07a4.48,4.48,0,0,1-.64,0h0A4.68,4.68,0,0,1,120,128a6.27,6.27,0,0,1-1.94-1.66,8.19,8.19,0,0,1-1.29-2.48,9.23,9.23,0,0,1-.48-3,9.56,9.56,0,0,1,.39-2.72c0-.1,0-.21.09-.31s0-.11.07-.17a8.14,8.14,0,0,1,1.22-2.28,6.27,6.27,0,0,1,1.94-1.66,4.76,4.76,0,0,1,2.34-.62,4.86,4.86,0,0,1,2.61.74h0a4.57,4.57,0,0,1,.76.57,7,7,0,0,1,1,1.19,7.94,7.94,0,0,1,.5.78l.1.18a11.93,11.93,0,0,1,.54,1.26,10,10,0,0,1,.41,1.91c0,.11,0,.22,0,.33a.17.17,0,0,1,0,.07c0,.23,0,.47,0,.71a9.52,9.52,0,0,1-.47,3A8.36,8.36,0,0,1,126.64,126.26Z"/><path class="cls-3" d="M182.85,116.25a11.48,11.48,0,0,0-6.1-6.1,11.45,11.45,0,0,0-8.9,0,11.63,11.63,0,0,0-3.62,2.45,11.51,11.51,0,0,0-2.46,3.65,11.12,11.12,0,0,0-.9,4.44v0a11.07,11.07,0,0,0,.9,4.46,11.68,11.68,0,0,0,6.08,6.08,11.07,11.07,0,0,0,4.46.9,11.21,11.21,0,0,0,4.77-1v-.07a12.92,12.92,0,0,0,1.51-.83,11.78,11.78,0,0,0,2.21.86,11.25,11.25,0,0,0,2.95.36V120.73h0v0A11.12,11.12,0,0,0,182.85,116.25ZM176.61,126l-.21.26a6.92,6.92,0,0,1-.7.73l0,0a6.28,6.28,0,0,1-1,.7h0l-.51.25-.1,0-.46.16-.25.05-.35.07a4.48,4.48,0,0,1-.64,0h0a4.93,4.93,0,0,1-2.32-.61,6.17,6.17,0,0,1-1.88-1.62s0,0,0,0a7.91,7.91,0,0,1-1.28-2.45,9.43,9.43,0,0,1-.48-3,9.65,9.65,0,0,1,.43-2.84c0-.05,0-.11.05-.16l0-.09a8.42,8.42,0,0,1,1.25-2.34,6.21,6.21,0,0,1,1.91-1.64,4.71,4.71,0,0,1,2.32-.61,4.8,4.8,0,0,1,2.49.68,6.15,6.15,0,0,1,.52.37,2.88,2.88,0,0,1,.35.26c.12.11.23.23.34.35s.27.27.4.42l.3.41a8.42,8.42,0,0,1,.49.77l.1.18a9.25,9.25,0,0,1,.53,1.24c0,.12.07.25.1.37a9.77,9.77,0,0,1,.25,1.07s0,.06,0,.09a10,10,0,0,1,.11,1.48,9.36,9.36,0,0,1-.47,3A8,8,0,0,1,176.61,126Z"/><path class="cls-3" d="M157.89,115.23a12,12,0,0,0-2.33-2.16c-.58-.42-1.17-.79-1.78-1.15v0l-.23-.12-.16-.08-.59-.34c-.49-.27-.86-.47-1.16-.62h0l-.5-.28c-.68-.36-1.28-.72-1.8-1a7.53,7.53,0,0,1-1.28-1,3.53,3.53,0,0,1-.76-1.09,2.85,2.85,0,0,1-.21-1.31,4,4,0,0,1,1.14-2.54,3.92,3.92,0,0,1,3-1.14,6.35,6.35,0,0,1,2.21.45,6.72,6.72,0,0,1,2.51,1.87l0,0a7.36,7.36,0,0,0,1.11-1.5,13.47,13.47,0,0,0,.79-1.62A11.81,11.81,0,0,0,155,99.62a9.75,9.75,0,0,0-3.52-.8,10.8,10.8,0,0,0-4.42.57,8.78,8.78,0,0,0-2.95,1.81,7.46,7.46,0,0,0-1.71,2.45,9.37,9.37,0,0,0-.68,2.43,7.15,7.15,0,0,0,1.49,5.54,10.76,10.76,0,0,0,1.4,1.48h0a5.06,5.06,0,0,0,.65.46c.27.16,1.62,1,2.82,1.85l1.5,1a9.82,9.82,0,0,1,3.34,3.48,6.11,6.11,0,0,1,.57,3.73A4.67,4.67,0,0,1,153,125a10.41,10.41,0,0,1,1,.72,11.55,11.55,0,0,1,2.58,3,10.2,10.2,0,0,0,2.16-2.75,10.65,10.65,0,0,0,1.21-4.42,9.15,9.15,0,0,0-.48-3.56A9.38,9.38,0,0,0,157.89,115.23Z"/><path class="cls-4" d="M56.39,100.86A3,3,0,0,0,53.3,104a3.09,3.09,0,0,0,.89,2.23,2.94,2.94,0,0,0,2.2.91A3.11,3.11,0,0,0,59.53,104a2.93,2.93,0,0,0-.91-2.2A3.07,3.07,0,0,0,56.39,100.86Z"/><path class="cls-4" d="M110.8,110.13a11.57,11.57,0,0,0-6.53.73,11.84,11.84,0,0,0-3.66,2.48A11.56,11.56,0,0,0,98.14,117a9.8,9.8,0,0,0-.48,1.38,11.38,11.38,0,0,0-.43,3.1v10.14a11.28,11.28,0,0,0,5.54-1.37V121.5a9.25,9.25,0,0,1,.48-3c0-.15.11-.29.16-.43a7.85,7.85,0,0,1,1.14-2,6.5,6.5,0,0,1,1.9-1.66,4.79,4.79,0,0,1,2.32-.61,5.45,5.45,0,0,1,2.37.36l1.54-3.45A10.71,10.71,0,0,0,110.8,110.13Z"/><path class="cls-5" d="M127.87,117.86a10,10,0,0,1,.41,1.91c0,.11,0,.22,0,.33a.17.17,0,0,1,0,.07c0,.23,0,.47,0,.71a9.52,9.52,0,0,1-.47,3,8.36,8.36,0,0,1-1.23,2.38l-.22.26a7,7,0,0,1-.7.74l-.06,0a5.63,5.63,0,0,1-1,.71h0a3.54,3.54,0,0,1-.52.25l-.1,0a4.11,4.11,0,0,1-.46.15,2.27,2.27,0,0,1-.25.06l-.36.07a4.48,4.48,0,0,1-.64,0h0A4.68,4.68,0,0,1,120,128a6.27,6.27,0,0,1-1.94-1.66,8.19,8.19,0,0,1-1.29-2.48,9.23,9.23,0,0,1-.48-3,9.56,9.56,0,0,1,.39-2.72c0-.1,0-.21.09-.31s0-.11.07-.17.07-.17.11-.26l-5.71.25a11.58,11.58,0,0,0-.45,3.18v0a11.14,11.14,0,0,0,.91,4.5,11.84,11.84,0,0,0,2.48,3.66,11.59,11.59,0,0,0,3.66,2.47,11.07,11.07,0,0,0,4.5.91,11.45,11.45,0,0,0,2.52-.27,12,12,0,0,0,2.3-.77v-.08a11,11,0,0,0,1.51-.83,12.07,12.07,0,0,0,2.24.86,11,11,0,0,0,3,.37V120.86a11.27,11.27,0,0,0-.73-4l-5.58.18C127.65,117.3,127.77,117.57,127.87,117.86Z"/><path class="cls-5" d="M90.14,120.86a9.41,9.41,0,0,1-.48,3,8,8,0,0,1-1.3,2.48A6.23,6.23,0,0,1,86.43,128a4.76,4.76,0,0,1-2.34.62,4.7,4.7,0,0,1-2.36-.62,6.28,6.28,0,0,1-1.91-1.66,8,8,0,0,1-1.3-2.48,9.41,9.41,0,0,1-.48-3,10.39,10.39,0,0,1,.07-1.13l-5.53.44c0,.23,0,.46,0,.69a11.24,11.24,0,0,0,.91,4.5,11.71,11.71,0,0,0,6.14,6.14,11.53,11.53,0,0,0,9,0,11.66,11.66,0,0,0,6.16-6.14,11.53,11.53,0,0,0,.67-6.83l-5.47.35A9.92,9.92,0,0,1,90.14,120.86Z"/><path class="cls-5" d="M61.86,124.68A11.66,11.66,0,0,0,68,130.82a11.44,11.44,0,0,0,4.52.91v-3.82a4.73,4.73,0,0,1-2.36-.62,6.5,6.5,0,0,1-1.91-1.65,8.23,8.23,0,0,1-1.3-2.46,9.29,9.29,0,0,1-.45-2.49l-5.52.5A10.84,10.84,0,0,0,61.86,124.68Z"/><path class="cls-5" d="M35.2,128.34a13.28,13.28,0,0,0,4.14,2.8,12.72,12.72,0,0,0,5.09,1,12.92,12.92,0,0,0,4.34-.72,13.07,13.07,0,0,0,3.61-2,11.55,11.55,0,0,0-2.46-2.77,6.82,6.82,0,0,0-.62-.43,6.75,6.75,0,0,1-2.18,1.21,7.94,7.94,0,0,1-2.69.41,5.62,5.62,0,0,1-2.65-.66,6.88,6.88,0,0,1-2.18-1.85,9,9,0,0,1-1.08-1.8c-2,.24-4.05.49-6.05.75A13.39,13.39,0,0,0,35.2,128.34Z"/><path class="cls-5" d="M53.62,121.92v9.72h1.09a12.49,12.49,0,0,0,4.46-1.32v-8.95C57.31,121.54,55.46,121.73,53.62,121.92Z"/><path class="cls-5" d="M97.66,118.4a11.38,11.38,0,0,0-.43,3.1v10.14a11.28,11.28,0,0,0,5.54-1.37V121.5a9.25,9.25,0,0,1,.48-3c0-.15.11-.29.16-.43Z"/><path class="cls-5" d="M140.7,118.65v-2l-6.22.15v2.31a12.67,12.67,0,0,0,1,5.08c.23.52.49,1,.76,1.48a11.77,11.77,0,0,0,2,2.66,11.43,11.43,0,0,0,1.84,1.49,13.11,13.11,0,0,0,2.35,1.31,12.67,12.67,0,0,0,5.08,1,12.93,12.93,0,0,0,4.35-.72,12.57,12.57,0,0,0,2-.94,10.37,10.37,0,0,0,1.61-1,11.61,11.61,0,0,0-2.5-2.84,10,10,0,0,0-.85-.6,5.32,5.32,0,0,1-4.83,1.67,6.89,6.89,0,0,1-2.58-.62,6.69,6.69,0,0,1-2.07-1.77,9.62,9.62,0,0,1-1.46-2.75,10.31,10.31,0,0,1-.54-3.37v-.62Z"/><path class="cls-5" d="M152.9,119.9a6.11,6.11,0,0,1,.57,3.73A4.67,4.67,0,0,1,153,125a10.41,10.41,0,0,1,1,.72,11.55,11.55,0,0,1,2.58,3,10.2,10.2,0,0,0,2.16-2.75,10.65,10.65,0,0,0,1.21-4.42,9.15,9.15,0,0,0-.48-3.56,10.47,10.47,0,0,0-.76-1.62c-3,0-6,.06-9.05.11A9.47,9.47,0,0,1,152.9,119.9Z"/><path class="cls-5" d="M177.3,116.47a9.25,9.25,0,0,1,.53,1.24c0,.12.07.25.1.37a9.77,9.77,0,0,1,.25,1.07s0,.06,0,.09a10,10,0,0,1,.11,1.48,9.36,9.36,0,0,1-.47,3,8,8,0,0,1-1.22,2.35l-.21.26a6.92,6.92,0,0,1-.7.73l0,0a6.28,6.28,0,0,1-1,.7h0l-.51.25-.1,0-.46.16-.25.05-.35.07a4.48,4.48,0,0,1-.64,0h0a4.93,4.93,0,0,1-2.32-.61,6.17,6.17,0,0,1-1.88-1.62s0,0,0,0a7.91,7.91,0,0,1-1.28-2.45,9.43,9.43,0,0,1-.48-3,9.65,9.65,0,0,1,.43-2.84c0-.05,0-.11.05-.16l0-.09a8.72,8.72,0,0,1,.57-1.28l-5.67,0a11.12,11.12,0,0,0-.86,4.33v0a11.07,11.07,0,0,0,.9,4.46,11.68,11.68,0,0,0,6.08,6.08,11.07,11.07,0,0,0,4.46.9,11.21,11.21,0,0,0,4.77-1v-.07a12.92,12.92,0,0,0,1.51-.83,11.78,11.78,0,0,0,2.21.86,11.25,11.25,0,0,0,2.95.36V120.73h0v0a11.22,11.22,0,0,0-.84-4.28l-5.67,0Z"/><path class="cls-5" d="M201.85,116.75v3.89a11.61,11.61,0,0,1-.38,3,8.4,8.4,0,0,1-1.08,2.46,5.44,5.44,0,0,1-1.71,1.64,4.44,4.44,0,0,1-4.49,0,5.35,5.35,0,0,1-1.68-1.64,7.91,7.91,0,0,1-1.08-2.46,11.19,11.19,0,0,1-.39-3v-4.12l-5.49-.08v4.2a12.14,12.14,0,0,0,.81,4.46,11.28,11.28,0,0,0,2.25,3.62,10.7,10.7,0,0,0,15.63,0,11.28,11.28,0,0,0,2.25-3.62,12.14,12.14,0,0,0,.81-4.46V116.9Z"/><path class="cls-5" d="M226,117.61a.69.69,0,0,1,0,.1,9,9,0,0,1,.46,2.39v.72a8.66,8.66,0,0,1-.5,3,8.57,8.57,0,0,1-1.31,2.41,5.85,5.85,0,0,1-.87.92,5.45,5.45,0,0,1-1,.68,4.82,4.82,0,0,1-2.32.61,4.75,4.75,0,0,1-2.34-.61,6.43,6.43,0,0,1-1.89-1.65,7,7,0,0,1-.72-1.11,8,8,0,0,1-.54-1.3,9.65,9.65,0,0,1,0-6c.06-.18.13-.36.2-.54l-5.53-.19a11.41,11.41,0,0,0,.26,8.21,11.58,11.58,0,0,0,6.08,6.08,11,11,0,0,0,4.46.9,11.24,11.24,0,0,0,4.48-.9,11.62,11.62,0,0,0,6.1-6.08,11.07,11.07,0,0,0,.9-4.46V117.9Z"/><path class="cls-5" d="M242.19,124a14.38,14.38,0,0,0,1.71.13H244c.58,0,1.15,0,1.71,0a14.28,14.28,0,0,0,4.37-.9,7.88,7.88,0,0,0,3.13-2.11,5.2,5.2,0,0,0,1-1.82l-5.48-.38a3.61,3.61,0,0,1-.54.46,6.54,6.54,0,0,1-2.86,1,10.71,10.71,0,0,1-2.23,0,13.23,13.23,0,0,1-3.86-1.17c0-.29.1-.57.16-.85l-5.46-.3a11.36,11.36,0,0,0,.56,7.19,11.59,11.59,0,0,0,6.11,6.08,11.21,11.21,0,0,0,4.48.9,11,11,0,0,0,4.32-.86A11.58,11.58,0,0,0,253,129c.63-.71-.38-3-1.51-3.81a14.79,14.79,0,0,1-2.68,2.28,6.91,6.91,0,0,1-1.67.74,5.18,5.18,0,0,1-2,.21,4.91,4.91,0,0,1-2.35-.59,6.12,6.12,0,0,1-1.89-1.6,8,8,0,0,1-1.28-2.36l-.08-.26c.73.12,1.51.24,2.24.34Z"/><path class="cls-3" d="M38.22,142.48v-4.86h.69v2h2.31v-2h.69v4.86h-.69v-2.29H38.91v2.29Z"/><path class="cls-3" d="M46.73,142.6a2.08,2.08,0,0,1-1.63-.7,3.11,3.11,0,0,1,0-3.71,2.32,2.32,0,0,1,3.3,0,3.1,3.1,0,0,1,0,3.72A2.14,2.14,0,0,1,46.73,142.6Zm0-.51a1.35,1.35,0,0,0,1.15-.54,2.95,2.95,0,0,0,0-3,1.45,1.45,0,0,0-2.26,0,2.93,2.93,0,0,0,0,3A1.31,1.31,0,0,0,46.74,142.09Z"/><path class="cls-3" d="M52.57,142.6a5,5,0,0,1-1.26-.21v-.68a3.48,3.48,0,0,0,1.35.38,1,1,0,0,0,.66-.22.76.76,0,0,0,.08-1,1.77,1.77,0,0,0-.6-.45l-.33-.19a3.31,3.31,0,0,1-.88-.67,1.13,1.13,0,0,1-.25-.73,1.19,1.19,0,0,1,.41-.93,1.49,1.49,0,0,1,1-.36,4,4,0,0,1,1.19.19v.63a3.59,3.59,0,0,0-1.15-.31.92.92,0,0,0-.59.2.58.58,0,0,0-.23.47.66.66,0,0,0,.17.44,2.71,2.71,0,0,0,.62.44l.35.2a3,3,0,0,1,.88.67,1.21,1.21,0,0,1,.25.77,1.24,1.24,0,0,1-.47,1A1.9,1.9,0,0,1,52.57,142.6Z"/><path class="cls-3" d="M56.85,142.48v-4.86h1.32a2.1,2.1,0,0,1,1.27.3,1.17,1.17,0,0,1,.38,1,1.48,1.48,0,0,1-.53,1.22,2.2,2.2,0,0,1-1.45.44h-.31v1.93Zm.68-2.45h.28a1.47,1.47,0,0,0,.95-.28,1,1,0,0,0,.33-.8.72.72,0,0,0-.26-.63,1.59,1.59,0,0,0-.87-.18h-.43Z"/><path class="cls-3" d="M62.18,142.48v-4.86h.69v4.86Z"/><path class="cls-3" d="M66.78,142.48v-4.34H65.15v-.52h3.94v.52H67.47v4.34Z"/><path class="cls-3" d="M74.18,142.48l-.53-1.35H71.59l-.53,1.35h-.65l1.93-4.86H73l1.9,4.86Zm-.73-1.86-.83-2.09-.83,2.09Z"/><path class="cls-3" d="M77.24,142.48v-4.86h.69V142h2.19v.51Z"/><path class="cls-3" d="M85.63,142.48l-.53-1.35H83l-.53,1.35h-.64l1.92-4.86h.69l1.9,4.86Zm-.73-1.86-.83-2.09-.83,2.09Z"/><path class="cls-3" d="M88.69,142.48v-4.86h1.47a1.64,1.64,0,0,1,1.08.31,1.12,1.12,0,0,1,.37.9,1.43,1.43,0,0,1-1,1.38l1.62,2.27H91.4l-1.38-2h-.64v2Zm.69-2.57h.22c.87,0,1.3-.34,1.3-1,0-.5-.36-.75-1.09-.75h-.43Z"/><path class="cls-3" d="M98.68,143.45V137.3h.49v6.15Z"/><path class="cls-3" d="M108.12,142.6a2,2,0,0,1-1.62-.7,3.09,3.09,0,0,1,0-3.71,2.1,2.1,0,0,1,1.65-.69,2.14,2.14,0,0,1,1.66.69,3.1,3.1,0,0,1,0,3.72A2.17,2.17,0,0,1,108.12,142.6Zm0-.51a1.37,1.37,0,0,0,1.16-.54,2.48,2.48,0,0,0,.4-1.52,2.35,2.35,0,0,0-.41-1.48,1.45,1.45,0,0,0-2.26,0,2.93,2.93,0,0,0,0,3A1.32,1.32,0,0,0,108.13,142.09Z"/><path class="cls-3" d="M113,142.48v-4.86h1.62a3.75,3.75,0,0,1,1.17.16,1.86,1.86,0,0,1,.77.55,2.41,2.41,0,0,1,.51,1.61,2.57,2.57,0,0,1-.64,1.87,2.35,2.35,0,0,1-1.8.67Zm.7-.51h.88a1.6,1.6,0,0,0,1.34-.51,2.34,2.34,0,0,0,.42-1.46,2,2,0,0,0-.42-1.34,1.23,1.23,0,0,0-.6-.41,3.55,3.55,0,0,0-1.06-.11h-.56Z"/><path class="cls-3" d="M121.61,142.6a2,2,0,0,1-1.62-.7,3.09,3.09,0,0,1,0-3.71,2.32,2.32,0,0,1,3.3,0,3.1,3.1,0,0,1,0,3.72A2.14,2.14,0,0,1,121.61,142.6Zm0-.51a1.38,1.38,0,0,0,1.16-.54,2.48,2.48,0,0,0,.4-1.52,2.35,2.35,0,0,0-.41-1.48,1.45,1.45,0,0,0-2.26,0,2.93,2.93,0,0,0,0,3A1.32,1.32,0,0,0,121.62,142.09Z"/><path class="cls-3" d="M126.49,142.48v-4.86h.68l2.45,3.75v-3.75h.59v4.86h-.68l-2.45-3.75v3.75Z"/><path class="cls-3" d="M134.12,142.48v-4.34H132.5v-.52h3.94v.52h-1.63v4.34Z"/><path class="cls-3" d="M140.62,142.6a2.06,2.06,0,0,1-1.63-.7,2.7,2.7,0,0,1-.61-1.85,2.66,2.66,0,0,1,.62-1.86,2.32,2.32,0,0,1,3.3,0,3.1,3.1,0,0,1,0,3.72A2.14,2.14,0,0,1,140.62,142.6Zm0-.51a1.35,1.35,0,0,0,1.15-.54,2.48,2.48,0,0,0,.41-1.52,2.41,2.41,0,0,0-.41-1.48,1.45,1.45,0,0,0-2.26,0,2.38,2.38,0,0,0-.41,1.49,2.45,2.45,0,0,0,.4,1.5A1.33,1.33,0,0,0,140.63,142.09Z"/><path class="cls-3" d="M145.5,142.48v-4.86h.69V142h2.19v.51Z"/><path class="cls-3" d="M152.56,142.6a2,2,0,0,1-1.63-.7,3.09,3.09,0,0,1,0-3.71,2.11,2.11,0,0,1,1.65-.69,2.14,2.14,0,0,1,1.66.69,3.1,3.1,0,0,1,0,3.72A2.16,2.16,0,0,1,152.56,142.6Zm0-.51a1.36,1.36,0,0,0,1.15-.54,2.48,2.48,0,0,0,.41-1.52,2.41,2.41,0,0,0-.41-1.48,1.35,1.35,0,0,0-1.14-.54,1.34,1.34,0,0,0-1.13.54,3,3,0,0,0,0,3A1.33,1.33,0,0,0,152.57,142.09Zm-.47-4.88.79-1.05h.75l-1.06,1.05Z"/><path class="cls-3" d="M161.09,142.35a5.63,5.63,0,0,1-1.54.25,2.32,2.32,0,0,1-1.78-.66,3.16,3.16,0,0,1,0-3.77,2.28,2.28,0,0,1,1.76-.67,5.67,5.67,0,0,1,1.54.22v.64a5.22,5.22,0,0,0-1.54-.35,1.48,1.48,0,0,0-1.22.54,2.34,2.34,0,0,0-.44,1.51,2.18,2.18,0,0,0,.47,1.49,1.64,1.64,0,0,0,1.31.54,2.59,2.59,0,0,0,.74-.12v-1.59h.69Z"/><path class="cls-3" d="M163.91,142.48v-4.86h.69v4.86Z"/><path class="cls-3" d="M169.54,142.6a2.28,2.28,0,0,1-1.75-.66,3.16,3.16,0,0,1,0-3.77,2.3,2.3,0,0,1,1.77-.67,6.78,6.78,0,0,1,1.54.21v.65a5.22,5.22,0,0,0-1.54-.35,1.49,1.49,0,0,0-1.23.54,2.34,2.34,0,0,0-.43,1.51,2.18,2.18,0,0,0,.46,1.47,1.57,1.57,0,0,0,1.26.53,3.15,3.15,0,0,0,1.48-.42v.59A3.33,3.33,0,0,1,169.54,142.6Z"/><path class="cls-3" d="M175.6,142.6a2,2,0,0,1-1.62-.7,3.09,3.09,0,0,1,0-3.71,2.32,2.32,0,0,1,3.3,0,3.1,3.1,0,0,1,0,3.72A2.14,2.14,0,0,1,175.6,142.6Zm0-.51a1.35,1.35,0,0,0,1.15-.54,2.41,2.41,0,0,0,.41-1.52,2.35,2.35,0,0,0-.41-1.48,1.45,1.45,0,0,0-2.26,0,2.93,2.93,0,0,0,0,3A1.31,1.31,0,0,0,175.61,142.09Z"/><path class="cls-3" d="M184.61,143.45V137.3h.48v6.15Z"/><path class="cls-3" d="M193.37,142.48l-1.84-4.86h.69l1.51,4.07,1.45-4.07h.6L194,142.48Z"/><path class="cls-3" d="M198.09,142.48v-4.86h2.71v.52h-2v1.56h1.69v.51h-1.69V142h2.16v.51Z"/><path class="cls-3" d="M204.39,142.48v-4.34h-1.62v-.52h3.94v.52h-1.63v4.34Z"/><path class="cls-3" d="M209,142.48v-4.86h2.71v.52h-2v1.56h1.7v.51h-1.7V142h2.16v.51Z"/><path class="cls-3" d="M214.26,142.48v-4.86h1.47a1.63,1.63,0,0,1,1.07.31,1.09,1.09,0,0,1,.37.9,1.43,1.43,0,0,1-1,1.38l1.62,2.27H217l-1.39-2h-.64v2Zm.68-2.57h.22c.87,0,1.3-.34,1.3-1,0-.5-.36-.75-1.09-.75h-.43Z"/><path class="cls-3" d="M220.12,142.48v-4.86h.69v4.86Z"/><path class="cls-3" d="M223.67,142.48v-4.86h.68l2.45,3.75v-3.75h.59v4.86h-.68l-2.45-3.75v3.75Z"/><path class="cls-3" d="M233.45,142.48l-.53-1.35h-2.06l-.54,1.35h-.64l1.93-4.86h.68l1.9,4.86Zm-.73-1.86-.83-2.09-.83,2.09Zm-1.25-3.41.79-1.05H233L232,137.21Z"/><path class="cls-3" d="M236.51,142.48v-4.86H238a1.61,1.61,0,0,1,1.07.31,1.09,1.09,0,0,1,.37.9,1.42,1.42,0,0,1-1,1.38l1.63,2.27h-.85l-1.38-2h-.65v2Zm.68-2.57h.22c.87,0,1.31-.34,1.31-1,0-.5-.37-.75-1.09-.75h-.44Z"/><path class="cls-3" d="M242.37,142.48v-4.86h.69v4.86Z"/><path class="cls-3" d="M247.88,142.6a2,2,0,0,1-1.62-.7,3.09,3.09,0,0,1,0-3.71,2.32,2.32,0,0,1,3.3,0,3.1,3.1,0,0,1,0,3.72A2.14,2.14,0,0,1,247.88,142.6Zm0-.51a1.38,1.38,0,0,0,1.16-.54,2.48,2.48,0,0,0,.4-1.52,2.35,2.35,0,0,0-.41-1.48,1.45,1.45,0,0,0-2.26,0,2.93,2.93,0,0,0,0,3A1.32,1.32,0,0,0,247.89,142.09Z"/></g></g></svg>