<svg xmlns="http://www.w3.org/2000/svg" id="Camada_1" data-name="Camada 1" viewBox="0 0 281.37 169.8"><defs><style>.cls-1{fill:#ddd;}.cls-2{fill:#005359;}.cls-3{fill:#00484c;}.cls-4{fill:#fff;}.cls-5{fill:#00a78d;}.cls-6{fill:#00967f;}</style></defs><path class="cls-2" d="M75.81,137.16,51.42,94.92a14.88,14.88,0,0,1,0-14.86L75.81,37.82a14.85,14.85,0,0,1,12.87-7.43h48.77a14.88,14.88,0,0,1,12.88,7.43l24.38,42.24a14.83,14.83,0,0,1,0,14.86l-24.38,42.24a14.88,14.88,0,0,1-12.88,7.43H88.68A14.85,14.85,0,0,1,75.81,137.16Z"/><path class="cls-3" d="M144.12,46.84l-.68-.35.32.24.53.45-.06.13c-.26.66-.55,1.31-.85,2a1.19,1.19,0,0,1-.08.16c-.17.35-.35.69-.53,1s-.35.72-.55,1.07l-.22.39c-.2.35-.41.7-.63,1l0,0-.24.35c-.16.24-.32.48-.5.72l-.32.4c-.12.17-.24.33-.37.49l-.1.12c-.34.41-.69.81-1.07,1.21l-.88-.85-.37-.34-.56-.51-.38-.33-.54-.45-.38-.31-.53-.4-.37-.27-.52-.36-.36-.24-.53-.32-.34-.19-.57-.3-.29-.14c-.28-.13-.56-.25-.84-.35-.51-.19-1-.35-1.51-.5l-.45-.13c-.39-.1-.78-.2-1.16-.28l-.34-.08c-.48-.09-.95-.16-1.42-.21l-.3,0c-.44,0-.87-.07-1.29-.07s-1,0-1.56.07l-.5.06-.91.13-.53.11-.78.2-.5.16c-.26.09-.5.19-.75.29l-.44.2a8,8,0,0,0-.76.41l-.34.2a8.52,8.52,0,0,0-.91.67l-.07,0a10.2,10.2,0,0,0-.82.79c-.15.16-.29.33-.43.5l-.34.39c-.19.25-.38.5-.56.76a1.63,1.63,0,0,1-.11.17c-.14.22-.28.44-.41.66l-.09.17c-.15.26-.28.53-.41.8,0,0,0,.11-.07.17-.1.23-.19.46-.28.7l-.06.18a8.29,8.29,0,0,0-.25.85,1.74,1.74,0,0,0-.05.22c0,.22-.1.44-.13.67s0,.21,0,.32q-.06.41-.09.84c0,.34,0,.67,0,1v0a9.53,9.53,0,0,0,.1,1v0a6.59,6.59,0,0,0,.2.88,6.15,6.15,0,0,0,.32.91,8.17,8.17,0,0,0,.38.79l.06.11c.13.23.27.45.42.67l.21.3.35.45.26.3c.17.2.35.39.54.58l.32.3c.18.18.36.35.56.52l.36.31.58.47.54.4.41.3c.32.22.64.44,1,.66l.67.43c.49.31,1,.63,1.54,1l.17.1,1.85,1.06,1,.55.6.33.86.47.06,0,.15.07q.36.15.72.33l.11,0,.21.11.76.39.32.17,1.17.64.36.19c.47.26.92.54,1.37.8l.46.24c.18.08.46.23.68.35l1.93,1.22.36.24.53.34c.79.52,1.58,1,2.35,1.61l.05,0c.39.28.77.57,1.15.86l.38.31.64.52c.36.3.71.6,1.05.91s.4.36.59.55c.36.33.7.68,1,1,.16.16.33.32.48.49.49.52,1,1,1.41,1.6a24.54,24.54,0,0,1,1.6,2.19l.44.7c.34.56.67,1.14,1,1.73.08.15.18.29.25.45s.16.35.25.52.18.38.26.58.15.31.22.48c.15.34.29.68.42,1,0,.14.1.28.16.42l.09.25c.1.29.19.58.28.87s.2.72.29,1.09c0,.07,0,.15.05.22a.45.45,0,0,1,0,.11c.12.51.23,1,.31,1.57,0,.18,0,.36.07.54s0,.33.07.5.06.39.08.58c0,.49.08,1,.11,1.49a2.18,2.18,0,0,0,0,.25v.26l0,.84c0,.41,0,.83,0,1.25,0,.19,0,.38,0,.58s0,.17,0,.26c0,.42-.06.84-.1,1.26,0,0,0,0,0,.08-.08.79-.19,1.55-.33,2.32l0,.24-.09.44-.21,1c0,.13,0,.26-.08.39l-.12.42c-.06.24-.12.48-.19.72s-.07.25-.1.37-.11.34-.17.51-.13.41-.2.61l-.09.29-.24.62c-.08.19-.14.38-.22.56a1.34,1.34,0,0,1-.07.18c-.1.25-.21.48-.32.72s-.16.38-.25.56a.61.61,0,0,1-.05.12c-.2.42-.41.85-.64,1.26l-.09.18c-.35.63-.72,1.25-1.11,1.85-.09.15-.19.29-.29.44l-.35.54c-.19.27-.41.53-.61.8s-.35.48-.53.71c-.07.08-.12.17-.19.25-.39.48-.8,1-1.22,1.4a.08.08,0,0,1,0,0c-.59.64-1.2,1.25-1.85,1.84-.39-.64-.81-1.25-1.23-1.85-.15-.21-.28-.42-.43-.62-.53-.72-1.09-1.43-1.67-2.11-.12-.14-.26-.26-.38-.4-.48-.54-1-1.07-1.49-1.58-.22-.22-.47-.44-.71-.66-.53-.49-1.06-1-1.63-1.45s-.93-.73-1.41-1.07-1-.72-1.58-1.05c.16-.3.32-.61.46-.92a13.61,13.61,0,0,0,.58-1.47c0-.11.07-.22.11-.33a13.05,13.05,0,0,0,.36-1.4c.07-.37.12-.75.16-1.13s.06-.74.07-1.11c0-.11,0-.22,0-.33a14.24,14.24,0,0,0,0-1.46c0-.13,0-.26,0-.38,0-.37-.08-.73-.14-1.1,0-.18-.07-.36-.11-.54s-.13-.64-.21-1l-.15-.56c-.11-.37-.23-.75-.36-1.12-.06-.17-.11-.35-.18-.52-.18-.48-.37-.95-.59-1.43a2.44,2.44,0,0,0-.1-.24c-1.75-3.78-5.61-7.25-9.77-10.15l-4.36-3-.2-.13-.12-.08-1.17-.76-.08-.06-1.07-.7,0,0-2.37-1.56-.12-.08-.45-.3-.1-.06-.31-.2-.22-.15-.36-.23-.09-.06-.34-.22-.09-.06-.32-.21,0,0-.54-.34h0l-.19-.11c-.45-.28-.87-.57-1.28-.88a.78.78,0,0,1-.15-.1l-.47-.37a31.35,31.35,0,0,1-4.11-4.33,17.44,17.44,0,0,1-1.11-1.49L100,75l-.16-.23c-.1-.16-.18-.33-.27-.5-.26-.43-.51-.87-.73-1.32-.12-.26-.24-.52-.35-.78-.19-.44-.36-.89-.52-1.35-.06-.15-.13-.3-.18-.46s-.06-.26-.1-.38c-.12-.42-.22-.84-.32-1.26s-.14-.6-.19-.91c-.08-.46-.14-.92-.19-1.38,0-.3-.08-.6-.1-.91,0-.52,0-1.06-.06-1.6,0-.26,0-.52,0-.79,0-.82.06-1.65.15-2.51,0-.12,0-.23,0-.35.06-.39.13-.78.2-1.18l0-.13c.09-.46.2-.93.32-1.41a.88.88,0,0,0,0-.15c.11-.42.25-.84.38-1.27l.2-.62c.22-.65.47-1.31.74-2l.18-.4-5-8.71v54.7c0,.85,0,1.69.1,2.51,0,.06,0,.13,0,.19.06.75.15,1.49.26,2.21,0,.16,0,.3.08.46.09.53.2,1.05.32,1.57.07.3.13.6.21.89.18.67.37,1.35.59,2s.55,1.5.86,2.21c0,0,0,0,0,0,.24.55.5,1.07.77,1.6s.54,1,.83,1.49c.13.22.26.46.4.68a23.62,23.62,0,0,0,1.4,2c.34.44.7.84,1.06,1.23.12.14.25.29.38.42a18,18,0,0,0,1.34,1.28l.06,0c.48.41,1,.8,1.49,1.16l.07,0a17,17,0,0,0,1.62,1,15.47,15.47,0,0,0,1.47.58l.33.13c.54.18,1.09.34,1.66.48l.24.06c.58.14,1.17.25,1.78.34h0c.65.09,1.32.16,2,.2s1.06,0,1.57,0h.34c.5,0,1,0,1.48-.06s.81-.07,1.2-.12l.23,0c.45-.06.9-.14,1.33-.23l.3-.07c.37-.08.74-.18,1.09-.28l.18,0c.39-.12.77-.26,1.14-.41l.27-.11c.31-.13.62-.27.92-.42l.21-.11c.35-.19.69-.39,1-.6.14-.09.27-.2.4-.29s.48-.34.71-.52.6-.51.87-.77l.3-.3.56-.57h0l.4.25.37.27.67.46.22.16c.27.2.53.41.79.62l.34.29c.44.37.87.75,1.29,1.13.08.07.14.15.22.23.46.43.9.89,1.33,1.35.2.21.41.4.6.62l.14.15c.15.18.29.36.44.53.28.34.58.67.85,1l.36.48.36.49c.48.66,1,1.32,1.38,2-.65.45-1.31.89-2,1.3a1.18,1.18,0,0,1-.19.11l-.28.17c-.73.43-1.47.84-2.25,1.22s-1.73.92-2.62,1.34l-.79.35c-.32.14-.64.3-1,.43-.52.22-1.05.42-1.59.61s-1.24.42-1.88.6c-.28.09-.56.15-.85.23l-.5.13c-.88.22-1.78.41-2.69.57l-.51.08c-.93.14-1.86.27-2.81.35h-.06c-1.1.09-2.23.14-3.37.14-.7,0-1.39,0-2.08-.06l-.67-.05c-.46,0-.91-.06-1.37-.11h-.18l-.93-.12-.7-.1c-.43-.06-.86-.14-1.29-.22l-.52-.1c-.59-.12-1.18-.25-1.77-.4l-.32-.09c-.45-.12-.89-.24-1.33-.38l-.09,0-1.23-.41-.59-.21c-.6-.22-1.19-.46-1.78-.71-1-.46-2-1-3-1.48l-.88-.51c-.69-.39-1.37-.8-2-1.24l-.9-.59c-.72-.5-1.42-1-2.1-1.57-.18-.15-.37-.28-.54-.43l-.15-.12c-.85-.71-1.66-1.46-2.44-2.24s-1.5-1.58-2.19-2.41l-.46-.54c-.13-.16-.27-.32-.4-.49-.36-.45-.69-.92-1-1.39l13.79,23.82h40.64a14.88,14.88,0,0,0,12.88-7.43L173.2,97.09Z"/><path class="cls-4" d="M130.56,120.56a28.73,28.73,0,0,0-2.5-1.75,17.47,17.47,0,0,1-1.7,1.61q-4.52,3.69-12.45,3.27a20.83,20.83,0,0,1-7.57-1.8,20,20,0,0,1-6.06-5.22A27.33,27.33,0,0,1,96,108.61a30,30,0,0,1-1.59-9.87V96.91h0V43.7c-1.64.68-3.27,1.36-4.87,2.17a65.47,65.47,0,0,0-13.26,8.9v11.4s-.07,0-.11,0V98.29a37,37,0,0,0,3,14.91,37.43,37.43,0,0,0,2.23,4.32,33.64,33.64,0,0,0,11.24,12.19,39.89,39.89,0,0,0,6.87,3.84,37.14,37.14,0,0,0,14.92,3,37.06,37.06,0,0,0,18.73-4.85,33.37,33.37,0,0,0,4.73-2.82A34,34,0,0,0,130.56,120.56Z"/><path class="cls-5" d="M144.81,86.87A36.14,36.14,0,0,0,138,80.54c-1.7-1.21-3.45-2.32-5.23-3.37l0,0-.69-.35-.46-.24c-.58-.33-1.15-.69-1.74-1-1.44-.79-2.52-1.37-3.4-1.82l-.12,0-1.46-.82c-2-1.07-3.74-2.11-5.26-3.1a23.05,23.05,0,0,1-3.78-3,10.32,10.32,0,0,1-2.23-3.22A8.45,8.45,0,0,1,113,59.8a11.84,11.84,0,0,1,3.34-7.43Q119.49,49,125.3,49a19.08,19.08,0,0,1,6.5,1.3,19.92,19.92,0,0,1,7.37,5.51l.12-.12a23.28,23.28,0,0,0,3.28-4.4,37.91,37.91,0,0,0,2.29-4.76,33.82,33.82,0,0,0-8.6-5.45,28.29,28.29,0,0,0-10.34-2.35A31.45,31.45,0,0,0,113,40.43a25.64,25.64,0,0,0-8.67,5.32,21.18,21.18,0,0,0-5,7.18,27.2,27.2,0,0,0-2,7.12q-1,9.8,4.36,16.24a30.89,30.89,0,0,0,4.11,4.34h0l0,0A15.89,15.89,0,0,0,107.72,82c.79.46,4.74,3.08,8.27,5.4,2.15,1.46,3.92,2.66,4.38,3,4.19,2.91,8.06,6.39,9.82,10.19a17.8,17.8,0,0,1,1.67,10.93,14,14,0,0,1-1.51,4.14,28.48,28.48,0,0,1,3,2.12,34.14,34.14,0,0,1,7.58,8.72,30,30,0,0,0,6.32-8.09,30.85,30.85,0,0,0,3.54-12.94A26.44,26.44,0,0,0,149.4,95,27.31,27.31,0,0,0,144.81,86.87Z"/></svg>