<svg id="Camada_1" data-name="Camada 1" xmlns="http://www.w3.org/2000/svg" viewBox="0 0 281.37 169.8"><defs><style>.cls-1{fill:#ddd;}.cls-2{fill:#005359;}.cls-3{fill:#00484c;}.cls-4{fill:#fff;}.cls-5{fill:#00a78d;}.cls-6{fill:#00967f;}</style></defs><path class="cls-1" d="M256.31,84.89l-9.82-17a6,6,0,0,0-5.15-3h-19l-9.57-16.57a5.94,5.94,0,0,0-5.15-3H162.72l-7.87-13.63a16.62,16.62,0,0,0-14.37-8.3H85.66a16.6,16.6,0,0,0-14.37,8.3L43.88,79.19a16.58,16.58,0,0,0,0,16.6l27.41,47.47a16.58,16.58,0,0,0,14.37,8.3h54.82a16.6,16.6,0,0,0,14.37-8.3l7.84-13.58h44.94a5.94,5.94,0,0,0,5.15-3L222,110.82h19.39a6,6,0,0,0,5.15-3l9.82-17A6,6,0,0,0,256.31,84.89Z"/><polygon class="cls-2" points="31.41 100.71 31.41 100.72 31.41 100.72 31.41 100.71"/><polygon class="cls-2" points="31.41 100.71 31.41 100.72 31.41 100.72 31.41 100.71"/><path class="cls-2" d="M75.81,137.16,51.42,94.92a14.88,14.88,0,0,1,0-14.86L75.81,37.82a14.85,14.85,0,0,1,12.87-7.43h48.77a14.88,14.88,0,0,1,12.88,7.43l24.38,42.24a14.83,14.83,0,0,1,0,14.86l-24.38,42.24a14.88,14.88,0,0,1-12.88,7.43H88.68A14.85,14.85,0,0,1,75.81,137.16Z"/><path class="cls-3" d="M144.12,46.84l-.68-.35.32.24.53.45-.06.13c-.26.66-.55,1.31-.85,2a1.19,1.19,0,0,1-.08.16c-.17.35-.35.69-.53,1s-.35.72-.55,1.07l-.22.39c-.2.35-.41.7-.63,1l0,0-.24.35c-.16.24-.32.48-.5.72l-.32.4c-.12.17-.24.33-.37.49l-.1.12c-.34.41-.69.81-1.07,1.21l-.88-.85-.37-.34-.56-.51-.38-.33-.54-.45-.38-.31-.53-.4-.37-.27-.52-.36-.36-.24-.53-.32-.34-.19-.57-.3-.29-.14c-.28-.13-.56-.25-.84-.35-.51-.19-1-.35-1.51-.5l-.45-.13c-.39-.1-.78-.2-1.16-.28l-.34-.08c-.48-.09-.95-.16-1.42-.21l-.3,0c-.44,0-.87-.07-1.29-.07s-1,0-1.56.07l-.5.06-.91.13-.53.11-.78.2-.5.16c-.26.09-.5.19-.75.29l-.44.2a8,8,0,0,0-.76.41l-.34.2a8.52,8.52,0,0,0-.91.67l-.07,0a10.2,10.2,0,0,0-.82.79c-.15.16-.29.33-.43.5l-.34.39c-.19.25-.38.5-.56.76a1.63,1.63,0,0,1-.11.17c-.14.22-.28.44-.41.66l-.09.17c-.15.26-.28.53-.41.8,0,0,0,.11-.07.17-.1.23-.19.46-.28.7l-.06.18a8.29,8.29,0,0,0-.25.85,1.74,1.74,0,0,0-.05.22c0,.22-.1.44-.13.67s0,.21,0,.32q-.06.41-.09.84c0,.34,0,.67,0,1v0a9.53,9.53,0,0,0,.1,1v0a6.59,6.59,0,0,0,.2.88,6.15,6.15,0,0,0,.32.91,8.17,8.17,0,0,0,.38.79l.06.11c.13.23.27.45.42.67l.21.3.35.45.26.3c.17.2.35.39.54.58l.32.3c.18.18.36.35.56.52l.36.31.58.47.54.4.41.3c.32.22.64.44,1,.66l.67.43c.49.31,1,.63,1.54,1l.17.1,1.85,1.06,1,.55.6.33.86.47.06,0,.15.07q.36.15.72.33l.11,0,.21.11.76.39.32.17,1.17.64.36.19c.47.26.92.54,1.37.8l.46.24c.18.08.46.23.68.35l1.93,1.22.36.24.53.34c.79.52,1.58,1,2.35,1.61l.05,0c.39.28.77.57,1.15.86l.38.31.64.52c.36.3.71.6,1.05.91s.4.36.59.55c.36.33.7.68,1,1,.16.16.33.32.48.49.49.52,1,1,1.41,1.6a24.54,24.54,0,0,1,1.6,2.19l.44.7c.34.56.67,1.14,1,1.73.08.15.18.29.25.45s.16.35.25.52.18.38.26.58.15.31.22.48c.15.34.29.68.42,1,0,.14.1.28.16.42l.09.25c.1.29.19.58.28.87s.2.72.29,1.09c0,.07,0,.15.05.22a.45.45,0,0,1,0,.11c.12.51.23,1,.31,1.57,0,.18,0,.36.07.54s0,.33.07.5.06.39.08.58c0,.49.08,1,.11,1.49a2.18,2.18,0,0,0,0,.25v.26l0,.84c0,.41,0,.83,0,1.25,0,.19,0,.38,0,.58s0,.17,0,.26c0,.42-.06.84-.1,1.26,0,0,0,0,0,.08-.08.79-.19,1.55-.33,2.32l0,.24-.09.44-.21,1c0,.13,0,.26-.08.39l-.12.42c-.06.24-.12.48-.19.72s-.07.25-.1.37-.11.34-.17.51-.13.41-.2.61l-.09.29-.24.62c-.08.19-.14.38-.22.56a1.34,1.34,0,0,1-.07.18c-.1.25-.21.48-.32.72s-.16.38-.25.56a.61.61,0,0,1-.05.12c-.2.42-.41.85-.64,1.26l-.09.18c-.35.63-.72,1.25-1.11,1.85-.09.15-.19.29-.29.44l-.35.54c-.19.27-.41.53-.61.8s-.35.48-.53.71c-.07.08-.12.17-.19.25-.39.48-.8,1-1.22,1.4a.08.08,0,0,1,0,0c-.59.64-1.2,1.25-1.85,1.84-.39-.64-.81-1.25-1.23-1.85-.15-.21-.28-.42-.43-.62-.53-.72-1.09-1.43-1.67-2.11-.12-.14-.26-.26-.38-.4-.48-.54-1-1.07-1.49-1.58-.22-.22-.47-.44-.71-.66-.53-.49-1.06-1-1.63-1.45s-.93-.73-1.41-1.07-1-.72-1.58-1.05c.16-.3.32-.61.46-.92a13.61,13.61,0,0,0,.58-1.47c0-.11.07-.22.11-.33a13.05,13.05,0,0,0,.36-1.4c.07-.37.12-.75.16-1.13s.06-.74.07-1.11c0-.11,0-.22,0-.33a14.24,14.24,0,0,0,0-1.46c0-.13,0-.26,0-.38,0-.37-.08-.73-.14-1.1,0-.18-.07-.36-.11-.54s-.13-.64-.21-1l-.15-.56c-.11-.37-.23-.75-.36-1.12-.06-.17-.11-.35-.18-.52-.18-.48-.37-.95-.59-1.43a2.44,2.44,0,0,0-.1-.24c-1.75-3.78-5.61-7.25-9.77-10.15l-4.36-3-.2-.13-.12-.08-1.17-.76-.08-.06-1.07-.7,0,0-2.37-1.56-.12-.08-.45-.3-.1-.06-.31-.2-.22-.15-.36-.23-.09-.06-.34-.22-.09-.06-.32-.21,0,0-.54-.34h0l-.19-.11c-.45-.28-.87-.57-1.28-.88a.78.78,0,0,1-.15-.1l-.47-.37a31.35,31.35,0,0,1-4.11-4.33,17.44,17.44,0,0,1-1.11-1.49L100,75l-.16-.23c-.1-.16-.18-.33-.27-.5-.26-.43-.51-.87-.73-1.32-.12-.26-.24-.52-.35-.78-.19-.44-.36-.89-.52-1.35-.06-.15-.13-.3-.18-.46s-.06-.26-.1-.38c-.12-.42-.22-.84-.32-1.26s-.14-.6-.19-.91c-.08-.46-.14-.92-.19-1.38,0-.3-.08-.6-.1-.91,0-.52,0-1.06-.06-1.6,0-.26,0-.52,0-.79,0-.82.06-1.65.15-2.51,0-.12,0-.23,0-.35.06-.39.13-.78.2-1.18l0-.13c.09-.46.2-.93.32-1.41a.88.88,0,0,0,0-.15c.11-.42.25-.84.38-1.27l.2-.62c.22-.65.47-1.31.74-2l.18-.4-5-8.71v54.7c0,.85,0,1.69.1,2.51,0,.06,0,.13,0,.19.06.75.15,1.49.26,2.21,0,.16,0,.3.08.46.09.53.2,1.05.32,1.57.07.3.13.6.21.89.18.67.37,1.35.59,2s.55,1.5.86,2.21c0,0,0,0,0,0,.24.55.5,1.07.77,1.6s.54,1,.83,1.49c.13.22.26.46.4.68a23.62,23.62,0,0,0,1.4,2c.34.44.7.84,1.06,1.23.12.14.25.29.38.42a18,18,0,0,0,1.34,1.28l.06,0c.48.41,1,.8,1.49,1.16l.07,0a17,17,0,0,0,1.62,1,15.47,15.47,0,0,0,1.47.58l.33.13c.54.18,1.09.34,1.66.48l.24.06c.58.14,1.17.25,1.78.34h0c.65.09,1.32.16,2,.2s1.06,0,1.57,0h.34c.5,0,1,0,1.48-.06s.81-.07,1.2-.12l.23,0c.45-.06.9-.14,1.33-.23l.3-.07c.37-.08.74-.18,1.09-.28l.18,0c.39-.12.77-.26,1.14-.41l.27-.11c.31-.13.62-.27.92-.42l.21-.11c.35-.19.69-.39,1-.6.14-.09.27-.2.4-.29s.48-.34.71-.52.6-.51.87-.77l.3-.3.56-.57h0l.4.25.37.27.67.46.22.16c.27.2.53.41.79.62l.34.29c.44.37.87.75,1.29,1.13.08.07.14.15.22.23.46.43.9.89,1.33,1.35.2.21.41.4.6.62l.14.15c.15.18.29.36.44.53.28.34.58.67.85,1l.36.48.36.49c.48.66,1,1.32,1.38,2-.65.45-1.31.89-2,1.3a1.18,1.18,0,0,1-.19.11l-.28.17c-.73.43-1.47.84-2.25,1.22s-1.73.92-2.62,1.34l-.79.35c-.32.14-.64.3-1,.43-.52.22-1.05.42-1.59.61s-1.24.42-1.88.6c-.28.09-.56.15-.85.23l-.5.13c-.88.22-1.78.41-2.69.57l-.51.08c-.93.14-1.86.27-2.81.35h-.06c-1.1.09-2.23.14-3.37.14-.7,0-1.39,0-2.08-.06l-.67-.05c-.46,0-.91-.06-1.37-.11h-.18l-.93-.12-.7-.1c-.43-.06-.86-.14-1.29-.22l-.52-.1c-.59-.12-1.18-.25-1.77-.4l-.32-.09c-.45-.12-.89-.24-1.33-.38l-.09,0-1.23-.41-.59-.21c-.6-.22-1.19-.46-1.78-.71-1-.46-2-1-3-1.48l-.88-.51c-.69-.39-1.37-.8-2-1.24l-.9-.59c-.72-.5-1.42-1-2.1-1.57-.18-.15-.37-.28-.54-.43l-.15-.12c-.85-.71-1.66-1.46-2.44-2.24s-1.5-1.58-2.19-2.41l-.46-.54c-.13-.16-.27-.32-.4-.49-.36-.45-.69-.92-1-1.39l13.79,23.82h40.64a14.88,14.88,0,0,0,12.88-7.43L173.2,97.09Z"/><path class="cls-4" d="M130.56,120.56a28.73,28.73,0,0,0-2.5-1.75,17.47,17.47,0,0,1-1.7,1.61q-4.52,3.69-12.45,3.27a20.83,20.83,0,0,1-7.57-1.8,20,20,0,0,1-6.06-5.22A27.33,27.33,0,0,1,96,108.61a30,30,0,0,1-1.59-9.87V96.91h0V43.7c-1.64.68-3.27,1.36-4.87,2.17a65.47,65.47,0,0,0-13.26,8.9v11.4s-.07,0-.11,0V98.29a37,37,0,0,0,3,14.91,37.43,37.43,0,0,0,2.23,4.32,33.64,33.64,0,0,0,11.24,12.19,39.89,39.89,0,0,0,6.87,3.84,37.14,37.14,0,0,0,14.92,3,37.06,37.06,0,0,0,18.73-4.85,33.37,33.37,0,0,0,4.73-2.82A34,34,0,0,0,130.56,120.56Z"/><path class="cls-5" d="M144.81,86.87A36.14,36.14,0,0,0,138,80.54c-1.7-1.21-3.45-2.32-5.23-3.37l0,0-.69-.35-.46-.24c-.58-.33-1.15-.69-1.74-1-1.44-.79-2.52-1.37-3.4-1.82l-.12,0-1.46-.82c-2-1.07-3.74-2.11-5.26-3.1a23.05,23.05,0,0,1-3.78-3,10.32,10.32,0,0,1-2.23-3.22A8.45,8.45,0,0,1,113,59.8a11.84,11.84,0,0,1,3.34-7.43Q119.49,49,125.3,49a19.08,19.08,0,0,1,6.5,1.3,19.92,19.92,0,0,1,7.37,5.51l.12-.12a23.28,23.28,0,0,0,3.28-4.4,37.91,37.91,0,0,0,2.29-4.76,33.82,33.82,0,0,0-8.6-5.45,28.29,28.29,0,0,0-10.34-2.35A31.45,31.45,0,0,0,113,40.43a25.64,25.64,0,0,0-8.67,5.32,21.18,21.18,0,0,0-5,7.18,27.2,27.2,0,0,0-2,7.12q-1,9.8,4.36,16.24a30.89,30.89,0,0,0,4.11,4.34h0l0,0A15.89,15.89,0,0,0,107.72,82c.79.46,4.74,3.08,8.27,5.4,2.15,1.46,3.92,2.66,4.38,3,4.19,2.91,8.06,6.39,9.82,10.19a17.8,17.8,0,0,1,1.67,10.93,14,14,0,0,1-1.51,4.14,28.48,28.48,0,0,1,3,2.12,34.14,34.14,0,0,1,7.58,8.72,30,30,0,0,0,6.32-8.09,30.85,30.85,0,0,0,3.54-12.94A26.44,26.44,0,0,0,149.4,95,27.31,27.31,0,0,0,144.81,86.87Z"/><path class="cls-5" d="M186.36,122l-7.49-13a4.6,4.6,0,0,1,0-4.57l7.49-13a4.57,4.57,0,0,1,4-2.29h15a4.55,4.55,0,0,1,3.95,2.29l7.49,13a4.55,4.55,0,0,1,0,4.57l-7.49,13a4.55,4.55,0,0,1-3.95,2.29h-15A4.57,4.57,0,0,1,186.36,122Z"/><path class="cls-6" d="M203.4,96.33a5.82,5.82,0,0,0-.56-.81,5.67,5.67,0,0,1,.46,2.26,5.78,5.78,0,0,1-10.93,2.62l-.05.08,2.34,4.12c-1.81,1-5.51,4.17-6.68,6.19l.43,4.8-.38.66,4.63,8H205.3a4.55,4.55,0,0,0,3.95-2.29l4.48-7.75Z"/><circle class="cls-4" cx="197.51" cy="97.78" r="5.79"/><path class="cls-4" d="M199.64,118.35a15.1,15.1,0,0,1,1-4.93L199,110.13l.7,0a5.47,5.47,0,0,1,2.22.36,5.1,5.1,0,0,1,1.57,1.16,4.73,4.73,0,0,1,.49-.13,3.49,3.49,0,0,1,1,0,3,3,0,0,1,.87,0c.19,0,.35.09.48.13a6.12,6.12,0,0,1,1-.86,8.19,8.19,0,0,0-6.18-5.94,6.34,6.34,0,0,1,1.94,3.51,1.07,1.07,0,0,1,.85,1,1.09,1.09,0,1,1-2.18,0,1.06,1.06,0,0,1,.57-.94,4.79,4.79,0,0,0-3.2-3.81H196a3.51,3.51,0,0,0-1.47.91,7.26,7.26,0,0,0-1.52,4.68,3.33,3.33,0,0,1,.26,6,.39.39,0,0,1-.18,0,.38.38,0,0,1-.18-.72A2.59,2.59,0,0,0,194,112a2.57,2.57,0,1,0-4.53,2.41.38.38,0,0,1-.68.36,3.31,3.31,0,0,1,3.48-4.84,7.76,7.76,0,0,1,1.73-5c.1-.1.21-.18.32-.28a8.21,8.21,0,0,0-5.82,12.2l1,1.66a9.22,9.22,0,0,0,.68,1h9.71C199.74,119.16,199.69,118.75,199.64,118.35Z"/><path class="cls-4" d="M209.28,118.25c-.17,1.49-.3,2.57-2.33,3a10,10,0,0,1-1.85.21h-.34a9.69,9.69,0,0,1-1.85-.21c-2-.41-2.15-1.49-2.33-3a14.78,14.78,0,0,1,1-4.64l.07-.19-1.1-2.31a3.93,3.93,0,0,1,1.05.26,4.36,4.36,0,0,1,1.44,1.14l.24.29.33-.16a3.81,3.81,0,0,1,.62-.18,3,3,0,0,1,.77,0,2.53,2.53,0,0,1,.67,0,3.44,3.44,0,0,1,.62.18l.34.16.23-.29a4.49,4.49,0,0,1,1.44-1.14,4,4,0,0,1,1.05-.26l-1.09,2.31.06.19A14.53,14.53,0,0,1,209.28,118.25Zm-2.21,1.56a1.67,1.67,0,0,1-1.31.2,1,1,0,0,1-.45-.64,2.44,2.44,0,0,0,.06-.26s0,0,0-.08c.92-.12,1.61-.62,1.61-1.22s-.91-1.26-2-1.26-2,.56-2,1.26.69,1.1,1.61,1.22c0,0,0,0,0,.08a2.44,2.44,0,0,0,.06.26.92.92,0,0,1-.45.64,1.65,1.65,0,0,1-1.31-.2.36.36,0,0,0-.51.13.37.37,0,0,0,.13.52,2.91,2.91,0,0,0,1.33.38,1.54,1.54,0,0,0,.69-.15,1.37,1.37,0,0,0,.5-.43,1.37,1.37,0,0,0,.5.43,1.57,1.57,0,0,0,.69.15,2.91,2.91,0,0,0,1.33-.38.39.39,0,0,0,.14-.52A.38.38,0,0,0,207.07,119.81Zm-1-4a.61.61,0,1,0-.6-.61A.61.61,0,0,0,206.06,115.83Zm-2.26,0a.61.61,0,1,0-.6-.61A.6.6,0,0,0,203.8,115.83Z"/><path class="cls-5" d="M220.07,103.12l-7.49-13a4.53,4.53,0,0,1,0-4.56l7.49-13a4.57,4.57,0,0,1,4-2.28h15a4.56,4.56,0,0,1,4,2.28l7.49,13a4.53,4.53,0,0,1,0,4.56l-7.49,13a4.56,4.56,0,0,1-4,2.28H224A4.57,4.57,0,0,1,220.07,103.12Z"/><path class="cls-6" d="M237.11,77.47a7.75,7.75,0,0,0-.56-.81,5.89,5.89,0,0,1,.46,2.26,5.78,5.78,0,0,1-10.93,2.63l-.05.08,2.34,4.11c-1.82,1-5.51,4.17-6.68,6.19l.43,4.8-.38.66,4.62,8H239a4.56,4.56,0,0,0,4-2.28l4.48-7.76Z"/><path class="cls-4" d="M230.94,100.71h-7.12a11.61,11.61,0,0,1-.67-1l-1-1.67a8.19,8.19,0,0,1,5.11-12l1.23,2.81a.26.26,0,0,0,.18.16.24.24,0,0,0,.23,0l2-1.48Zm-4.36-7.92c0,.19,0,.38.09.57a4.41,4.41,0,0,0,.16.55.38.38,0,0,0,.52.23.56.56,0,0,0,.43-.48,5,5,0,0,0,.05-.67,1.64,1.64,0,0,1,.38-1.08,1.53,1.53,0,0,0,.34-1,1.16,1.16,0,0,0-1.19-1.22,2,2,0,0,0-1,.18h0l-.09,0a2,2,0,0,0-1.21-.12,1.08,1.08,0,0,0-.81.81,1.58,1.58,0,0,0,.31,1.42,1.58,1.58,0,0,1,.36,1c0,.21,0,.42,0,.63a.61.61,0,0,0,.72.59.53.53,0,0,0,.29-.36,3.06,3.06,0,0,0,.1-.41c0-.19.07-.38.1-.57a.33.33,0,0,1,.19-.27C226.53,92.63,226.54,92.63,226.58,92.79Zm.08-2.65a1.08,1.08,0,0,1,1.28.2,1,1,0,0,1,.17,1,1.21,1.21,0,0,1-.23.47,1.66,1.66,0,0,0-.4,1.1c0,.16,0,.32,0,.48a.48.48,0,0,1-.14.34.77.77,0,0,1-.19.08.56.56,0,0,1-.16-.41c0-.16,0-.33-.06-.5a1.26,1.26,0,0,0-.1-.33.47.47,0,0,0-.45-.31.49.49,0,0,0-.44.31,2.2,2.2,0,0,0-.16.76,1.64,1.64,0,0,1-.05.32.83.83,0,0,1-.09.16.33.33,0,0,1-.31-.31c0-.13,0-.27,0-.4a5.67,5.67,0,0,0-.05-.58,1.27,1.27,0,0,0-.27-.63,1.28,1.28,0,0,1-.29-1.27.8.8,0,0,1,.76-.58,1.57,1.57,0,0,1,.8.18c.16.08.31.17.47.24l.28.1,0,0Z"/><path class="cls-4" d="M228.89,88.28l2.16-1.6s0,0,0,0,0,0,0,0h.25v0h0l2.15,1.6,1.05-2.4a8.37,8.37,0,0,0-1.44-.14h-3.85a8.59,8.59,0,0,0-1.45.14Z"/><path class="cls-4" d="M240.24,98l-1,1.67c-.21.35-.44.68-.67,1h-7.12V87.44l2,1.48a.3.3,0,0,0,.24,0,.26.26,0,0,0,.18-.16L235.13,86A8.19,8.19,0,0,1,240.24,98ZM237.92,90a1.47,1.47,0,0,0-2.9-.06c-.14.83.28,1.43,1.25,1.78a8.06,8.06,0,0,0-.24,2.81,1.55,1.55,0,0,0,.88,0,8.06,8.06,0,0,0-.26-2.8C237.59,91.35,238,90.74,237.92,90Zm-2.43.22a1,1,0,1,1,2,0,1,1,0,0,1-2,0Zm-2.16,1.11a.91.91,0,0,1,.21.79c0,.12,0,.24,0,.36a9.29,9.29,0,0,0-.08,2,.25.25,0,0,0,.05.11,3.25,3.25,0,0,0,.88,0,9.26,9.26,0,0,0-.23-2.84c-.31-.49-.74-.88-1-1.4l.26-.23,1.23-.93c.07,0,.13-.11,0-.19a14.34,14.34,0,0,0-1.93,1.26l0,.21Z"/><path class="cls-4" d="M237,79.72c0-.23,0-.46.05-.69,0,0,0-.07,0-.11s0-.06,0-.09a7,7,0,0,0-.09-.92c0-.12,0-.24-.08-.36a6.6,6.6,0,0,0-.2-.63,3.62,3.62,0,0,0-.13-.35,6.72,6.72,0,0,0-.4-.75h0a5.66,5.66,0,0,0-1.17-1.32h0c-.07-.06-.15-.1-.23-.16s-.29-.22-.45-.32l-.45-.25-.49-.23a5.18,5.18,0,0,0-.56-.17,3.47,3.47,0,0,0-.46-.13,7.89,7.89,0,0,0-.85-.09l-.25,0-.25,0a8,8,0,0,0-.84.09,4.12,4.12,0,0,0-.47.13,5.18,5.18,0,0,0-.56.17l-.48.23c-.15.08-.31.16-.45.25a5.15,5.15,0,0,0-.45.32c-.08.06-.16.1-.23.16h0a5.7,5.7,0,0,0-1.18,1.32h0a5.4,5.4,0,0,0-.4.75c-.05.11-.09.23-.14.35a6.55,6.55,0,0,0-.19.63c0,.12-.06.24-.08.36a5.62,5.62,0,0,0-.09.92s0,.06,0,.09,0,.08,0,.11a5.34,5.34,0,0,0,0,.69h0a5.42,5.42,0,0,0,.17.8h0c0,.09.07.16.09.24a6.29,6.29,0,0,0,.26.65l.19.35a5.48,5.48,0,0,0,.38.6l.06.1h0a5.65,5.65,0,0,0,.65.73h0c.06.06.14.1.2.15a5.39,5.39,0,0,0,.6.47l.28.14a4.37,4.37,0,0,0,.68.35c.11,0,.24.08.36.12s.45.15.69.2.34,0,.51,0,.4.06.6.06.4,0,.61-.06.35,0,.51,0a6.75,6.75,0,0,0,.68-.2c.13,0,.25-.07.37-.12a5.39,5.39,0,0,0,.68-.34c.09-.06.19-.1.27-.15a5.5,5.5,0,0,0,.61-.47l.2-.15h0a5.72,5.72,0,0,0,.66-.73h0l.06-.1c.14-.19.26-.4.38-.6l.19-.35a4.6,4.6,0,0,0,.25-.65c0-.08.07-.15.1-.24h0a7.1,7.1,0,0,0,.17-.8Z"/><path class="cls-5" d="M186.36,83.57l-7.49-13a4.6,4.6,0,0,1,0-4.57l7.49-13a4.57,4.57,0,0,1,4-2.29h15a4.55,4.55,0,0,1,3.95,2.29l7.49,13a4.55,4.55,0,0,1,0,4.57l-7.49,13a4.56,4.56,0,0,1-3.95,2.28h-15A4.59,4.59,0,0,1,186.36,83.57Z"/><path class="cls-6" d="M203.4,57.93a5.82,5.82,0,0,0-.56-.81,5.64,5.64,0,0,1,.46,2.26A5.78,5.78,0,0,1,192.37,62l-.05.08,2.34,4.12c-1.81,1-5.51,4.16-6.68,6.19l.43,4.8-.38.65,4.63,8H205.3a4.56,4.56,0,0,0,3.95-2.28l4.48-7.75Z"/><path class="cls-4" d="M201.17,66.4a6.34,6.34,0,0,1,1.94,3.51,1.06,1.06,0,0,1,.85,1,1.09,1.09,0,1,1-1.61-1,4.79,4.79,0,0,0-3.2-3.8h-1l1.15,7.46-1.78,2.91-1.79-2.91,1.16-7.46H196a3.51,3.51,0,0,0-1.47.91A7.26,7.26,0,0,0,193,71.79a3.33,3.33,0,0,1,1.64,1.49,3.34,3.34,0,0,1-1.38,4.51.39.39,0,0,1-.18,0,.38.38,0,0,1-.18-.72,2.57,2.57,0,0,0,1.24-1.52,2.54,2.54,0,0,0-.18-2,2.57,2.57,0,1,0-4.53,2.41.38.38,0,0,1-.68.36,3.33,3.33,0,0,1,1.38-4.51,3.23,3.23,0,0,1,2.1-.33,7.76,7.76,0,0,1,1.73-5c.1-.11.21-.18.32-.28a8.2,8.2,0,0,0-5.82,12.19l1,1.67a9.22,9.22,0,0,0,.68,1H204.9a9.16,9.16,0,0,0,.67-1h0l1-1.67A8.19,8.19,0,0,0,201.17,66.4Z"/><circle class="cls-4" cx="197.51" cy="59.38" r="5.79"/></svg>