<svg width="121" height="63" viewBox="0 0 121 63" fill="none" xmlns="http://www.w3.org/2000/svg">
<path d="M84.1342 19.0099L81.0755 13.7476C80.9115 13.4644 80.6742 13.2298 80.3881 13.0681C80.1021 12.9063 79.7778 12.8233 79.4486 12.8275H73.532L70.5494 7.70499C70.3853 7.42182 70.148 7.18725 69.8619 7.0255C69.5759 6.86375 69.2516 6.78068 68.9224 6.78488H54.958L52.5068 2.56637C52.0533 1.78926 51.4028 1.14346 50.6197 0.693184C49.8367 0.242907 48.9486 0.0038397 48.0436 -0.000244141H30.9338C30.026 0.00102084 29.1345 0.238751 28.3484 0.689169C27.5623 1.13959 26.9091 1.7869 26.4543 2.56637L17.9129 17.2504C17.4573 18.0302 17.2173 18.9156 17.2173 19.817C17.2173 20.7184 17.4573 21.6038 17.9129 22.3837L26.4543 37.0677C26.9078 37.8492 27.5603 38.4987 28.3465 38.951C29.1327 39.4034 30.0249 39.6427 30.9338 39.6451H48.0436C48.9513 39.6438 49.8429 39.4061 50.629 38.9557C51.4151 38.5053 52.0682 37.858 52.523 37.0785L54.9688 32.8761H68.9767C69.3058 32.8803 69.6302 32.7972 69.9162 32.6355C70.2022 32.4737 70.4395 32.2392 70.6036 31.956L73.4615 27.0434H79.4974C79.8266 27.0476 80.1509 26.9645 80.437 26.8028C80.723 26.641 80.9603 26.4064 81.1244 26.1233L84.183 20.8609C84.3404 20.5756 84.4189 20.254 84.4103 19.9289C84.4017 19.6037 84.3064 19.2867 84.1342 19.0099Z" fill="#DDDDDD"/>
<path d="M92.4315 47.4203V50.213C92.434 50.7576 92.3647 51.3003 92.2254 51.8272C92.103 52.2967 91.9052 52.7437 91.6397 53.1508C91.3997 53.509 91.083 53.8103 90.7123 54.0333C90.3431 54.248 89.9228 54.3612 89.4949 54.3612C89.0669 54.3612 88.6466 54.248 88.2774 54.0333C87.9116 53.8097 87.6004 53.5083 87.3663 53.1508C87.0964 52.746 86.8983 52.2983 86.7806 51.8272C86.6368 51.3011 86.5656 50.758 86.5691 50.213V44.4233C86.0199 44.4168 85.4724 44.4856 84.9422 44.6277C84.4725 44.7594 84.018 44.9397 83.5864 45.1658V50.2076C83.5797 51.0278 83.7287 51.8419 84.0257 52.6074C84.304 53.3277 84.7181 53.9888 85.2459 54.5552C85.7887 55.1311 86.445 55.5903 87.174 55.9042C87.903 56.2181 88.6893 56.38 89.484 56.38C90.2787 56.38 91.065 56.2181 91.794 55.9042C92.523 55.5903 93.1793 55.1311 93.7221 54.5552C94.2499 53.9888 94.6641 53.3277 94.9423 52.6074C95.2393 51.8419 95.3883 51.0278 95.3816 50.2076V46.6401C94.7157 46.989 93.9981 47.2306 93.2558 47.3558C92.9827 47.3952 92.7074 47.4168 92.4315 47.4203Z" fill="#005359"/>
<path d="M105.816 39.1663V45.0259C105.547 44.8644 105.268 44.7206 104.98 44.5955C104.217 44.276 103.398 44.1114 102.57 44.1114C101.742 44.1114 100.922 44.276 100.159 44.5955C99.4268 44.9078 98.7606 45.3552 98.1961 45.9138C97.8666 46.2386 97.5755 46.5996 97.3284 46.9899C97.1459 47.271 96.9864 47.5661 96.8512 47.8724C96.529 48.6321 96.363 49.448 96.363 50.2722C96.363 51.0964 96.529 51.9123 96.8512 52.672C97.4863 54.1419 98.6669 55.3132 100.148 55.9435C100.912 56.2704 101.736 56.4353 102.567 56.4277C103.402 56.4331 104.229 56.2682 104.997 55.9435C106.481 55.3137 107.665 54.1426 108.305 52.672C108.633 51.9142 108.799 51.097 108.793 50.2722V38.4345C108.244 38.428 107.697 38.4931 107.166 38.6282C106.697 38.7559 106.243 38.9364 105.816 39.1663ZM105.816 49.9278V50.3152C105.822 50.8649 105.73 51.4114 105.544 51.9294C105.379 52.3967 105.139 52.8346 104.834 53.2262C104.695 53.4077 104.537 53.5736 104.362 53.7212C104.196 53.8628 104.014 53.9855 103.82 54.0871C103.435 54.3 103.002 54.4129 102.562 54.4153C102.117 54.4164 101.68 54.3033 101.293 54.0871C100.896 53.8608 100.547 53.5591 100.268 53.1993C100.119 53.0129 99.9881 52.8129 99.8772 52.602C99.7591 52.3779 99.6611 52.1438 99.5844 51.9025C99.2386 50.8537 99.2386 49.7229 99.5844 48.6741C99.7381 48.2018 99.9729 47.7594 100.279 47.3666C100.557 47.007 100.905 46.7068 101.304 46.4841C101.683 46.2676 102.113 46.1544 102.551 46.1559C103.077 46.1538 103.591 46.3095 104.026 46.6025C104.484 46.9127 104.865 47.3232 105.138 47.8024C105.305 48.0817 105.443 48.3774 105.55 48.6848C105.693 49.0841 105.782 49.5001 105.816 49.9224V49.9278Z" fill="#005359"/>
<path d="M114.308 52.0209C114.616 52.0625 114.925 52.0859 115.235 52.0909H115.29C115.604 52.0909 115.913 52.0909 116.217 52.0909C117.028 52.0537 117.827 51.8902 118.587 51.6066C119.237 51.3702 119.82 50.9806 120.284 50.4713C120.727 49.9698 120.979 49.3299 120.995 48.6633C121.028 48.07 120.905 47.4784 120.637 46.9469C120.372 46.3983 120.004 45.9052 119.552 45.4941C119.077 45.0621 118.525 44.721 117.925 44.4879C117.289 44.2355 116.609 44.1076 115.924 44.1112C115.089 44.1054 114.262 44.2703 113.495 44.5955C112.001 45.2187 110.812 46.3966 110.181 47.8778C109.854 48.6396 109.688 49.4601 109.693 50.2883C109.687 51.1132 109.853 51.9304 110.181 52.6881C110.821 54.1607 112.007 55.3324 113.495 55.9596C114.262 56.2849 115.089 56.4497 115.924 56.4439C116.729 56.448 117.525 56.2905 118.267 55.9812C118.975 55.6774 119.62 55.2469 120.17 54.7113C120.512 54.3293 119.964 53.0971 119.352 52.6612C118.918 53.1261 118.43 53.5379 117.898 53.888C117.615 54.06 117.311 54.1938 116.993 54.2862C116.642 54.3938 116.273 54.4322 115.908 54.3992C115.463 54.4007 115.025 54.2915 114.633 54.0818C114.236 53.8671 113.887 53.5741 113.609 53.2208C113.307 52.8394 113.072 52.41 112.914 51.951L112.871 51.8111C113.267 51.8756 113.69 51.9402 114.086 51.994L114.308 52.0209ZM113.505 47.3989C113.768 47.0491 114.105 46.7608 114.492 46.5541C114.889 46.3488 115.331 46.2452 115.778 46.2528C116.259 46.2278 116.74 46.3144 117.182 46.5057C117.476 46.6426 117.734 46.8452 117.936 47.0975C118.093 47.2924 118.203 47.5208 118.256 47.7648C118.286 47.9121 118.306 48.0613 118.316 48.2114C118.295 48.3948 118.253 48.5754 118.191 48.7494C118.069 49.0643 117.846 49.3308 117.557 49.5081C117.089 49.8055 116.558 49.9898 116.006 50.0462C115.604 50.0879 115.198 50.0879 114.796 50.0462C114.07 49.9437 113.364 49.7314 112.703 49.4166C112.738 49.1764 112.791 48.9391 112.86 48.7064C112.994 48.232 113.212 47.7854 113.505 47.3881V47.3989Z" fill="#005359"/>
<path d="M97.8002 43.6001C97.486 43.663 97.1663 43.6954 96.8457 43.6969C96.2159 43.701 95.592 43.5764 95.0127 43.3311C94.8339 43.5687 94.6283 43.7853 94.3999 43.9767C94.024 44.2895 93.5941 44.5319 93.1309 44.6924C92.905 44.7671 92.6726 44.8211 92.4368 44.8538V46.2905C92.7147 46.2836 92.9919 46.2584 93.2665 46.2151C94.0803 46.0772 94.865 45.8044 95.5876 45.408C96.4202 44.9301 97.1678 44.3193 97.8002 43.6001Z" fill="#005359"/>
<path d="M97.8002 43.6001C97.486 43.663 97.1663 43.6954 96.8457 43.6969C96.2159 43.701 95.592 43.5764 95.0127 43.3311C94.8339 43.5687 94.6283 43.7853 94.3999 43.9767C94.024 44.2895 93.5941 44.5319 93.1309 44.6924C92.905 44.7671 92.6726 44.8211 92.4368 44.8538V46.2905C92.7147 46.2836 92.9919 46.2584 93.2665 46.2151C94.0803 46.0772 94.865 45.8044 95.5876 45.408C96.4202 44.9301 97.1678 44.3193 97.8002 43.6001Z" fill="#005359"/>
<path d="M65.9395 53.4792C65.7916 53.3637 65.6377 53.2559 65.4785 53.1563C65.153 53.5122 64.7425 53.7811 64.2847 53.9381C63.8269 54.0951 63.3367 54.1353 62.8592 54.0549C62.3754 54.0347 61.9002 53.9214 61.46 53.7213C61.0239 53.4836 60.6418 53.1594 60.3374 52.7689C59.9943 52.3216 59.7268 51.8218 59.5456 51.2892C59.3472 50.7051 59.2482 50.0923 59.2528 49.4759V49.1423V39.3762C58.9545 39.5054 58.6508 39.6291 58.3526 39.7744C57.4744 40.215 56.6516 40.7568 55.9013 41.3886V43.4817V49.3683C55.8905 50.3067 56.0752 51.2373 56.4436 52.1017C56.5684 52.3815 56.7094 52.6398 56.8558 52.898C57.1472 53.4237 57.5124 53.9056 57.9404 54.3293C58.2442 54.6301 58.5786 54.8988 58.9383 55.131C59.3376 55.4087 59.7646 55.6449 60.2127 55.8359C61.0839 56.2015 62.0218 56.3847 62.9676 56.374C63.7705 56.3798 64.5685 56.2488 65.3266 55.9866C65.7025 55.8499 66.0654 55.6806 66.4113 55.4808C66.7183 55.3282 67.0105 55.1481 67.2844 54.9427C66.9174 54.387 66.4634 53.8929 65.9395 53.4792Z" fill="#00A78D"/>
<path d="M10.0386 53.4792C9.93087 53.3959 9.81863 53.3187 9.70233 53.2478C9.35242 53.5358 8.95151 53.7565 8.5201 53.8988C8.05025 54.0551 7.55673 54.1298 7.06129 54.1195C6.56011 54.1201 6.0665 53.9981 5.62418 53.7643C5.16419 53.5183 4.76142 53.1792 4.44195 52.7689C4.09504 52.3231 3.8256 51.823 3.64476 51.2892C3.44629 50.7051 3.34731 50.0923 3.35191 49.4759V49.1423V39.3762C3.05364 39.5054 2.74995 39.6291 2.45168 39.7744C1.57351 40.215 0.750757 40.7568 0.000446876 41.3886V43.4817V49.3683C-0.0103406 50.3067 0.174283 51.2373 0.542755 52.1017C1.26599 53.7808 2.61409 55.1183 4.30637 55.8359C5.17947 56.2015 6.11912 56.3847 7.06672 56.374C7.86781 56.3793 8.66388 56.2483 9.42033 55.9866C10.1262 55.733 10.787 55.3698 11.3781 54.9104C11.0104 54.3663 10.5583 53.8832 10.0386 53.4792Z" fill="#00A78D"/>
<path d="M12.0452 45.3919V56.1534H12.6363C13.4802 56.069 14.3007 55.8281 15.055 55.4432V44.6817C14.5055 44.6763 13.9579 44.747 13.428 44.8915C12.9503 45.0087 12.4867 45.1764 12.0452 45.3919Z" fill="#00A78D"/>
<path d="M13.5472 39.5699C13.3229 39.5629 13.0996 39.6021 12.8914 39.6849C12.6831 39.7677 12.4943 39.8924 12.3369 40.0511C12.1796 40.2098 12.057 40.399 11.9769 40.607C11.8968 40.8149 11.8609 41.0371 11.8714 41.2594C11.8671 41.4813 11.9076 41.7017 11.9905 41.9078C12.0734 42.1139 12.197 42.3014 12.3541 42.4593C12.5076 42.619 12.693 42.745 12.8984 42.8293C13.1039 42.9137 13.3249 42.9544 13.5472 42.949C13.7714 42.9511 13.9938 42.9089 14.2014 42.8248C14.409 42.7406 14.5976 42.6162 14.7561 42.4589C14.9147 42.3016 15.04 42.1145 15.1248 41.9085C15.2096 41.7026 15.2522 41.4819 15.25 41.2594C15.2558 41.0388 15.2149 40.8195 15.1299 40.6156C15.0449 40.4117 14.9177 40.2277 14.7565 40.0757C14.6 39.9145 14.4121 39.7865 14.2042 39.6995C13.9963 39.6126 13.7728 39.5685 13.5472 39.5699Z" fill="#00A78D"/>
<path d="M19.99 52.9032C19.6809 52.5049 19.4425 52.0572 19.285 51.5795C19.1135 51.0584 19.0274 50.5134 19.0301 49.9653V46.8821C20.1151 46.8 21.2058 46.8325 22.2839 46.979V44.7298C22.2839 44.7298 20.8197 44.5738 19.0301 44.5038V39.9356C18.4806 39.9302 17.933 40.0009 17.4032 40.1454C16.9326 40.2908 16.4783 40.4838 16.0474 40.7212V49.9922C16.0395 50.8247 16.2077 51.6495 16.5409 52.4135C17.1799 53.884 18.3615 55.0563 19.8435 55.6904C20.6187 56.017 21.4527 56.1836 22.2948 56.1801V54.1246C21.8461 54.1264 21.4048 54.0114 21.0149 53.791C20.6172 53.5655 20.2688 53.2637 19.99 52.9032Z" fill="#00A78D"/>
<path d="M32.9944 45.9405C32.4196 45.3752 31.7426 44.9224 30.9987 44.6061C30.2303 44.2829 29.4037 44.1181 28.5692 44.1218C27.7308 44.1148 26.9 44.2797 26.1288 44.6061C25.389 44.924 24.7158 45.3766 24.144 45.9405C23.5724 46.5094 23.1159 47.1815 22.799 47.9206C22.4715 48.6826 22.3036 49.5028 22.3055 50.3312C22.3004 51.1634 22.4684 51.9877 22.799 52.7525C23.4412 54.2365 24.6332 55.4191 26.1288 56.0563C26.9008 56.381 27.7307 56.5483 28.5692 56.5483C29.4077 56.5483 30.2376 56.381 31.0096 56.0563C32.5109 55.4237 33.7078 54.24 34.3502 52.7525C34.6808 51.9877 34.8488 51.1634 34.8437 50.3312C34.8457 49.5028 34.6778 48.6826 34.3502 47.9206C34.0281 47.1817 33.5681 46.5098 32.9944 45.9405ZM31.5898 51.9562C31.4357 52.4386 31.1971 52.8904 30.8848 53.2906C30.6005 53.6527 30.2443 53.9531 29.8382 54.173C29.4512 54.3909 29.0141 54.5058 28.5692 54.5066C28.1204 54.5092 27.6789 54.3941 27.2893 54.173C26.8866 53.9481 26.5341 53.6442 26.2535 53.2798C25.9413 52.8796 25.7026 52.4279 25.5485 51.9454C25.3742 51.4249 25.2863 50.8797 25.2882 50.3312C25.2847 49.7825 25.3727 49.2371 25.5485 48.7169C25.7085 48.2369 25.9466 47.7861 26.2535 47.3825C26.5322 47.0135 26.8849 46.7057 27.2893 46.4786C27.6793 46.2591 28.1209 46.1459 28.5692 46.1503C29.0136 46.1493 29.4508 46.2624 29.8382 46.4786C30.2469 46.704 30.6035 47.0119 30.8848 47.3825C31.1917 47.7861 31.4299 48.2369 31.5898 48.7169C31.7657 49.2371 31.8536 49.7825 31.8501 50.3312C31.8533 50.8833 31.7653 51.4322 31.5898 51.9562Z" fill="#00A78D"/>
<path d="M55.0556 47.9209C54.7407 47.182 54.286 46.5098 53.7161 45.9407C53.1393 45.3754 52.4605 44.9227 51.715 44.6063C50.9422 44.2846 50.1126 44.1189 49.2746 44.1189C48.4366 44.1189 47.6069 44.2846 46.8342 44.6063C45.335 45.2437 44.142 46.4313 43.5044 47.9209C43.1744 48.6821 43.0063 49.5028 43.0109 50.3314C43.0042 51.1638 43.1723 51.9884 43.5044 52.7528C43.8241 53.4872 44.2804 54.1553 44.8494 54.7221C45.419 55.2872 46.0929 55.7384 46.8342 56.0512C47.6042 56.3818 48.4356 56.5486 49.2746 56.5408C49.7341 56.5427 50.1925 56.494 50.6412 56.3955C51.07 56.2996 51.4879 56.1608 51.8885 55.9812V55.9382C52.1728 55.8108 52.4466 55.6614 52.7074 55.4916C53.0958 55.6855 53.5028 55.8405 53.9222 55.9543C54.4527 56.0946 55.0001 56.1616 55.5491 56.1534V50.3314C55.5537 49.5028 55.3857 48.6821 55.0556 47.9209ZM51.6445 53.237L51.5252 53.3769C51.4085 53.5186 51.2817 53.6517 51.1456 53.7751H51.113C50.9468 53.9217 50.765 54.0498 50.5707 54.1571C50.4806 54.2095 50.3862 54.2545 50.2887 54.2917H50.2345C50.153 54.3234 50.0697 54.3503 49.985 54.3724C49.9405 54.3857 49.8952 54.3964 49.8494 54.4046L49.6542 54.4423C49.5387 54.4505 49.4227 54.4505 49.3071 54.4423C48.8696 54.4623 48.4343 54.3696 48.0436 54.1733C47.6348 53.9503 47.2767 53.6463 46.9915 53.2801C46.6829 52.8783 46.4463 52.427 46.2919 51.9457C46.1159 51.4255 46.0279 50.8801 46.0316 50.3314C46.0307 49.836 46.1019 49.3431 46.2431 48.8679C46.2431 48.8141 46.2431 48.7549 46.2919 48.7011C46.3407 48.6473 46.2919 48.6419 46.3299 48.6096C46.4831 48.1683 46.7065 47.7541 46.9915 47.3828C47.2767 47.0166 47.6348 46.7126 48.0436 46.4896C48.4305 46.2717 48.8676 46.1568 49.3125 46.156C49.8129 46.1527 50.3038 46.2908 50.728 46.5542C50.8757 46.6419 51.0139 46.7447 51.1401 46.8609C51.3443 47.0537 51.5262 47.2684 51.6824 47.5012C51.781 47.6357 51.8715 47.7758 51.9536 47.9209L52.0078 48.0177C52.1185 48.2379 52.2162 48.4643 52.3007 48.6957C52.4084 49.0302 52.4829 49.3745 52.523 49.7234C52.523 49.7826 52.523 49.8418 52.523 49.901C52.5256 49.9134 52.5256 49.9262 52.523 49.9386C52.523 50.0624 52.523 50.1915 52.523 50.3207C52.5256 50.8688 52.4396 51.4138 52.2681 51.9349C52.1322 52.3994 51.9216 52.8391 51.6445 53.237Z" fill="#00A78D"/>
<path d="M82.1274 47.8506C81.4967 46.3714 80.3101 45.1941 78.8193 44.5683C78.0555 44.2487 77.235 44.084 76.406 44.084C75.5771 44.084 74.7565 44.2487 73.9928 44.5683C73.2603 44.8807 72.5941 45.328 72.0296 45.8866C71.4617 46.45 71.0088 47.1169 70.6955 47.8506C70.3693 48.6053 70.2032 49.4185 70.2075 50.2396C70.2009 51.0645 70.3671 51.8817 70.6955 52.6394C71.3354 54.1063 72.5144 55.2761 73.9928 55.9109C74.7565 56.2368 75.5801 56.4017 76.4114 56.3952C77.303 56.4063 78.1862 56.2226 78.9982 55.8571V55.8195C79.2809 55.6888 79.5545 55.5396 79.8171 55.3729C80.1999 55.5667 80.6015 55.7218 81.0156 55.8356C81.5379 55.9701 82.0759 56.0352 82.6154 56.0293V50.2612C82.6227 49.4328 82.4565 48.6119 82.1274 47.8506ZM78.7434 53.0968L78.6295 53.2367C78.5128 53.3767 78.3859 53.5079 78.2499 53.6295C78.0818 53.7722 77.9002 53.8984 77.7076 54.0062L77.431 54.1407H77.3767L77.1273 54.2268L76.9917 54.2537L76.8019 54.2913C76.6864 54.2995 76.5704 54.2995 76.4548 54.2913C76.0146 54.2864 75.5824 54.1736 75.1967 53.9631C74.8008 53.7441 74.454 53.4475 74.1771 53.0914C73.8696 52.6958 73.6346 52.2496 73.483 51.7731C73.3089 51.2526 73.2209 50.7074 73.2227 50.1589C73.2231 49.6408 73.3017 49.1258 73.4559 48.6308C73.4559 48.6039 73.4559 48.5716 73.483 48.5447V48.4963C73.6405 48.0437 73.8693 47.6187 74.1609 47.2372C74.4418 46.8759 74.7943 46.5756 75.1967 46.3547C75.5805 46.1394 76.0139 46.0263 76.4548 46.0265C76.9302 46.0238 77.3972 46.1504 77.8052 46.3924C77.9026 46.4539 77.9967 46.5203 78.0872 46.5915C78.1539 46.6333 78.2174 46.6801 78.277 46.7314C78.3421 46.7906 78.4017 46.8551 78.4614 46.9197C78.521 46.9843 78.6078 47.065 78.6783 47.1457L78.841 47.3663C78.937 47.4995 79.0257 47.6379 79.1067 47.7806L79.1609 47.8775C79.273 48.0927 79.369 48.3156 79.4484 48.5447C79.4484 48.6093 79.4863 48.6792 79.5026 48.7438C79.5586 48.933 79.6039 49.1252 79.6382 49.3195C79.6382 49.3195 79.6382 49.3518 79.6382 49.3679C79.6779 49.6316 79.6978 49.8977 79.6978 50.1643C79.702 50.7126 79.6159 51.2578 79.4429 51.7785C79.2887 52.255 79.052 52.7011 78.7434 53.0968Z" fill="#005359"/>
<path d="M68.5915 47.3021C68.2241 46.8608 67.7992 46.4699 67.3279 46.1398C67.0134 45.9138 66.6934 45.7147 66.3626 45.521L66.2379 45.4565L66.1511 45.4134L65.8312 45.2305C65.5654 45.0852 65.3648 44.9776 65.2021 44.8969L64.9309 44.7462C64.5622 44.5525 64.2368 44.3588 63.9548 44.2081C63.7045 44.0541 63.4718 43.8737 63.2606 43.67C63.0871 43.5022 62.9472 43.3032 62.8485 43.0835C62.7551 42.8607 62.7161 42.6192 62.7346 42.3787C62.7691 41.8643 62.9884 41.3794 63.3528 41.012C63.565 40.8016 63.8197 40.6382 64.1001 40.5325C64.3805 40.4268 64.6803 40.3811 64.9797 40.3986C65.3906 40.4077 65.7965 40.4897 66.1782 40.6407C66.7055 40.8651 67.1718 41.2099 67.5394 41.6469C67.7738 41.4043 67.9761 41.1331 68.1414 40.8398C68.3037 40.559 68.4468 40.2678 68.5698 39.9681C68.1103 39.5394 67.5895 39.1804 67.0242 38.9027C66.4205 38.6426 65.7731 38.4966 65.1153 38.4722C64.3035 38.408 63.4871 38.5125 62.7183 38.7789C62.1252 38.9951 61.5814 39.3261 61.1185 39.7529C60.723 40.1257 60.4075 40.5742 60.1912 41.0711C60.0094 41.4885 59.8853 41.9283 59.8224 42.3787C59.7423 42.904 59.7728 43.44 59.9119 43.9531C60.0509 44.4661 60.2956 44.945 60.6304 45.3596C60.8576 45.6483 61.1118 45.9149 61.3897 46.156C61.5004 46.2475 61.6183 46.3303 61.7422 46.4035C61.8886 46.4896 62.6207 46.9415 63.2715 47.3989L64.0849 47.937C64.8362 48.402 65.4588 49.0456 65.8962 49.8095C66.2101 50.4294 66.3183 51.1319 66.2054 51.8165C66.1567 52.0763 66.067 52.3269 65.9396 52.559C66.1279 52.6774 66.309 52.8068 66.4819 52.9465C67.0384 53.4007 67.5118 53.9468 67.8811 54.5607C68.3545 54.138 68.7508 53.6374 69.0525 53.081C69.4426 52.3449 69.6665 51.5333 69.7087 50.7027C69.7503 50.0534 69.6618 49.4023 69.4484 48.7871C69.25 48.2473 68.9602 47.7451 68.5915 47.3021Z" fill="#005359"/>
<path d="M13.5472 39.5699C13.3229 39.5629 13.0996 39.6021 12.8914 39.6849C12.6831 39.7677 12.4943 39.8924 12.3369 40.0511C12.1796 40.2098 12.057 40.399 11.9769 40.607C11.8968 40.8149 11.8609 41.0371 11.8714 41.2594C11.8671 41.4813 11.9076 41.7017 11.9905 41.9078C12.0734 42.1139 12.197 42.3014 12.3541 42.4593C12.5076 42.619 12.693 42.745 12.8984 42.8293C13.1039 42.9137 13.3249 42.9544 13.5472 42.949C13.7714 42.9511 13.9938 42.9089 14.2014 42.8248C14.409 42.7406 14.5976 42.6162 14.7561 42.4589C14.9147 42.3016 15.04 42.1145 15.1248 41.9085C15.2096 41.7026 15.2522 41.4819 15.25 41.2594C15.2558 41.0388 15.2149 40.8195 15.1299 40.6156C15.0449 40.4117 14.9177 40.2277 14.7565 40.0757C14.6 39.9145 14.4121 39.7865 14.2042 39.6995C13.9963 39.6126 13.7728 39.5685 13.5472 39.5699Z" fill="#00A78D"/>
<path d="M43.0544 44.5578C41.8606 44.3464 40.6305 44.4828 39.5132 44.9505C38.773 45.2678 38.0996 45.7205 37.5283 46.285C36.9584 46.8499 36.5036 47.5186 36.1888 48.2543C36.0835 48.4951 35.9965 48.7433 35.9285 48.9969C35.7737 49.5396 35.6952 50.1009 35.6953 50.6649V56.121C36.7439 56.1348 37.7785 55.881 38.6997 55.3838V50.6757C38.6962 50.127 38.7842 49.5816 38.96 49.0614C38.96 48.9807 39.0197 48.9054 39.0468 48.8301C39.1984 48.4432 39.4068 48.0805 39.665 47.7539C39.9464 47.3923 40.2964 47.0888 40.6954 46.8607C41.0799 46.6472 41.5129 46.5342 41.9535 46.5325C42.3912 46.5016 42.8302 46.5678 43.2388 46.7262L44.074 44.8698C43.7445 44.735 43.4032 44.6305 43.0544 44.5578Z" fill="#00A78D"/>
<g style="mix-blend-mode:multiply" opacity="0.1">
<path d="M52.3114 48.717C52.4191 49.0516 52.4936 49.3958 52.5337 49.7448C52.5337 49.8039 52.5337 49.8631 52.5337 49.9223C52.5364 49.9347 52.5364 49.9476 52.5337 49.96C52.5337 50.0837 52.5337 50.2129 52.5337 50.342C52.5364 50.8902 52.4503 51.4352 52.2789 51.9562C52.1273 52.4159 51.9021 52.8483 51.6118 53.2369L51.4925 53.3768C51.3759 53.5185 51.249 53.6515 51.1129 53.7749H51.0804C50.9141 53.9215 50.7323 54.0496 50.538 54.157C50.4479 54.2093 50.3536 54.2543 50.256 54.2915H50.2018C50.1203 54.3232 50.037 54.3502 49.9524 54.3722C49.9078 54.3855 49.8625 54.3963 49.8168 54.4045L49.6216 54.4421C49.506 54.4504 49.39 54.4504 49.2745 54.4421C48.8478 54.4566 48.4244 54.3641 48.0434 54.1731C47.6347 53.9501 47.2766 53.6461 46.9914 53.2799C46.6828 52.8782 46.4462 52.4268 46.2918 51.9455C46.1157 51.4254 46.0278 50.8799 46.0315 50.3313C46.0306 49.8358 46.1018 49.3429 46.243 48.8677C46.243 48.8139 46.243 48.7547 46.2918 48.7009C46.3406 48.6471 46.2918 48.6417 46.3297 48.6094C46.3677 48.5771 46.3677 48.5179 46.3894 48.4695L43.2928 48.604C43.1318 49.1604 43.0496 49.7363 43.0488 50.3151C43.0421 51.1475 43.2101 51.9721 43.5423 52.7365C43.862 53.4709 44.3182 54.139 44.8872 54.7058C45.4569 55.2709 46.1307 55.7221 46.872 56.0349C47.6421 56.3655 48.4734 56.5323 49.3124 56.5245C49.772 56.5264 50.2303 56.4777 50.679 56.3792C51.1079 56.2833 51.5258 56.1445 51.9264 55.9649V55.9219C52.2107 55.7945 52.4845 55.6451 52.7452 55.4753C53.1337 55.6691 53.5406 55.8242 53.96 55.938C54.4905 56.0783 55.038 56.1453 55.5869 56.1371V50.3313C55.5876 49.5959 55.4534 48.8666 55.191 48.179L52.165 48.2758C52.1921 48.4157 52.2572 48.561 52.3114 48.717Z" fill="#1D1D1B"/>
</g>
<g style="mix-blend-mode:multiply" opacity="0.1">
<path d="M31.8502 50.3314C31.8521 50.8799 31.7642 51.425 31.5899 51.9456C31.4358 52.428 31.1971 52.8798 30.8849 53.28C30.6017 53.646 30.2454 53.9501 29.8382 54.1732C29.4513 54.3911 29.0141 54.506 28.5692 54.5068C28.1204 54.5093 27.679 54.3943 27.2894 54.1732C26.8866 53.9483 26.5342 53.6444 26.2536 53.28C25.9413 52.8798 25.7027 52.428 25.5486 51.9456C25.3742 51.425 25.2863 50.8799 25.2883 50.3314C25.2898 50.1281 25.3024 49.9252 25.3262 49.7233L22.3273 49.9601C22.3273 50.0838 22.3273 50.2076 22.3273 50.3314C22.3221 51.1636 22.4901 51.9879 22.8208 52.7527C23.4629 54.2366 24.6549 55.4193 26.1505 56.0565C26.9225 56.3812 27.7524 56.5485 28.5909 56.5485C29.4294 56.5485 30.2593 56.3812 31.0313 56.0565C32.5326 55.4239 33.7295 54.2402 34.3719 52.7527C34.8662 51.5927 34.9929 50.3108 34.7353 49.0776L31.7688 49.266C31.8318 49.6175 31.8591 49.9744 31.8502 50.3314Z" fill="#1D1D1B"/>
</g>
<g style="mix-blend-mode:multiply" opacity="0.1">
<path d="M16.5139 52.3867C17.1537 53.8722 18.3464 55.0556 19.8436 55.6904C20.6187 56.017 21.4527 56.1836 22.2948 56.1801V54.1246C21.8462 54.1264 21.4049 54.0114 21.015 53.791C20.6146 53.5651 20.2627 53.2635 19.9792 52.9032C19.6702 52.5049 19.4318 52.0573 19.2742 51.5795C19.1316 51.1461 19.0495 50.6953 19.0302 50.2397L16.0366 50.5088C16.0891 51.1568 16.2504 51.7915 16.5139 52.3867Z" fill="#1D1D1B"/>
</g>
<g style="mix-blend-mode:multiply" opacity="0.1">
<path d="M2.05594 54.356C2.70148 54.9946 3.46335 55.5059 4.30109 55.8626C5.17419 56.2281 6.11384 56.4113 7.06144 56.4006C7.86253 56.4059 8.65861 56.2749 9.41506 56.0132C10.121 55.7596 10.7818 55.3964 11.3728 54.9371C11.0118 54.3723 10.5613 53.869 10.0387 53.4466C9.93102 53.3634 9.81878 53.2861 9.70248 53.2152C9.35257 53.5032 8.95165 53.724 8.52025 53.8663C8.0504 54.0226 7.55688 54.0972 7.06144 54.0869C6.56026 54.0876 6.06665 53.9656 5.62432 53.7318C5.16434 53.4858 4.76157 53.1466 4.44209 52.7364C4.20946 52.4373 4.01289 52.1122 3.8564 51.7678C2.77179 51.897 1.66006 52.0315 0.575439 52.1714C0.929532 52.9836 1.43141 53.7242 2.05594 54.356Z" fill="#1D1D1B"/>
</g>
<g style="mix-blend-mode:multiply" opacity="0.1">
<path d="M12.0452 50.9017V56.1317H12.6363C13.4802 56.0473 14.3007 55.8064 15.055 55.4215V50.6057C14.0463 50.6972 13.043 50.7994 12.0452 50.9017Z" fill="#1D1D1B"/>
</g>
<g style="mix-blend-mode:multiply" opacity="0.1">
<path d="M35.9285 49.0076C35.7737 49.5503 35.6952 50.1117 35.6953 50.6757V56.1317C36.7439 56.1456 37.7785 55.8918 38.6997 55.3946V50.6757C38.6962 50.127 38.7842 49.5816 38.96 49.0615C38.96 48.9807 39.0197 48.9054 39.0468 48.8301L35.9285 49.0076Z" fill="#1D1D1B"/>
</g>
<g style="mix-blend-mode:multiply" opacity="0.1">
<path d="M59.2694 49.1423V48.0662L55.8962 48.1469V49.3898C55.8854 50.3283 56.07 51.2589 56.4385 52.1232C56.5632 52.403 56.7042 52.6613 56.8507 52.9196C57.1421 53.4452 57.5072 53.9272 57.9353 54.3509C58.239 54.6517 58.5734 54.9204 58.9331 55.1526C59.3325 55.4303 59.7595 55.6665 60.2076 55.8575C61.0787 56.2231 62.0166 56.4063 62.9625 56.3956C63.7654 56.4014 64.5633 56.2703 65.3215 56.0081C65.6973 55.8715 66.0603 55.7022 66.4061 55.5023C66.7131 55.3498 67.0054 55.1697 67.2793 54.9643C66.9146 54.3848 66.4566 53.8685 65.9235 53.4361C65.7756 53.3207 65.6217 53.2129 65.4625 53.1133C65.137 53.4692 64.7265 53.7381 64.2687 53.8951C63.811 54.0521 63.3207 54.0923 62.8432 54.0119C62.3594 53.9917 61.8842 53.8784 61.444 53.6783C61.008 53.4405 60.6259 53.1164 60.3214 52.7259C59.9783 52.2786 59.7109 51.7788 59.5297 51.2462C59.3312 50.6621 59.2322 50.0493 59.2368 49.4329V49.0993L59.2694 49.1423Z" fill="#1D1D1B"/>
</g>
<g style="mix-blend-mode:multiply" opacity="0.1">
<path d="M65.8855 49.8149C66.1994 50.4348 66.3076 51.1373 66.1946 51.8219C66.1488 52.0793 66.0628 52.328 65.9397 52.5591C66.128 52.6775 66.3091 52.8069 66.482 52.9465C67.0385 53.4007 67.5119 53.9468 67.8812 54.5608C68.3546 54.1381 68.7509 53.6375 69.0526 53.081C69.4426 52.3449 69.6666 51.5334 69.7088 50.7028C69.7504 50.0534 69.6619 49.4024 69.4484 48.7872C69.3364 48.4855 69.1985 48.1939 69.0363 47.9155C67.4094 47.9155 65.7825 47.9478 64.1284 47.9747C64.861 48.4315 65.4654 49.0645 65.8855 49.8149Z" fill="#1D1D1B"/>
</g>
<g style="mix-blend-mode:multiply" opacity="0.1">
<path d="M79.1177 47.969C79.2298 48.1841 79.3258 48.4071 79.4051 48.6362C79.4051 48.7008 79.4431 48.7707 79.4594 48.8353C79.5154 49.0245 79.5607 49.2167 79.5949 49.411C79.5949 49.411 79.5949 49.4433 79.5949 49.4594C79.6347 49.7231 79.6546 49.9892 79.6546 50.2558C79.6588 50.804 79.5727 51.3493 79.3997 51.87C79.2515 52.3251 79.0279 52.7524 78.7381 53.1345L78.6242 53.2744C78.5075 53.4143 78.3806 53.5456 78.2446 53.6672C78.0766 53.8099 77.895 53.9361 77.7023 54.0438L77.4257 54.1784H77.3715L77.122 54.2645L76.9864 54.2914L76.7966 54.329C76.6811 54.3372 76.5651 54.3372 76.4496 54.329C76.0093 54.3241 75.5771 54.2113 75.1914 54.0008C74.7956 53.7818 74.4487 53.4852 74.1719 53.1291C73.8643 52.7335 73.6293 52.2873 73.4777 51.8108C73.3036 51.2903 73.2157 50.7451 73.2174 50.1966C73.2179 49.6785 73.2965 49.1635 73.4506 48.6685C73.4506 48.6416 73.4506 48.6093 73.4777 48.5824V48.534C73.562 48.2965 73.6653 48.0662 73.7868 47.8452H70.7119C70.4011 48.5831 70.2425 49.3753 70.2455 50.1751C70.239 50.9999 70.4052 51.8171 70.7336 52.5749C71.3734 54.0417 72.5525 55.2116 74.0309 55.8464C74.7946 56.1722 75.6182 56.3371 76.4496 56.3307C77.3412 56.3417 78.2243 56.158 79.0364 55.7926V55.7549C79.319 55.6243 79.5926 55.4751 79.8553 55.3083C80.238 55.5022 80.6396 55.6572 81.0537 55.7711C81.576 55.9055 82.114 55.9707 82.6536 55.9648V50.2612C82.655 49.4713 82.5002 48.6889 82.198 47.9582H79.1231L79.1177 47.969Z" fill="#1D1D1B"/>
</g>
<g style="mix-blend-mode:multiply" opacity="0.1">
<path d="M92.4314 48.1197V50.2128C92.4339 50.7575 92.3646 51.3002 92.2253 51.827C92.1029 52.2966 91.9052 52.7435 91.6396 53.1507C91.3996 53.5089 91.083 53.8101 90.7123 54.0331C90.343 54.2478 89.9228 54.361 89.4948 54.361C89.0668 54.361 88.6466 54.2478 88.2773 54.0331C87.9115 53.8095 87.6003 53.5081 87.3662 53.1507C87.0964 52.7458 86.8983 52.2981 86.7805 51.827C86.6367 51.3009 86.5656 50.7579 86.569 50.2128V47.9959L83.5918 47.9529V50.2128C83.585 51.033 83.7341 51.8471 84.031 52.6126C84.3093 53.3329 84.7234 53.994 85.2512 54.5604C85.7941 55.1363 86.4503 55.5955 87.1794 55.9094C87.9084 56.2233 88.6947 56.3853 89.4894 56.3853C90.2841 56.3853 91.0703 56.2233 91.7994 55.9094C92.5284 55.5955 93.1847 55.1363 93.7275 54.5604C94.2553 53.994 94.6694 53.3329 94.9477 52.6126C95.2447 51.8471 95.3937 51.033 95.387 50.2128V48.2004L92.4314 48.1197Z" fill="#1D1D1B"/>
</g>
<g style="mix-blend-mode:multiply" opacity="0.1">
<path d="M105.528 48.5826C105.529 48.6005 105.529 48.6185 105.528 48.6364C105.67 49.0519 105.754 49.4845 105.778 49.9224V50.3098C105.784 50.8595 105.692 51.406 105.506 51.924C105.341 52.3913 105.101 52.8292 104.796 53.2208C104.657 53.4023 104.499 53.5682 104.324 53.7158C104.158 53.8574 103.976 53.9801 103.782 54.0817C103.397 54.2946 102.964 54.4075 102.524 54.4099C102.079 54.411 101.642 54.2979 101.255 54.0817C100.858 53.8554 100.509 53.5537 100.23 53.1939C100.081 53.0075 99.9502 52.8075 99.8393 52.5966C99.7212 52.3725 99.6232 52.1384 99.5465 51.8971C99.2007 50.8483 99.2007 49.7175 99.5465 48.6687C99.579 48.5718 99.617 48.475 99.655 48.3781L96.656 48.2759C96.1486 49.7147 96.1989 51.2894 96.797 52.6935C97.4322 54.1634 98.6127 55.3348 100.094 55.965C100.858 56.2919 101.681 56.4568 102.513 56.4492C103.348 56.4546 104.175 56.2898 104.942 55.965C106.427 55.3352 107.611 54.1642 108.251 52.6935C108.579 51.9357 108.745 51.1185 108.739 50.2937V48.7386L105.528 48.5826Z" fill="#1D1D1B"/>
</g>
<g style="mix-blend-mode:multiply" opacity="0.1">
<path d="M114.308 52.0209C114.616 52.0625 114.925 52.0858 115.235 52.0908H115.29C115.604 52.0908 115.913 52.0908 116.217 52.0908C117.028 52.0536 117.827 51.8902 118.587 51.6066C119.237 51.3701 119.82 50.9805 120.284 50.4712C120.53 50.1843 120.714 49.8512 120.827 49.4919L117.855 49.2875C117.766 49.3793 117.667 49.4622 117.562 49.535C117.095 49.8323 116.563 50.0166 116.011 50.073C115.609 50.1148 115.204 50.1148 114.802 50.073C114.075 49.9706 113.37 49.7583 112.708 49.4435C112.708 49.2875 112.763 49.1368 112.795 48.9861L109.834 48.8247C109.509 50.1128 109.616 51.4708 110.138 52.6935C110.777 54.1661 111.964 55.3377 113.451 55.965C114.219 56.2902 115.046 56.455 115.881 56.4492C116.685 56.4533 117.482 56.2959 118.224 55.9865C118.947 55.6858 119.607 55.2532 120.17 54.7112C120.512 54.3292 119.964 53.097 119.352 52.6612C118.918 53.126 118.43 53.5379 117.898 53.888C117.615 54.0599 117.311 54.1938 116.993 54.2862C116.642 54.3938 116.273 54.4322 115.908 54.3992C115.463 54.4006 115.025 54.2915 114.633 54.0817C114.236 53.867 113.887 53.5741 113.609 53.2208C113.307 52.8393 113.072 52.41 112.914 51.9509L112.871 51.811C113.267 51.8756 113.69 51.9402 114.086 51.994L114.308 52.0209Z" fill="#1D1D1B"/>
</g>
<path d="M3.6936 61.9644V59.3494H4.0678V60.4255H5.32053V59.3494H5.69472V61.9644H5.32053V60.7322H4.0678V61.9644H3.6936Z" fill="#005359"/>
<path d="M8.30862 62.0288C8.14241 62.0346 7.97696 62.0038 7.82414 61.9387C7.67132 61.8736 7.5349 61.7757 7.42466 61.6522C7.20851 61.3636 7.0918 61.0136 7.0918 60.6541C7.0918 60.2945 7.20851 59.9445 7.42466 59.6559C7.54167 59.5385 7.68102 59.4452 7.83461 59.3816C7.98821 59.3179 8.15301 59.2852 8.31947 59.2852C8.48592 59.2852 8.65072 59.3179 8.80432 59.3816C8.95792 59.4452 9.09726 59.5385 9.21428 59.6559C9.43253 59.9447 9.55051 60.2958 9.55051 60.6568C9.55051 61.0177 9.43253 61.3688 9.21428 61.6576C9.09974 61.7812 8.95933 61.8786 8.80288 61.9427C8.64643 62.0068 8.47773 62.0362 8.30862 62.0288ZM8.30862 61.7544C8.42862 61.7605 8.54829 61.7372 8.65705 61.6865C8.76582 61.6358 8.86034 61.5594 8.93228 61.4639C9.07778 61.2194 9.15453 60.9407 9.15453 60.6568C9.15453 60.3728 9.07778 60.0941 8.93228 59.8496C8.85859 59.7587 8.76528 59.6853 8.65922 59.6349C8.55317 59.5845 8.43707 59.5583 8.31947 59.5583C8.20187 59.5583 8.08577 59.5845 7.97971 59.6349C7.87366 59.6853 7.78035 59.7587 7.70666 59.8496C7.56004 60.0937 7.48264 60.3726 7.48264 60.6568C7.48264 60.9409 7.56004 61.2198 7.70666 61.4639C7.77572 61.5584 7.86738 61.6345 7.97339 61.6852C8.07941 61.7359 8.19647 61.7597 8.31405 61.7544H8.30862Z" fill="#005359"/>
<path d="M11.4758 62.029C11.2441 62.0204 11.0144 61.9825 10.7925 61.916V61.5501C11.02 61.6668 11.2691 61.7364 11.5246 61.7545C11.6543 61.7589 11.7813 61.7169 11.8825 61.6362C11.9544 61.567 11.9984 61.4743 12.0064 61.3752C12.0144 61.2762 11.9858 61.1777 11.9259 61.0981C11.8361 60.9952 11.7252 60.9127 11.6005 60.856L11.4216 60.7537C11.2432 60.661 11.0819 60.5391 10.9443 60.3932C10.8541 60.2821 10.8061 60.1431 10.8087 60.0004C10.8063 59.9059 10.8249 59.812 10.8634 59.7255C10.9018 59.639 10.9591 59.562 11.0311 59.5C11.1817 59.3715 11.3748 59.3025 11.5734 59.3063C11.7925 59.3078 12.0101 59.3423 12.2187 59.4085V59.7475C12.0217 59.6579 11.8109 59.6015 11.5951 59.5807C11.4791 59.5786 11.3659 59.6166 11.2751 59.6883C11.2358 59.7178 11.2041 59.7561 11.1824 59.8C11.1607 59.844 11.1498 59.8923 11.1504 59.9412C11.1507 60.0287 11.1835 60.113 11.2426 60.178C11.3429 60.2722 11.4561 60.3519 11.5788 60.4147L11.7686 60.5224C11.9489 60.6121 12.1107 60.7344 12.2459 60.8829C12.3377 61.0014 12.3855 61.1477 12.3814 61.2972C12.3838 61.4003 12.362 61.5026 12.3177 61.5959C12.2735 61.6893 12.2081 61.7712 12.1266 61.8353C11.9379 61.971 11.7085 62.0393 11.4758 62.029Z" fill="#005359"/>
<path d="M13.7969 61.9645V59.3494H14.5127C14.7537 59.3293 14.995 59.3859 15.2014 59.5109C15.2764 59.5778 15.3343 59.6616 15.3701 59.7552C15.4059 59.8487 15.4188 59.9495 15.4075 60.0489C15.4146 60.173 15.3922 60.297 15.3423 60.411C15.2924 60.525 15.2163 60.6258 15.1201 60.7054C14.8945 60.8742 14.6159 60.9581 14.3338 60.9421H14.1656V61.9806L13.7969 61.9645ZM14.1656 60.6462H14.3175C14.5016 60.6566 14.6837 60.6034 14.8327 60.4955C14.8931 60.4417 14.9405 60.375 14.9715 60.3005C15.0025 60.226 15.0162 60.1455 15.0116 60.0651C15.0182 60.0014 15.0087 59.9371 14.9841 59.878C14.9595 59.8188 14.9205 59.7667 14.8706 59.7261C14.7258 59.65 14.5622 59.6164 14.3988 59.6292H14.1656V60.6462Z" fill="#005359"/>
<path d="M16.6873 61.9644V59.3494H17.0614V61.9644H16.6873Z" fill="#005359"/>
<path d="M19.1821 61.9644V59.6292H18.2981V59.3494H20.4348V59.6292H19.5563V61.9644H19.1821Z" fill="#005359"/>
<path d="M23.1949 61.9644L22.9075 61.238H21.7903L21.5029 61.9644H21.1504L22.197 59.3494H22.555L23.5854 61.9644H23.1949ZM22.799 60.9636L22.3489 59.839L21.8988 60.9636H22.799Z" fill="#005359"/>
<path d="M24.8542 61.9644V59.3494H25.2284V61.7061H26.4161V61.9805L24.8542 61.9644Z" fill="#005359"/>
<path d="M29.4043 61.9644L29.1169 61.238H27.978L27.6906 61.9644H27.3435L28.3847 59.3494H28.7589L29.7893 61.9644H29.4043ZM29.0084 60.9636L28.5583 59.839L28.1082 60.9636H29.0084Z" fill="#005359"/>
<path d="M31.064 61.9646V59.3496H31.8612C32.0701 59.335 32.2775 59.3941 32.4468 59.5164C32.5148 59.5769 32.5682 59.6519 32.6029 59.7358C32.6377 59.8196 32.6529 59.9102 32.6475 60.0007C32.6494 60.1658 32.5977 60.3271 32.5 60.4608C32.4024 60.5946 32.2639 60.6936 32.1052 60.7432L32.9837 61.9646H32.5336L31.7852 60.8885H31.4382V61.9646H31.064ZM31.4382 60.5818H31.5575C32.0293 60.5818 32.2625 60.3988 32.2625 60.0437C32.2625 59.7747 32.0672 59.6401 31.6713 59.6401H31.4382V60.5818Z" fill="#005359"/>
<path d="M36.4814 62.4864V59.1772H36.7472V62.4864H36.4814Z" fill="#005359"/>
<path d="M41.6008 62.0292C41.4351 62.0373 41.2697 62.0075 41.1174 61.9422C40.9651 61.8769 40.8299 61.7778 40.7223 61.6525C40.5045 61.3646 40.3867 61.0144 40.3867 60.6544C40.3867 60.2944 40.5045 59.9442 40.7223 59.6563C40.8347 59.5329 40.9732 59.4356 41.1278 59.3714C41.2825 59.3072 41.4496 59.2777 41.6171 59.285C41.7853 59.2784 41.9529 59.3082 42.1084 59.3723C42.2638 59.4364 42.4034 59.5333 42.5173 59.6563C42.7356 59.945 42.8535 60.2962 42.8535 60.6571C42.8535 61.018 42.7356 61.3692 42.5173 61.6579C42.4009 61.7821 42.2586 61.8797 42.1003 61.9438C41.942 62.0079 41.7716 62.0371 41.6008 62.0292ZM41.6008 61.7548C41.7216 61.7608 41.842 61.7375 41.9516 61.6868C42.0613 61.6362 42.1568 61.5598 42.2299 61.4642C42.3897 61.2221 42.4658 60.9351 42.4468 60.6463C42.4647 60.3637 42.3864 60.0832 42.2245 59.85C42.1508 59.7591 42.0575 59.6857 41.9514 59.6353C41.8454 59.5849 41.7293 59.5587 41.6117 59.5587C41.4941 59.5587 41.378 59.5849 41.2719 59.6353C41.1658 59.6857 41.0725 59.7591 40.9988 59.85C40.8522 60.0941 40.7748 60.373 40.7748 60.6571C40.7748 60.9413 40.8522 61.2201 40.9988 61.4642C41.0682 61.5584 41.16 61.6342 41.2659 61.6849C41.3718 61.7356 41.4887 61.7596 41.6062 61.7548H41.6008Z" fill="#005359"/>
<path d="M44.2473 61.9644V59.3494H45.1259C45.3406 59.3446 45.5548 59.3737 45.7604 59.4355C45.9229 59.4967 46.0668 59.5987 46.1779 59.7314C46.3724 59.9776 46.4707 60.2853 46.4545 60.5977C46.4665 60.7799 46.4419 60.9625 46.3824 61.1352C46.3228 61.3079 46.2294 61.4672 46.1074 61.6039C45.9795 61.7288 45.8264 61.8255 45.6582 61.8876C45.49 61.9498 45.3104 61.9759 45.1313 61.9644H44.2473ZM44.6269 61.69H45.1042C45.2385 61.7035 45.3741 61.6857 45.5002 61.6381C45.6264 61.5905 45.7396 61.5143 45.8309 61.4156C45.9927 61.1862 46.0729 60.9097 46.0586 60.63C46.073 60.3702 45.9921 60.1141 45.8309 59.909C45.7473 59.8046 45.6339 59.7277 45.5055 59.6884C45.318 59.64 45.1242 59.6201 44.9306 59.6292H44.6269V61.69Z" fill="#005359"/>
<path d="M48.9165 62.0288C48.7508 62.0369 48.5854 62.0072 48.4331 61.9419C48.2808 61.8766 48.1456 61.7775 48.0379 61.6522C47.8201 61.3643 47.7024 61.014 47.7024 60.6541C47.7024 60.2941 47.8201 59.9438 48.0379 59.6559C48.155 59.5385 48.2943 59.4452 48.4479 59.3816C48.6015 59.3179 48.7663 59.2852 48.9328 59.2852C49.0992 59.2852 49.264 59.3179 49.4176 59.3816C49.5712 59.4452 49.7106 59.5385 49.8276 59.6559C50.0458 59.9447 50.1638 60.2958 50.1638 60.6568C50.1638 61.0177 50.0458 61.3688 49.8276 61.6576C49.7124 61.782 49.5711 61.8797 49.4137 61.9439C49.2562 62.008 49.0865 62.037 48.9165 62.0288ZM48.9165 61.7544C49.0372 61.76 49.1575 61.7365 49.267 61.6859C49.3766 61.6353 49.4721 61.5591 49.5456 61.4639C49.7053 61.2218 49.7815 60.9347 49.7625 60.646C49.7803 60.3633 49.7021 60.0829 49.5401 59.8496C49.4665 59.7587 49.3731 59.6853 49.2671 59.6349C49.161 59.5845 49.0449 59.5583 48.9273 59.5583C48.8097 59.5583 48.6936 59.5845 48.5876 59.6349C48.4815 59.6853 48.3882 59.7587 48.3145 59.8496C48.1679 60.0937 48.0905 60.3726 48.0905 60.6568C48.0905 60.9409 48.1679 61.2198 48.3145 61.4639C48.3839 61.5581 48.4756 61.6339 48.5816 61.6845C48.6875 61.7352 48.8044 61.7592 48.9219 61.7544H48.9165Z" fill="#005359"/>
<path d="M51.563 61.9644V59.3494H51.9318L53.2604 61.3671V59.3494H53.5804V61.9644H53.2116L51.883 59.9466V61.9644H51.563Z" fill="#005359"/>
<path d="M55.7008 61.9644V59.6292H54.8223V59.3494H56.959V59.6292H56.075V61.9644H55.7008Z" fill="#005359"/>
<path d="M59.2258 62.0288C59.0595 62.0354 58.8938 62.0049 58.7409 61.9398C58.5879 61.8746 58.4516 61.7763 58.3418 61.6522C58.1106 61.3728 57.9926 61.0178 58.011 60.6568C57.9906 60.2928 58.1108 59.9349 58.3473 59.6559C58.4643 59.5385 58.6036 59.4452 58.7572 59.3816C58.9108 59.3179 59.0756 59.2852 59.2421 59.2852C59.4085 59.2852 59.5733 59.3179 59.7269 59.3816C59.8805 59.4452 60.0199 59.5385 60.1369 59.6559C60.3551 59.9447 60.4731 60.2958 60.4731 60.6568C60.4731 61.0177 60.3551 61.3688 60.1369 61.6576C60.0217 61.782 59.8805 61.8797 59.723 61.9439C59.5656 62.008 59.3958 62.037 59.2258 62.0288ZM59.2258 61.7544C59.3458 61.7605 59.4655 61.7372 59.5742 61.6865C59.683 61.6358 59.7775 61.5594 59.8495 61.4639C60.0111 61.2224 60.0892 60.9353 60.0718 60.646C60.0872 60.3636 60.0091 60.0839 59.8495 59.8496C59.7758 59.7587 59.6825 59.6853 59.5764 59.6349C59.4703 59.5845 59.3542 59.5583 59.2366 59.5583C59.119 59.5583 59.0029 59.5845 58.8969 59.6349C58.7908 59.6853 58.6975 59.7587 58.6238 59.8496C58.4619 60.0849 58.3837 60.367 58.4015 60.6514C58.3837 60.9366 58.4598 61.2199 58.6184 61.4585C58.6881 61.5541 58.7804 61.6312 58.8874 61.6828C58.9943 61.7344 59.1124 61.759 59.2312 61.7544H59.2258Z" fill="#005359"/>
<path d="M61.8723 61.9644V59.3494H62.2465V61.7061H63.4341V61.9805L61.8723 61.9644Z" fill="#005359"/>
<path d="M65.7012 62.0292C65.5346 62.0381 65.3682 62.0087 65.2148 61.9434C65.0615 61.8781 64.9255 61.7785 64.8172 61.6525C64.5994 61.3646 64.4817 61.0144 64.4817 60.6544C64.4817 60.2944 64.5994 59.9442 64.8172 59.6563C64.9299 59.5331 65.0684 59.4361 65.223 59.3719C65.3777 59.3077 65.5446 59.2781 65.7121 59.285C65.8803 59.2784 66.0479 59.3082 66.2034 59.3723C66.3588 59.4364 66.4984 59.5333 66.6123 59.6563C66.8305 59.945 66.9485 60.2962 66.9485 60.6571C66.9485 61.018 66.8305 61.3692 66.6123 61.6579C66.4967 61.7817 66.3553 61.879 66.198 61.9432C66.0406 62.0073 65.8711 62.0366 65.7012 62.0292ZM65.7012 61.7547C65.8211 61.7603 65.9406 61.7368 66.0493 61.6862C66.158 61.6355 66.2526 61.5593 66.3249 61.4642C66.4865 61.2228 66.5646 60.9357 66.5472 60.6463C66.5626 60.3639 66.4845 60.0843 66.3249 59.85C66.2534 59.7552 66.1598 59.6793 66.0521 59.6286C65.9443 59.578 65.8257 59.5542 65.7066 59.5594C65.5884 59.5546 65.4707 59.5786 65.3639 59.6293C65.2571 59.6799 65.1644 59.7557 65.0938 59.85C64.951 60.0954 64.8759 60.3737 64.8759 60.6571C64.8759 60.9404 64.951 61.2188 65.0938 61.4642C65.1641 61.5588 65.2567 61.6348 65.3636 61.6855C65.4705 61.7362 65.5883 61.76 65.7066 61.7547H65.7012ZM65.4463 59.1289L65.8747 58.564H66.2815L65.7066 59.1289H65.4463Z" fill="#005359"/>
<path d="M70.3268 61.8945C70.056 61.9776 69.7749 62.0228 69.4916 62.029C69.3146 62.0407 69.137 62.0151 68.9707 61.9539C68.8043 61.8927 68.6528 61.7973 68.5263 61.6739C68.3066 61.3806 68.188 61.025 68.188 60.6596C68.188 60.2942 68.3066 59.9386 68.5263 59.6453C68.6503 59.5213 68.7996 59.4249 68.9642 59.3627C69.1289 59.3006 69.305 59.274 69.4807 59.2848C69.7633 59.286 70.0443 59.3259 70.3159 59.4032V59.7476C70.0488 59.6431 69.7672 59.5796 69.4807 59.5592C69.3552 59.5529 69.23 59.5759 69.1151 59.6264C69.0001 59.6768 68.8988 59.7534 68.8191 59.8498C68.6475 60.0852 68.5632 60.3723 68.5805 60.6623C68.5627 60.9516 68.6535 61.2372 68.8354 61.464C68.9244 61.5621 69.0344 61.6391 69.1574 61.6894C69.2803 61.7396 69.413 61.7619 69.5458 61.7546C69.682 61.7525 69.8172 61.7307 69.9471 61.69V60.8345H70.3213L70.3268 61.8945Z" fill="#005359"/>
<path d="M71.8562 61.9644V59.3494H72.2304V61.9644H71.8562Z" fill="#005359"/>
<path d="M74.9094 62.0291C74.7349 62.0398 74.5601 62.0137 74.3965 61.9525C74.2329 61.8913 74.0842 61.7963 73.9604 61.6739C73.7407 61.3807 73.6221 61.025 73.6221 60.6596C73.6221 60.2943 73.7407 59.9386 73.9604 59.6454C74.0854 59.5212 74.2357 59.4248 74.4012 59.3626C74.5667 59.3005 74.7436 59.274 74.9202 59.2849C75.2021 59.2906 75.4823 59.3286 75.7554 59.3979V59.7476C75.4883 59.6432 75.2066 59.5797 74.9202 59.5593C74.7939 59.5525 74.6677 59.5753 74.5518 59.6257C74.436 59.6762 74.3337 59.753 74.2532 59.8498C74.0835 60.0859 74.0011 60.3729 74.02 60.6623C74.0034 60.9473 74.0921 61.2286 74.2695 61.4533C74.3543 61.5489 74.4599 61.6242 74.5782 61.6736C74.6965 61.7229 74.8246 61.7451 74.9528 61.7385C75.235 61.7301 75.5108 61.6525 75.7554 61.5125V61.83C75.4939 61.9637 75.2035 62.032 74.9094 62.0291Z" fill="#005359"/>
<path d="M78.1958 62.0288C78.0301 62.0369 77.8647 62.0072 77.7124 61.9419C77.5601 61.8766 77.4249 61.7775 77.3172 61.6522C77.0994 61.3643 76.9817 61.014 76.9817 60.6541C76.9817 60.2941 77.0994 59.9438 77.3172 59.6559C77.4343 59.5385 77.5736 59.4452 77.7272 59.3816C77.8808 59.3179 78.0456 59.2852 78.2121 59.2852C78.3785 59.2852 78.5433 59.3179 78.6969 59.3816C78.8505 59.4452 78.9898 59.5385 79.1069 59.6559C79.3251 59.9447 79.4431 60.2958 79.4431 60.6568C79.4431 61.0177 79.3251 61.3688 79.1069 61.6576C78.9917 61.782 78.8504 61.8797 78.693 61.9439C78.5355 62.008 78.3658 62.037 78.1958 62.0288ZM78.1958 61.7544C78.3158 61.7605 78.4354 61.7372 78.5442 61.6865C78.653 61.6358 78.7475 61.5594 78.8194 61.4639C78.9837 61.2236 79.062 60.9356 79.0418 60.646C79.0596 60.3633 78.9813 60.0829 78.8194 59.8496C78.7457 59.7587 78.6524 59.6853 78.5464 59.6349C78.4403 59.5845 78.3242 59.5583 78.2066 59.5583C78.089 59.5583 77.9729 59.5845 77.8669 59.6349C77.7608 59.6853 77.6675 59.7587 77.5938 59.8496C77.4472 60.0937 77.3698 60.3726 77.3698 60.6568C77.3698 60.9409 77.4472 61.2198 77.5938 61.4639C77.6629 61.5584 77.7545 61.6345 77.8606 61.6852C77.9666 61.7359 78.0836 61.7597 78.2012 61.7544H78.1958Z" fill="#005359"/>
<path d="M83.082 62.4864V59.1772H83.3424V62.4864H83.082Z" fill="#005359"/>
<path d="M87.8326 61.9644L86.8347 59.3494H87.2089L88.0278 61.5393L88.8141 59.3494H89.1395L88.1742 61.9644H87.8326Z" fill="#005359"/>
<path d="M90.3923 61.9644V59.3494H91.862V59.6292H90.7774V60.4686H91.6939V60.743H90.7774V61.7061H91.9488V61.9805L90.3923 61.9644Z" fill="#005359"/>
<path d="M93.809 61.9644V59.6292H92.9304V59.3494H95.0671V59.6292H94.1832V61.9644H93.809Z" fill="#005359"/>
<path d="M96.3091 61.9644V59.3494H97.7787V59.6292H96.6941V60.4686H97.6161V60.743H96.6941V61.7061H97.8655V61.9805L96.3091 61.9644Z" fill="#005359"/>
<path d="M99.1614 61.9644V59.3494H99.9586C100.166 59.3356 100.371 59.3947 100.539 59.5162C100.608 59.5759 100.662 59.6508 100.697 59.7349C100.731 59.8189 100.746 59.9098 100.74 60.0004C100.741 60.1656 100.69 60.3269 100.592 60.4606C100.494 60.5943 100.356 60.6933 100.197 60.743L101.076 61.9644H100.647L99.8935 60.8883H99.5464V61.9644H99.1614ZM99.5302 60.5816H99.6495C100.121 60.5816 100.354 60.3986 100.354 60.0435C100.354 59.7745 100.159 59.6399 99.7633 59.6399H99.5302V60.5816Z" fill="#005359"/>
<path d="M102.339 61.9644V59.3494H102.714V61.9644H102.339Z" fill="#005359"/>
<path d="M104.265 61.9644V59.3494H104.633L105.962 61.3671V59.3494H106.282V61.9644H105.913L104.585 59.9466V61.9644H104.265Z" fill="#005359"/>
<path d="M109.568 61.9646L109.281 61.2382H108.164L107.871 61.9646H107.524L108.57 59.3495H108.939L109.97 61.9646H109.568ZM109.172 60.9638L108.722 59.8392L108.272 60.9638H109.172ZM108.494 59.1289L108.923 58.564H109.324L108.782 59.1289H108.494Z" fill="#005359"/>
<path d="M111.228 61.9644V59.3494H112.036C112.243 59.3347 112.449 59.3938 112.616 59.5162C112.685 59.576 112.739 59.6508 112.774 59.7349C112.809 59.8189 112.823 59.9098 112.817 60.0004C112.819 60.1658 112.768 60.3275 112.67 60.4614C112.573 60.5953 112.434 60.6941 112.274 60.743L113.158 61.9644H112.697L111.949 60.8883H111.597V61.9644H111.228ZM111.597 60.5816H111.716C112.188 60.5816 112.426 60.3986 112.426 60.0435C112.426 59.7745 112.226 59.6399 111.835 59.6399H111.597V60.5816Z" fill="#005359"/>
<path d="M114.406 61.9644V59.3494H114.78V61.9644H114.406Z" fill="#005359"/>
<path d="M117.394 62.0288C117.228 62.0369 117.063 62.0072 116.91 61.9419C116.758 61.8766 116.623 61.7775 116.515 61.6522C116.297 61.3643 116.18 61.014 116.18 60.6541C116.18 60.2941 116.297 59.9438 116.515 59.6559C116.632 59.5385 116.772 59.4452 116.925 59.3816C117.079 59.3179 117.244 59.2852 117.41 59.2852C117.577 59.2852 117.741 59.3179 117.895 59.3816C118.048 59.4452 118.188 59.5385 118.305 59.6559C118.523 59.9447 118.641 60.2958 118.641 60.6568C118.641 61.0177 118.523 61.3688 118.305 61.6576C118.19 61.782 118.048 61.8797 117.891 61.9439C117.734 62.008 117.564 62.037 117.394 62.0288ZM117.394 61.7544C117.514 61.76 117.635 61.7365 117.744 61.6859C117.854 61.6353 117.949 61.5591 118.023 61.4639C118.183 61.2218 118.259 60.9347 118.24 60.646C118.258 60.3633 118.179 60.0829 118.017 59.8496C117.944 59.7587 117.85 59.6853 117.744 59.6349C117.638 59.5845 117.522 59.5583 117.405 59.5583C117.287 59.5583 117.171 59.5845 117.065 59.6349C116.959 59.6853 116.866 59.7587 116.792 59.8496C116.645 60.0937 116.568 60.3726 116.568 60.6568C116.568 60.9409 116.645 61.2198 116.792 61.4639C116.861 61.5581 116.953 61.6339 117.059 61.6845C117.165 61.7352 117.282 61.7592 117.399 61.7544H117.394Z" fill="#005359"/>
<path d="M27.8642 35.1791L20.2719 22.1147C19.8671 21.4146 19.6541 20.6215 19.6541 19.8144C19.6541 19.0073 19.8671 18.2142 20.2719 17.5141L27.8642 4.45506C28.2706 3.75554 28.8554 3.17447 29.5599 2.77023C30.2643 2.36598 31.0635 2.1528 31.8773 2.1521H47.0619C47.8757 2.1528 48.6749 2.36598 49.3794 2.77023C50.0838 3.17447 50.6686 3.75554 51.075 4.45506L58.6673 17.5141C59.0722 18.2142 59.2852 19.0073 59.2852 19.8144C59.2852 20.6215 59.0722 21.4146 58.6673 22.1147L51.075 35.1791C50.6675 35.8773 50.0823 36.457 49.378 36.8602C48.6737 37.2634 47.875 37.476 47.0619 37.4767H31.8773C31.0642 37.476 30.2655 37.2634 29.5612 36.8602C28.8569 36.457 28.2717 35.8773 27.8642 35.1791Z" fill="#005359"/>
<path d="M49.1607 7.24235L48.9492 7.13473L49.0468 7.21006L49.2149 7.34458V7.38763C49.1282 7.5921 49.0414 7.79656 48.9492 7.99027C48.9482 8.00819 48.9482 8.02616 48.9492 8.04408L48.7811 8.36692C48.7269 8.47454 48.6726 8.58754 48.613 8.69515L48.5425 8.81891C48.4828 8.92652 48.4177 9.03414 48.3472 9.13637L48.2767 9.24399L48.1195 9.4646L48.0219 9.58835L47.9025 9.73901L47.87 9.77668C47.767 9.90582 47.6531 10.0296 47.5392 10.1533L47.2626 9.88968L47.1487 9.78206L46.9698 9.62602L46.8559 9.52379L46.6878 9.38389L46.5685 9.29241L46.4058 9.16866L46.2865 9.08256L46.1238 8.96957L46.0099 8.89962L45.8472 8.79738C45.8111 8.78087 45.7766 8.76106 45.7442 8.7382L45.5652 8.64672L45.473 8.60368C45.3882 8.56325 45.3013 8.52733 45.2127 8.49606L44.7409 8.34002L44.5999 8.30236L44.2365 8.21088H44.1335C43.9817 8.21088 43.8352 8.15708 43.6942 8.14631H43.5966C43.461 8.14631 43.3255 8.14631 43.1953 8.14631C43.0652 8.14631 42.8645 8.14631 42.7072 8.14631H42.55L42.268 8.18398L42.1053 8.22164L41.8612 8.28083L41.704 8.32926L41.4708 8.42073L41.3352 8.47992C41.2528 8.51764 41.1731 8.56078 41.0966 8.60906L40.9881 8.66825C40.8906 8.73342 40.7965 8.80346 40.7061 8.8781C40.6194 8.95343 40.5326 9.03414 40.4512 9.12023C40.4032 9.16973 40.3579 9.22182 40.3157 9.27627L40.2126 9.39465C40.153 9.47536 40.0933 9.55069 40.0391 9.6314L40.0011 9.68521C39.9577 9.74978 39.9144 9.81973 39.8764 9.88968L39.8439 9.9381C39.8005 10.0188 39.7571 10.1049 39.7191 10.1856V10.2394C39.6866 10.3094 39.6595 10.3847 39.6324 10.4547C39.6052 10.5246 39.6324 10.4923 39.6324 10.5138C39.6324 10.5354 39.5781 10.686 39.5564 10.7721V10.8421C39.5564 10.912 39.5564 10.982 39.513 11.0519C39.5157 11.0841 39.5157 11.1165 39.513 11.1488C39.513 11.2349 39.513 11.321 39.513 11.407C39.5077 11.511 39.5077 11.6152 39.513 11.7191C39.5182 11.8165 39.5291 11.9135 39.5456 12.0097C39.5609 12.1025 39.5826 12.1942 39.6107 12.2841C39.6375 12.3792 39.6701 12.4727 39.7083 12.5639C39.7462 12.65 39.7842 12.7307 39.8276 12.8114V12.8437C39.867 12.916 39.9105 12.9861 39.9577 13.0536L40.0228 13.145C40.0554 13.1935 40.0933 13.2365 40.1313 13.2849L40.2126 13.3764C40.2669 13.4356 40.3211 13.5002 40.3807 13.5593L40.4784 13.6508L40.6519 13.8122L40.7658 13.9037L40.9502 14.049C41.0039 14.0932 41.06 14.1346 41.1183 14.1728L41.243 14.2642C41.346 14.3342 41.4437 14.4041 41.5521 14.4687C41.6606 14.5333 41.6877 14.5602 41.7582 14.6032L42.2409 14.8992H42.2951C42.4795 15.0068 42.6693 15.1198 42.8699 15.2274L43.1845 15.3996L43.3689 15.5018L43.64 15.6471H43.6888L43.9112 15.7493H43.9437L44.0088 15.7816L44.2474 15.9054L44.3504 15.9538L44.7138 16.1529L44.8277 16.2121L45.2561 16.4596L45.3971 16.5295L45.6086 16.6425L46.2105 17.0192L46.319 17.0945C46.377 17.1272 46.4332 17.1631 46.4871 17.2021C46.7312 17.3582 46.9752 17.525 47.2192 17.6971L47.5772 17.9608L47.6965 18.0577L47.8971 18.2191L48.2225 18.4989L48.4069 18.6711C48.5208 18.7733 48.6238 18.8809 48.7323 18.9885L48.8787 19.1392C49.0305 19.3006 49.1824 19.4674 49.318 19.6342C49.4981 19.8498 49.6647 20.0763 49.8169 20.3122C49.8657 20.3821 49.9091 20.4575 49.9525 20.5274C50.0609 20.6996 50.164 20.8825 50.2616 21.0655L50.2128 21.3507L50.2833 21.5121C50.3154 21.5715 50.3444 21.6326 50.37 21.695L50.4351 21.8403C50.4839 21.9479 50.5273 22.0502 50.5653 22.1578L50.6141 22.2923L50.6466 22.3676C50.6466 22.4591 50.7063 22.5452 50.7334 22.6367C50.7605 22.7281 50.793 22.8627 50.8202 22.9757V23.0402C50.8202 23.0402 50.8202 23.0402 50.8202 23.0779C50.8563 23.2321 50.8889 23.3936 50.9178 23.5622C50.9178 23.616 50.9178 23.6752 50.9178 23.729C50.9208 23.7809 50.9208 23.833 50.9178 23.885C50.9178 23.9442 50.9178 24.0034 50.9178 24.0626C50.9178 24.2132 50.9178 24.3693 50.9557 24.5253V24.5791C50.9557 24.5791 50.9557 24.6329 50.9557 24.6598C50.9557 24.6867 50.9557 24.832 50.9557 24.9181C50.9557 25.0042 50.9557 25.1764 50.9557 25.3055C50.9557 25.4347 50.9557 25.4239 50.9557 25.4831C50.9557 25.5423 50.9557 25.5369 50.9557 25.5692L50.9232 25.9566C50.9232 26.1987 50.8635 26.4355 50.8202 26.6722C50.8202 26.6722 50.8202 26.7207 50.8202 26.7476C50.8202 26.7745 50.8202 26.8337 50.793 26.8821L50.728 27.178C50.728 27.2157 50.728 27.2534 50.728 27.2964L50.6954 27.4255L50.6304 27.6461C50.6304 27.6838 50.6304 27.7269 50.6304 27.7645C50.6304 27.8022 50.5924 27.8668 50.5761 27.9206C50.5577 27.9844 50.536 28.0473 50.511 28.1089C50.5134 28.1393 50.5134 28.1699 50.511 28.2004C50.511 28.2649 50.4622 28.3295 50.4351 28.3941L50.37 28.5663V28.6201L50.2724 28.8461L50.1911 29.0182V29.0505C50.1314 29.185 50.0664 29.3142 49.9959 29.4433L49.9633 29.4971C49.8549 29.6962 49.741 29.8845 49.6217 30.0675L49.5295 30.2074L49.421 30.3742C49.3614 30.4603 49.2909 30.541 49.2312 30.6217L49.0631 30.8423C49.0419 30.8664 49.022 30.8915 49.0034 30.9176C48.8841 31.0683 48.754 31.2136 48.6238 31.3535C48.4394 31.5526 48.2496 31.7409 48.049 31.8916C47.9242 31.6978 47.7941 31.5095 47.6639 31.3212C47.6151 31.2566 47.5772 31.1921 47.5284 31.1329C47.3657 30.9069 47.1921 30.6917 46.986 30.4764L46.8667 30.3527C46.7203 30.1859 46.5685 30.0244 46.4058 29.8684L46.1834 29.6639C46.0153 29.5079 45.8526 29.3572 45.6737 29.2119C45.4947 29.0667 45.3862 28.986 45.2344 28.8783C45.0825 28.7707 44.909 28.6577 44.7409 28.5555C44.7951 28.464 44.8385 28.3672 44.8873 28.2757C44.9361 28.1842 45.012 27.9744 45.0663 27.8183L45.0988 27.7161C45.1422 27.5762 45.1802 27.4309 45.2127 27.2856C45.2452 27.1404 45.2507 27.0489 45.2615 26.9305C45.2724 26.8121 45.2615 26.7045 45.2615 26.5915C45.2641 26.5575 45.2641 26.5233 45.2615 26.4893C45.2696 26.3387 45.2696 26.1879 45.2615 26.0373V25.9189C45.2615 25.8059 45.2615 25.6929 45.2181 25.5799C45.1747 25.4669 45.2181 25.4669 45.1856 25.4131C45.1697 25.3133 45.1479 25.2145 45.1205 25.1172C45.1205 25.058 45.088 24.9988 45.0717 24.9396C45.0554 24.8804 45.0066 24.7083 44.9632 24.5953C44.9199 24.4823 44.9253 24.4876 44.909 24.4338C44.8548 24.2886 44.7897 24.1379 44.7246 23.9926L44.6921 23.9173C44.1498 22.7497 42.9459 21.6735 41.6443 20.7803L40.2885 19.8602L40.2235 19.8225H40.1855L39.8222 19.5858L39.4914 19.3652L38.7538 18.8809H38.7159L38.5749 18.7894H38.5423L38.4501 18.7302L38.3796 18.6818L38.2712 18.6119H38.2386L38.1356 18.5473H38.103L38.0054 18.4881L37.8373 18.3805L37.7777 18.3482C37.6367 18.2621 37.5065 18.1706 37.3764 18.0792L37.333 18.0469C37.2808 18.0117 37.2318 17.9721 37.1865 17.9285C36.6793 17.5051 36.2193 17.0288 35.8145 16.508C35.6898 16.3573 35.5759 16.2013 35.4674 16.0453L35.4024 15.9699L35.3535 15.8946C35.321 15.8462 35.2993 15.7924 35.2668 15.7439C35.1909 15.6094 35.1095 15.4749 35.0444 15.335C34.9794 15.1951 34.9685 15.1736 34.9305 15.0929C34.8926 15.0121 34.8167 14.8184 34.7678 14.6785L34.7136 14.5333C34.7136 14.4956 34.7136 14.4526 34.7136 14.4149C34.6757 14.2857 34.6431 14.1566 34.6106 14.0275C34.578 13.8983 34.5672 13.8391 34.5509 13.7423C34.5347 13.6454 34.4859 13.4464 34.4859 13.2795L34.4533 12.9997C34.4533 12.8383 34.4533 12.6715 34.4533 12.5047C34.4533 12.424 34.4533 12.3433 34.4533 12.2572C34.4533 12.0061 34.4696 11.7478 34.5021 11.4824V11.3748C34.5021 11.2564 34.5401 11.1326 34.5618 11.0089C34.5644 10.9965 34.5644 10.9836 34.5618 10.9712C34.5943 10.8259 34.6269 10.6806 34.6648 10.5354V10.4869C34.6974 10.3578 34.7407 10.2287 34.7841 10.0941C34.8275 9.95963 34.8221 9.96501 34.8438 9.90044C34.9143 9.70135 34.9902 9.49688 35.077 9.28703C35.077 9.24937 35.1149 9.20632 35.1312 9.16327L33.5585 6.4729V23.4115C33.5585 23.6752 33.5585 23.9496 33.591 24.1917C33.5884 24.2095 33.5884 24.2277 33.591 24.2455C33.591 24.4823 33.6344 24.7083 33.6724 24.9343C33.6724 24.9827 33.6724 25.0257 33.6724 25.0741C33.6724 25.2356 33.7375 25.4024 33.7754 25.5638C33.8134 25.7252 33.8134 25.7467 33.8405 25.8328C33.8947 26.0427 33.9544 26.2525 34.0249 26.4516C34.0954 26.6507 34.193 26.9197 34.2906 27.1404C34.3665 27.3125 34.4479 27.474 34.5292 27.6354C34.6106 27.7968 34.6974 27.9475 34.7895 28.0981L34.9143 28.308C35.0499 28.5232 35.1963 28.7277 35.3481 28.9268C35.5 29.1259 35.5705 29.1797 35.6789 29.3034L35.7982 29.4326C35.9338 29.5725 36.0748 29.707 36.2158 29.8307C36.3642 29.958 36.5199 30.0766 36.6822 30.1859C36.8464 30.2988 37.0166 30.403 37.192 30.4979C37.3401 30.5677 37.4922 30.6288 37.6475 30.6809L37.7505 30.7186C37.9285 30.7783 38.1095 30.8286 38.2928 30.8692H38.3634C38.5477 30.9123 38.7321 30.9499 38.9057 30.9768C39.1141 31.0093 39.324 31.0308 39.5347 31.0414H40.0282H40.1313H40.5922C40.717 31.0414 40.8417 31.0414 40.9664 31.0037H41.0369L41.4545 30.9338H41.5467L41.8884 30.8477H41.9426C42.0619 30.81 42.1812 30.767 42.2951 30.7186L42.3819 30.6863L42.6693 30.5571L42.7344 30.5248L43.0543 30.3365L43.179 30.245C43.255 30.1912 43.3309 30.1428 43.4014 30.0836C43.4719 30.0244 43.5858 29.9276 43.6725 29.8469L43.7647 29.7554L43.9383 29.5778L44.0576 29.6585L44.1769 29.7393L44.383 29.8845L44.4535 29.933L44.6975 30.1267L44.806 30.2128C44.9415 30.3311 45.0771 30.4441 45.2073 30.5679L45.2724 30.6325C45.4188 30.7724 45.5544 30.9123 45.6899 31.0575C45.7496 31.1167 45.8201 31.1813 45.8797 31.2459L45.9177 31.2943L46.0587 31.4557C46.1455 31.5633 46.2377 31.6656 46.3244 31.7678L46.4329 31.9185L46.5468 32.0691C46.6986 32.2736 46.8396 32.4834 46.9752 32.6933C46.7745 32.8332 46.5685 32.9731 46.357 33.1022L46.2973 33.1345L46.2105 33.1829C45.9828 33.3175 45.7496 33.4466 45.511 33.5596C45.2724 33.6726 44.9687 33.8502 44.6921 33.9793L44.448 34.0869L44.1444 34.2214L43.6509 34.4044C43.4556 34.4743 43.2604 34.5389 43.0652 34.5927L42.7994 34.6626L42.6422 34.7057C42.3656 34.7703 42.0999 34.8294 41.8016 34.8779H41.6443C41.3569 34.9209 41.064 34.9586 40.7658 34.9855C40.4187 34.9855 40.0716 35.0285 39.7137 35.0285C39.4968 35.0285 39.2799 35.0285 39.0683 35.0285H38.8569L38.4339 34.9963H38.3742L38.0814 34.9586H37.8644L37.4631 34.8833H37.3004L36.7581 34.7595H36.6605L36.2429 34.6411C36.1128 34.6035 35.9826 34.5604 35.8579 34.512L35.6735 34.4528C35.4891 34.3828 35.2993 34.3075 35.1312 34.2268C34.8112 34.0869 34.4967 33.9362 34.193 33.7694L33.9435 33.5219C33.7266 33.4 33.5151 33.2708 33.309 33.1345L33.027 32.9516C32.8065 32.7937 32.5896 32.6323 32.3763 32.4673L32.2027 32.3328C32.187 32.3218 32.1724 32.3092 32.1594 32.2951C31.8947 32.0765 31.6413 31.8449 31.4001 31.601C31.1504 31.3659 30.9133 31.1181 30.6897 30.8585L30.5433 30.6917L30.4185 30.541C30.3101 30.4011 30.207 30.2558 30.104 30.1105L34.4099 37.4929H47.0837C47.8968 37.4922 48.6955 37.2796 49.3998 36.8764C50.104 36.4732 50.6892 35.8935 51.0967 35.1953L58.2281 22.8196L49.1607 7.24235Z" fill="#00484C"/>
<path d="M44.9362 30.0458C44.6863 29.852 44.4255 29.6724 44.1552 29.5077C43.9852 29.6856 43.8041 29.8527 43.6129 30.0081C42.6766 30.765 41.3822 31.1022 39.73 31.0197C38.9166 30.9892 38.1162 30.8067 37.371 30.4816C36.638 30.0762 35.9959 29.527 35.4837 28.8674C34.9011 28.1164 34.4484 27.2745 34.1442 26.3761C33.8081 25.3921 33.6413 24.3589 33.6507 23.3199V22.7818V6.28442C33.141 6.49427 32.6366 6.7095 32.1323 6.95702C30.6475 7.70598 29.2599 8.63107 27.9999 9.71196V13.2363H27.9674V23.1531C27.9556 24.7397 28.275 26.3116 28.9055 27.7697C29.1104 28.2286 29.3441 28.6743 29.6051 29.1042C30.0883 29.9933 30.7004 30.8073 31.4219 31.5201C31.9365 32.0274 32.5016 32.4817 33.1084 32.8761C33.7887 33.3434 34.5156 33.7401 35.2777 34.0598C36.7392 34.6875 38.3164 35.0064 39.909 34.9961C41.2604 35.0049 42.6032 34.7829 43.8787 34.3396C44.5262 34.1133 45.1523 33.8306 45.7496 33.4949C46.2623 33.251 46.7555 32.9686 47.2247 32.6501C46.6113 31.6631 45.8381 30.7832 44.9362 30.0458Z" fill="white"/>
<path d="M49.3776 19.6232C48.7576 18.8816 48.043 18.2232 47.2517 17.6646C46.7094 17.2933 46.1671 16.949 45.6248 16.6261L45.4133 16.5131L45.2669 16.4432C45.0879 16.3409 44.909 16.2279 44.7246 16.1311L43.64 15.5661H43.602L43.1465 15.3132C42.5282 14.9796 41.9805 14.6621 41.5195 14.3554C41.096 14.0903 40.7016 13.7819 40.3427 13.4353C40.0502 13.1499 39.8146 12.8122 39.6486 12.4399C39.4937 12.0633 39.427 11.6567 39.4533 11.2508C39.5263 10.3915 39.9027 9.58541 40.5163 8.9747C40.8744 8.60846 41.3076 8.32284 41.7867 8.13717C42.2657 7.95151 42.7794 7.87013 43.2929 7.89855C43.9877 7.91317 44.6744 8.0498 45.3211 8.3021C46.2145 8.69664 47.0007 9.29599 47.6151 10.0508L47.653 10.0132C48.0488 9.60409 48.393 9.14877 48.678 8.65723C48.9502 8.18254 49.1893 7.68995 49.3939 7.18291C48.591 6.48882 47.6857 5.92084 46.7094 5.49873C45.691 5.05776 44.5985 4.80957 43.4881 4.76695C42.1202 4.66711 40.7462 4.85034 39.4533 5.30503C38.4487 5.67056 37.527 6.23019 36.7418 6.95154C36.0698 7.57532 35.5376 8.33249 35.18 9.17378C34.8725 9.87554 34.6645 10.6161 34.5617 11.3745C34.4241 12.2597 34.4735 13.1636 34.7069 14.0288C34.9403 14.894 35.3526 15.7015 35.9175 16.4001C36.3032 16.8687 36.7317 17.301 37.1973 17.6915C37.3855 17.8442 37.5849 17.9827 37.7939 18.1058C38.0379 18.2511 39.269 19.0582 40.3698 19.7792L41.7365 20.6994C43.0434 21.6033 44.2474 22.6795 44.7951 23.8579C45.3411 24.9075 45.5295 26.1044 45.332 27.2692C45.2476 27.7175 45.0881 28.1485 44.8602 28.5445C45.1861 28.746 45.4994 28.967 45.7984 29.2063C46.7363 29.9618 47.5361 30.8719 48.1628 31.8967C48.9577 31.1798 49.6234 30.3337 50.1314 29.3946C50.7838 28.155 51.154 26.7885 51.216 25.3914C51.2864 24.2974 51.1389 23.2004 50.7822 22.1629C50.4642 21.2427 49.989 20.3836 49.3776 19.6232Z" fill="#00A78D"/>
<path d="M62.328 30.498L59.9744 26.4678C59.8492 26.2537 59.7832 26.0105 59.7832 25.7629C59.7832 25.5153 59.8492 25.2722 59.9744 25.058L62.3063 21.044C62.4324 20.8295 62.6129 20.6516 62.8298 20.5279C63.0468 20.4043 63.2926 20.3392 63.5428 20.3391H68.2121C68.4616 20.339 68.7067 20.4041 68.9228 20.5278C69.1389 20.6516 69.3184 20.8296 69.4431 21.044L71.7805 25.058C71.9057 25.2722 71.9717 25.5153 71.9717 25.7629C71.9717 26.0105 71.9057 26.2537 71.7805 26.4678L69.4648 30.498C69.3401 30.7123 69.1606 30.8904 68.9445 31.0141C68.7284 31.1378 68.4833 31.2029 68.2338 31.2028H63.5645C63.3143 31.2028 63.0685 31.1377 62.8515 31.014C62.6346 30.8903 62.4541 30.7124 62.328 30.498Z" fill="#00A78D"/>
<path d="M67.6423 22.5505C67.5888 22.4621 67.529 22.3775 67.4633 22.2976C67.6293 22.72 67.6272 23.1891 67.4575 23.61C67.2878 24.0308 66.9632 24.3719 66.5494 24.5642C66.1357 24.7565 65.6638 24.7855 65.2293 24.6453C64.7948 24.5052 64.4302 24.2065 64.2095 23.8096V23.8365L64.9199 25.1171C64.1035 25.6129 63.394 26.2639 62.832 27.0327L62.9676 28.5177L62.8483 28.7222L64.2908 31.1974H68.2334C68.4824 31.198 68.7272 31.1337 68.9432 31.011C69.1593 30.8882 69.339 30.7113 69.4644 30.4979L70.8636 28.098L67.6423 22.5505Z" fill="#00967F"/>
<path d="M65.8042 24.7889C66.8015 24.7889 67.6101 23.9867 67.6101 22.9971C67.6101 22.0075 66.8015 21.2053 65.8042 21.2053C64.8068 21.2053 63.9983 22.0075 63.9983 22.9971C63.9983 23.9867 64.8068 24.7889 65.8042 24.7889Z" fill="white"/>
<path d="M66.4819 29.3626C66.4927 28.8401 66.5936 28.3232 66.7802 27.8345L66.2921 26.8175H66.509C66.7457 26.8085 66.9818 26.8469 67.2032 26.9305C67.3893 27.0158 67.5555 27.1386 67.6912 27.291L67.8431 27.248C67.9439 27.2346 68.046 27.2346 68.1468 27.248C68.2349 27.2346 68.3245 27.2346 68.4125 27.248C68.4639 27.2594 68.5146 27.2738 68.5644 27.291C68.661 27.1902 68.7683 27.1 68.8843 27.022C68.7648 26.569 68.5211 26.1578 68.1803 25.8339C67.8395 25.5101 67.4149 25.2862 66.9537 25.1871C67.2686 25.4709 67.4818 25.8486 67.5611 26.2633C67.6362 26.2782 67.7038 26.3186 67.7522 26.3775C67.8007 26.4364 67.8271 26.5101 67.8268 26.5861C67.8277 26.6465 67.8124 26.706 67.7823 26.7585C67.7523 26.811 67.7087 26.8546 67.656 26.8847C67.6033 26.9149 67.5434 26.9306 67.4826 26.9301C67.4217 26.9296 67.3621 26.913 67.3099 26.8821C67.2577 26.8511 67.2147 26.8068 67.1855 26.7539C67.1563 26.7009 67.1419 26.6412 67.1437 26.5809C67.1455 26.5205 67.1636 26.4618 67.196 26.4107C67.2283 26.3596 67.2739 26.318 67.3279 26.2902C67.2819 26.0218 67.1633 25.7709 66.9847 25.5643C66.806 25.3576 66.5741 25.2031 66.3138 25.1172H65.3376C65.1621 25.1719 65.0035 25.27 64.8767 25.4024C64.5539 25.8154 64.387 26.3275 64.4049 26.8498C64.6238 26.9379 64.8043 27.0999 64.9146 27.3072C65.0436 27.5493 65.0709 27.8321 64.9906 28.0941C64.9104 28.3561 64.7291 28.5761 64.4862 28.7061H64.432C64.4038 28.7088 64.3756 28.7014 64.3525 28.6853C64.3293 28.6692 64.3126 28.6454 64.3055 28.6183C64.2983 28.5911 64.3011 28.5623 64.3133 28.537C64.3256 28.5117 64.3465 28.4916 64.3723 28.4802C64.4657 28.432 64.5483 28.3658 64.6154 28.2854C64.6825 28.205 64.7326 28.112 64.7628 28.012C64.8219 27.811 64.8005 27.5951 64.7031 27.4094C64.6536 27.3175 64.5864 27.2362 64.5052 27.1702C64.4241 27.1041 64.3306 27.0545 64.2301 27.0243C64.1297 26.9941 64.0242 26.9838 63.9197 26.994C63.8152 27.0042 63.7138 27.0347 63.6212 27.0839C63.5287 27.133 63.4467 27.1997 63.3801 27.2802C63.3135 27.3607 63.2636 27.4535 63.2331 27.5532C63.2027 27.6528 63.1923 27.7575 63.2026 27.8612C63.2129 27.9648 63.2436 28.0655 63.2931 28.1573C63.3007 28.1711 63.3055 28.1862 63.3071 28.2018C63.3088 28.2174 63.3073 28.2331 63.3028 28.2481C63.2982 28.2632 63.2907 28.2771 63.2807 28.2893C63.2706 28.3014 63.2583 28.3114 63.2443 28.3187C63.2154 28.3321 63.1825 28.334 63.1522 28.324C63.1219 28.314 63.0967 28.2928 63.0816 28.2649C62.9888 28.0959 62.9459 27.9042 62.958 27.712C62.9701 27.5199 63.0367 27.335 63.15 27.1787C63.2633 27.0224 63.4188 26.901 63.5986 26.8285C63.7784 26.7561 63.9752 26.7355 64.1663 26.7691C64.1574 26.2069 64.3495 25.6598 64.7086 25.2248L64.8116 25.1387C64.4025 25.2027 64.0152 25.3644 63.6831 25.6099C63.351 25.8555 63.0841 26.1774 62.9053 26.5481C62.7265 26.9188 62.6412 27.327 62.6568 27.7376C62.6725 28.1483 62.7885 28.549 62.9949 28.9052L63.2931 29.4433C63.3573 29.5497 63.428 29.6521 63.5046 29.75H66.5307C66.5058 29.6221 66.4895 29.4927 66.4819 29.3626Z" fill="white"/>
<path d="M69.4756 29.3302C69.4214 29.7929 69.378 30.1265 68.7489 30.2503C68.5597 30.2901 68.3673 30.3135 68.174 30.3202H68.0656C67.8723 30.3126 67.6801 30.2892 67.4907 30.2503C66.8562 30.1265 66.8183 29.7929 66.7586 29.3086C66.782 28.818 66.8864 28.3345 67.0677 27.8774V27.8182L66.7261 27.1025C66.8381 27.1125 66.9479 27.1398 67.0515 27.1832C67.2259 27.2675 67.3796 27.3887 67.5016 27.5384L67.5721 27.6245L67.6805 27.576C67.7433 27.5506 67.8088 27.5325 67.8758 27.5222C67.9549 27.5103 68.0353 27.5103 68.1144 27.5222C68.1827 27.5116 68.2522 27.5116 68.3205 27.5222C68.3874 27.5325 68.453 27.5506 68.5157 27.576L68.6187 27.6298L68.6947 27.5384C68.8156 27.3898 68.9672 27.2687 69.1393 27.1832C69.2449 27.14 69.3564 27.1128 69.4702 27.1025L69.1502 27.8074V27.8666C69.3384 28.3336 69.4483 28.828 69.4756 29.3302ZM68.7868 29.8144C68.6644 29.8864 68.5183 29.9076 68.3801 29.8736C68.3428 29.8534 68.3106 29.825 68.2862 29.7904C68.2617 29.7559 68.2456 29.7162 68.2391 29.6745V29.5938C68.5265 29.5562 68.7435 29.4001 68.7435 29.2118C68.7435 29.0235 68.456 28.8298 68.109 28.8298C67.7619 28.8298 67.4745 29.0019 67.4745 29.2118C67.4745 29.4216 67.6914 29.5562 67.9788 29.5938C67.9788 29.6261 67.9788 29.6476 67.9788 29.6745C67.9712 29.7159 67.9547 29.7551 67.9303 29.7894C67.906 29.8238 67.8744 29.8525 67.8378 29.8736C67.6997 29.9076 67.5536 29.8864 67.4311 29.8144C67.4044 29.7983 67.3724 29.7933 67.342 29.8003C67.3116 29.8073 67.2851 29.8259 67.2684 29.8521C67.2598 29.8653 67.2541 29.8802 67.2517 29.8957C67.2492 29.9113 67.2501 29.9271 67.2541 29.9423C67.2582 29.9575 67.2655 29.9717 67.2754 29.984C67.2853 29.9962 67.2977 30.0063 67.3118 30.0135C67.4376 30.0852 67.579 30.1258 67.7239 30.1319C67.7986 30.1338 67.8727 30.1191 67.9408 30.0889C68.0049 30.0572 68.0621 30.0133 68.109 29.9597C68.1502 30.0179 68.2057 30.0647 68.2702 30.0958C68.3347 30.1268 68.4061 30.1411 68.4777 30.1373C68.6243 30.1306 68.7673 30.09 68.8953 30.0189C68.9217 30.0023 68.9404 29.9761 68.9475 29.9459C68.9546 29.9157 68.9495 29.884 68.9333 29.8575C68.9186 29.8336 68.8955 29.816 68.8684 29.808C68.8414 29.8 68.8123 29.8023 68.7868 29.8144ZM68.4723 28.5822C68.5098 28.5822 68.5466 28.5712 68.5778 28.5505C68.609 28.5298 68.6333 28.5004 68.6477 28.466C68.662 28.4316 68.6658 28.3937 68.6585 28.3572C68.6511 28.3206 68.6331 28.2871 68.6065 28.2608C68.58 28.2344 68.5462 28.2165 68.5093 28.2092C68.4725 28.2019 68.4344 28.2057 68.3997 28.2199C68.365 28.2342 68.3353 28.2583 68.3145 28.2893C68.2936 28.3203 68.2825 28.3567 68.2825 28.3939C68.2825 28.4439 68.3025 28.4918 68.3381 28.5271C68.3737 28.5624 68.422 28.5822 68.4723 28.5822ZM67.7673 28.5822C67.8048 28.5822 67.8415 28.5712 67.8728 28.5505C67.904 28.5298 67.9283 28.5004 67.9427 28.466C67.957 28.4316 67.9608 28.3937 67.9535 28.3572C67.9461 28.3206 67.9281 28.2871 67.9015 28.2608C67.875 28.2344 67.8412 28.2165 67.8043 28.2092C67.7675 28.2019 67.7294 28.2057 67.6947 28.2199C67.66 28.2342 67.6303 28.2583 67.6095 28.2893C67.5886 28.3203 67.5775 28.3567 67.5775 28.3939C67.5775 28.4439 67.5975 28.4918 67.6331 28.5271C67.6687 28.5624 67.717 28.5822 67.7673 28.5822Z" fill="white"/>
<path d="M72.8379 24.6488L70.5005 20.6348C70.3753 20.4206 70.3093 20.1775 70.3093 19.9299C70.3093 19.6823 70.3753 19.4391 70.5005 19.225L72.8379 15.211C72.9635 14.9962 73.1439 14.8179 73.3609 14.6942C73.578 14.5705 73.824 14.5056 74.0743 14.5061H78.7436C78.9938 14.5062 79.2396 14.5713 79.4566 14.6949C79.6735 14.8186 79.854 14.9965 79.9801 15.211L82.312 19.225C82.4372 19.4391 82.5032 19.6823 82.5032 19.9299C82.5032 20.1775 82.4372 20.4206 82.312 20.6348L79.9801 24.6488C79.854 24.8633 79.6735 25.0412 79.4566 25.1649C79.2396 25.2885 78.9938 25.3536 78.7436 25.3537H74.0743C73.824 25.3542 73.578 25.2893 73.3609 25.1656C73.1439 25.0418 72.9635 24.8636 72.8379 24.6488Z" fill="#00A78D"/>
<path d="M78.1469 16.7177C78.0973 16.6282 78.0392 16.5435 77.9734 16.4648C78.1393 16.8872 78.1372 17.3563 77.9675 17.7772C77.7978 18.1981 77.4732 18.5392 77.0595 18.7314C76.6458 18.9237 76.1738 18.9527 75.7393 18.8126C75.3049 18.6725 74.9403 18.3737 74.7195 17.9768V18.0037L75.4462 19.2736C74.6326 19.7709 73.9251 20.4217 73.3638 21.1891L73.4993 22.6742L73.38 22.8787L74.8226 25.3538H78.7597C79.01 25.3538 79.2558 25.2887 79.4727 25.165C79.6897 25.0413 79.8702 24.8634 79.9962 24.649L81.39 22.2491L78.1469 16.7177Z" fill="#00967F"/>
<path d="M76.2435 23.901H74.0255C73.9488 23.8031 73.8782 23.7007 73.814 23.5943L73.5157 23.0562C73.3173 22.717 73.2011 22.3367 73.1764 21.9452C73.1516 21.5538 73.219 21.162 73.3731 20.8008C73.5272 20.4397 73.7639 20.119 74.0644 19.8642C74.365 19.6094 74.7211 19.4275 75.1047 19.3328L75.4897 20.2044C75.4956 20.2163 75.5039 20.2268 75.5142 20.2351C75.5245 20.2435 75.5365 20.2495 75.5494 20.2529C75.5605 20.2578 75.5725 20.2603 75.5846 20.2603C75.5968 20.2603 75.6088 20.2578 75.6199 20.2529L76.2435 19.7955V23.901ZM74.8823 21.4582C74.8823 21.512 74.8823 21.5765 74.9149 21.6303C74.9228 21.6897 74.9392 21.7477 74.9637 21.8025C74.9684 21.8181 74.9764 21.8324 74.9872 21.8446C74.998 21.8568 75.0113 21.8666 75.0262 21.8732C75.0411 21.8798 75.0573 21.8832 75.0737 21.8831C75.09 21.883 75.1061 21.8793 75.121 21.8725C75.1559 21.865 75.1876 21.8471 75.2119 21.8211C75.2362 21.7951 75.2517 21.7623 75.2565 21.7272C75.2619 21.6573 75.2619 21.5872 75.2565 21.5173C75.2545 21.3955 75.2969 21.2771 75.3758 21.1837C75.4475 21.0957 75.4841 20.9847 75.4789 20.8717C75.4811 20.8225 75.4732 20.7734 75.4556 20.7275C75.438 20.6815 75.4111 20.6396 75.3765 20.6043C75.342 20.569 75.3005 20.5411 75.2547 20.5223C75.2089 20.5035 75.1597 20.4942 75.1101 20.495C75.0095 20.4878 74.9087 20.5064 74.8173 20.5488H74.7902C74.6723 20.498 74.5409 20.4866 74.416 20.5165C74.3538 20.5287 74.2966 20.5586 74.2513 20.6026C74.206 20.6465 74.1747 20.7026 74.1611 20.764C74.1409 20.8391 74.1392 20.9179 74.1562 20.9938C74.1732 21.0696 74.2084 21.1403 74.2587 21.1999C74.3299 21.2909 74.3699 21.4022 74.3726 21.5173C74.3726 21.5819 74.3726 21.6465 74.3726 21.7111C74.373 21.7383 74.3793 21.7651 74.3911 21.7897C74.403 21.8143 74.4201 21.836 74.4412 21.8534C74.4623 21.8708 74.487 21.8835 74.5136 21.8905C74.5401 21.8975 74.5679 21.8987 74.5949 21.894C74.6181 21.8836 74.6386 21.868 74.6546 21.8484C74.6706 21.8288 74.6817 21.8057 74.6871 21.781L74.7197 21.6519L74.7522 21.4797C74.7529 21.4619 74.7583 21.4446 74.7678 21.4295C74.7773 21.4144 74.7906 21.402 74.8064 21.3936C74.8498 21.4044 74.8552 21.4043 74.8661 21.4582H74.8823ZM74.8823 20.6349C74.9464 20.603 75.0189 20.5916 75.0898 20.6022C75.1606 20.6128 75.2265 20.6449 75.2782 20.6941C75.3117 20.7349 75.3342 20.7834 75.3437 20.8352C75.3531 20.8869 75.3493 20.9402 75.3325 20.99C75.3213 21.0435 75.2971 21.0933 75.262 21.1353C75.1781 21.2304 75.1335 21.3534 75.1372 21.4797C75.1399 21.5281 75.1399 21.5766 75.1372 21.625C75.1372 21.6626 75.1372 21.7057 75.0938 21.7326H75.0342C75.0179 21.7164 75.0052 21.697 74.9968 21.6757C74.9884 21.6544 74.9845 21.6317 74.9854 21.6088C74.9883 21.5568 74.9883 21.5048 74.9854 21.4528C74.9804 21.4171 74.9694 21.3826 74.9528 21.3505C74.9426 21.3217 74.9234 21.2969 74.8981 21.2795C74.8728 21.2621 74.8426 21.2531 74.8118 21.2537C74.782 21.2542 74.753 21.2637 74.7288 21.2811C74.7045 21.2984 74.6862 21.3226 74.6763 21.3505C74.6466 21.4261 74.6301 21.5062 74.6275 21.5873V21.6842C74.6185 21.7015 74.6076 21.7177 74.5949 21.7326C74.5699 21.7302 74.5464 21.7192 74.5286 21.7015C74.5108 21.6839 74.4997 21.6606 74.4973 21.6357C74.4973 21.5981 74.4973 21.555 74.4973 21.512C74.4973 21.4689 74.4973 21.3936 74.4973 21.3344C74.4868 21.2632 74.4568 21.1962 74.4105 21.1407C74.3627 21.0885 74.3296 21.0247 74.3143 20.9558C74.2991 20.8869 74.3024 20.8152 74.3238 20.7479C74.3388 20.6962 74.37 20.6506 74.4129 20.6177C74.4558 20.5848 74.5082 20.5663 74.5624 20.565C74.6473 20.5655 74.7309 20.5857 74.8064 20.6241L74.9528 20.6995H75.045L74.8823 20.6349Z" fill="white"/>
<path d="M75.5872 20.0593L76.2597 19.5642H76.3627L77.0352 20.0593L77.3605 19.3167C77.2118 19.2912 77.0613 19.2768 76.9104 19.2737H75.7011C75.5502 19.2768 75.3997 19.2912 75.251 19.3167L75.5872 20.0593Z" fill="white"/>
<path d="M79.1231 23.0778L78.8248 23.6158C78.7606 23.7222 78.69 23.8246 78.6133 23.9225H76.3953V19.8009L77.0189 20.2582C77.03 20.2631 77.042 20.2657 77.0542 20.2657C77.0663 20.2657 77.0783 20.2631 77.0894 20.2582C77.1023 20.2549 77.1143 20.2489 77.1246 20.2405C77.1349 20.2322 77.1432 20.2217 77.1491 20.2098L77.5341 19.3381C77.9201 19.4321 78.2785 19.6143 78.5809 19.8701C78.8833 20.126 79.1211 20.4485 79.2755 20.8118C79.4299 21.1752 79.4965 21.5693 79.4701 21.9627C79.4436 22.3562 79.3248 22.738 79.1231 23.0778ZM78.4126 20.5757C78.3926 20.4711 78.3364 20.3768 78.2537 20.3089C78.171 20.241 78.0671 20.2039 77.9598 20.2039C77.8525 20.2039 77.7486 20.241 77.6659 20.3089C77.5833 20.3768 77.5271 20.4711 77.507 20.5757C77.4636 20.8286 77.5938 21.0169 77.8975 21.1138C77.8234 21.3981 77.7977 21.6927 77.8215 21.9855C77.9122 22.0092 78.0075 22.0092 78.0981 21.9855C78.1223 21.6942 78.0948 21.401 78.0168 21.1192C78.2988 21.0115 78.4398 20.8125 78.4126 20.5757ZM77.6534 20.6457C77.6523 20.5846 77.6697 20.5245 77.7032 20.4733C77.7368 20.422 77.785 20.3819 77.8417 20.358C77.8984 20.3341 77.961 20.3276 78.0215 20.3393C78.0819 20.3509 78.1375 20.3802 78.1811 20.4235C78.2246 20.4667 78.2542 20.5218 78.2659 20.5818C78.2777 20.6418 78.2711 20.7039 78.247 20.7602C78.223 20.8164 78.1825 20.8642 78.1308 20.8975C78.0792 20.9308 78.0187 20.948 77.9571 20.947C77.9165 20.9477 77.8762 20.9405 77.8384 20.9257C77.8006 20.9109 77.7661 20.8889 77.7369 20.861C77.7077 20.833 77.6844 20.7996 77.6682 20.7626C77.652 20.7257 77.6433 20.6859 77.6426 20.6457H77.6534ZM76.981 20.9846C77.0109 21.0178 77.0324 21.0575 77.0437 21.1006C77.055 21.1436 77.0558 21.1887 77.046 21.2322C77.046 21.2698 77.046 21.3075 77.046 21.3452C77.027 21.5474 77.027 21.7509 77.046 21.9532C77.046 21.9532 77.046 21.9532 77.046 21.9855C77.1377 21.9989 77.2309 21.9989 77.3226 21.9855C77.3459 21.6895 77.3221 21.3917 77.2521 21.103C77.1545 20.9524 77.0189 20.834 76.9321 20.6726L77.0135 20.6026L77.3985 20.3121C77.3985 20.3121 77.4365 20.2798 77.3985 20.2582C77.1834 20.3666 76.9798 20.4964 76.7911 20.6457V20.7102L76.981 20.9846Z" fill="white"/>
<path d="M62.3279 18.6064L59.9743 14.5924C59.8491 14.3772 59.7832 14.1332 59.7832 13.8848C59.7832 13.6364 59.8491 13.3924 59.9743 13.1772L62.3062 9.1632C62.4313 8.94156 62.614 8.75727 62.8353 8.62951C63.0566 8.50175 63.3083 8.4352 63.5644 8.4368H68.2336C68.4831 8.4367 68.7283 8.50179 68.9444 8.62553C69.1605 8.74927 69.3399 8.92728 69.4647 9.14167L71.802 13.1557C71.9272 13.3708 71.9931 13.6149 71.9931 13.8633C71.9931 14.1117 71.9272 14.3557 71.802 14.5709L69.4647 18.6064C69.3399 18.8208 69.1605 18.9988 68.9444 19.1226C68.7283 19.2463 68.4831 19.3114 68.2336 19.3113H63.5644C63.3142 19.3112 63.0683 19.2461 62.8514 19.1225C62.6344 18.9988 62.454 18.8209 62.3279 18.6064Z" fill="#00A78D"/>
<path d="M67.6426 10.6699C67.5892 10.5831 67.5293 10.5004 67.4636 10.4224C67.6296 10.8447 67.6275 11.3138 67.4578 11.7347C67.2881 12.1556 66.9635 12.4967 66.5497 12.689C66.136 12.8812 65.6641 12.9102 65.2296 12.7701C64.7951 12.63 64.4305 12.3312 64.2098 11.9344L64.9419 13.2096C64.1243 13.7037 63.4144 14.355 62.854 15.1251L62.9896 16.6102L62.8703 16.8093L64.3128 19.3114H68.2554C68.5055 19.3115 68.7512 19.2458 68.9675 19.121C69.1837 18.9963 69.3628 18.8169 69.4864 18.6011L70.8856 16.2067L67.6426 10.6699Z" fill="#00967F"/>
<path d="M66.9429 13.2794C67.2638 13.5608 67.4829 13.9388 67.5665 14.3556C67.6417 14.3705 67.7092 14.4109 67.7577 14.4698C67.8062 14.5287 67.8325 14.6024 67.8323 14.6784C67.8323 14.7229 67.8234 14.767 67.8063 14.8081C67.7891 14.8493 67.7639 14.8866 67.7322 14.9181C67.7005 14.9496 67.6628 14.9746 67.6214 14.9916C67.5799 15.0086 67.5355 15.0174 67.4906 15.0174C67.4458 15.0174 67.4013 15.0086 67.3599 14.9916C67.3184 14.9746 67.2808 14.9496 67.249 14.9181C67.2173 14.8866 67.1921 14.8493 67.175 14.8081C67.1578 14.767 67.149 14.7229 67.149 14.6784C67.149 14.6177 67.1664 14.5582 67.199 14.5068C67.2316 14.4554 67.2782 14.4142 67.3334 14.3879C67.2898 14.1195 67.1734 13.8681 66.9966 13.6605C66.8199 13.4528 66.5894 13.2969 66.3301 13.2095H66.0155L66.3789 15.5178L65.8366 16.4164L65.2943 15.5178L65.6576 13.2095H65.3865C65.2127 13.2653 65.0547 13.3612 64.9255 13.4893C64.6032 13.9025 64.4363 14.4144 64.4537 14.9367C64.6346 15.0122 64.7901 15.1371 64.9021 15.2969C65.0142 15.4567 65.0782 15.6448 65.0868 15.8393C65.0953 16.0338 65.048 16.2267 64.9503 16.3956C64.8526 16.5644 64.7086 16.7023 64.5351 16.7931C64.5173 16.7979 64.4986 16.7979 64.4808 16.7931C64.4587 16.7923 64.4371 16.786 64.4181 16.7747C64.3992 16.7634 64.3834 16.7475 64.3724 16.7285C64.3648 16.7147 64.36 16.6996 64.3584 16.684C64.3567 16.6684 64.3582 16.6527 64.3627 16.6376C64.3673 16.6226 64.3748 16.6087 64.3848 16.5965C64.3948 16.5844 64.4072 16.5744 64.4212 16.5671C64.5145 16.5184 64.5973 16.4519 64.6645 16.3713C64.7318 16.2907 64.7823 16.1976 64.813 16.0975C64.8438 15.9974 64.8543 15.8923 64.8438 15.7881C64.8333 15.684 64.8021 15.583 64.752 15.4909C64.6527 15.3054 64.4833 15.1666 64.2809 15.105C64.0785 15.0435 63.8598 15.0642 63.6728 15.1627C63.4858 15.2612 63.3459 15.4293 63.2839 15.6301C63.2218 15.8309 63.2427 16.0479 63.342 16.2335C63.3496 16.2472 63.3543 16.2623 63.356 16.2779C63.3576 16.2935 63.3561 16.3093 63.3516 16.3243C63.347 16.3393 63.3395 16.3533 63.3295 16.3654C63.3195 16.3775 63.3071 16.3875 63.2932 16.3949C63.2793 16.4024 63.2641 16.4071 63.2484 16.4088C63.2326 16.4104 63.2168 16.4089 63.2016 16.4044C63.1865 16.3999 63.1724 16.3925 63.1602 16.3825C63.148 16.3726 63.1379 16.3603 63.1305 16.3465C63.0406 16.1768 63 15.9857 63.0133 15.7945C63.0266 15.6032 63.0932 15.4195 63.2058 15.2637C63.3183 15.1079 63.4723 14.9862 63.6506 14.9123C63.8288 14.8384 64.0243 14.8152 64.2151 14.8452C64.2075 14.2849 64.3995 13.7399 64.7574 13.3063L64.8604 13.2202C64.4513 13.2842 64.064 13.4459 63.7319 13.6915C63.3998 13.937 63.1329 14.259 62.9541 14.6296C62.7753 15.0003 62.6901 15.4085 62.7057 15.8192C62.7213 16.2298 62.8373 16.6305 63.0437 16.9868L63.342 17.5248C63.4062 17.6312 63.4768 17.7336 63.5535 17.8315H68.1089C68.1837 17.7335 68.2526 17.6311 68.3149 17.5248L68.6186 16.9868C68.8122 16.6421 68.922 16.2573 68.9393 15.8631C68.9565 15.4688 68.8808 15.0761 68.718 14.716C68.5553 14.356 68.3101 14.0386 68.0019 13.7892C67.6937 13.5398 67.3311 13.3652 66.9429 13.2794Z" fill="white"/>
<path d="M65.8042 12.9137C66.8015 12.9137 67.6101 12.1114 67.6101 11.1219C67.6101 10.1323 66.8015 9.33008 65.8042 9.33008C64.8068 9.33008 63.9983 10.1323 63.9983 11.1219C63.9983 12.1114 64.8068 12.9137 65.8042 12.9137Z" fill="white"/>
</svg>
