<svg xmlns="http://www.w3.org/2000/svg" viewBox="0 0 281.37 169.8"><defs><style>.cls-1{isolation:isolate;}.cls-2{fill:#ddd;}.cls-3{fill:#005359;}.cls-4{fill:#00a78d;}.cls-5{fill:#1d1d1b;opacity:0.1;mix-blend-mode:multiply;}.cls-6{fill:#00484c;}.cls-7{fill:#fff;}.cls-8{fill:#00967f;}</style></defs><g class="cls-1"><g id="Camada_1" data-name="Camada 1"><path class="cls-2" d="M186.55,62.65l-5.64-9.78a3.41,3.41,0,0,0-3-1.71H167l-5.5-9.52a3.41,3.41,0,0,0-3-1.71H132.75l-4.52-7.84A9.56,9.56,0,0,0,120,27.32H88.45a9.56,9.56,0,0,0-8.26,4.77L64.44,59.38a9.51,9.51,0,0,0,0,9.54L80.19,96.21A9.56,9.56,0,0,0,88.45,101H120a9.56,9.56,0,0,0,8.26-4.77l4.51-7.81h25.83a3.41,3.41,0,0,0,3-1.71l5.27-9.13H178a3.41,3.41,0,0,0,3-1.71l5.64-9.78A3.42,3.42,0,0,0,186.55,62.65Z"/><polygon class="cls-3" points="31.41 100.71 31.41 100.72 31.41 100.72 31.41 100.71"/><polygon class="cls-3" points="31.41 100.71 31.41 100.72 31.41 100.72 31.41 100.71"/><path class="cls-3" d="M201.85,115.45v5.19a11.61,11.61,0,0,1-.38,3,8.4,8.4,0,0,1-1.08,2.46,5.44,5.44,0,0,1-1.71,1.64,4.44,4.44,0,0,1-4.49,0,5.35,5.35,0,0,1-1.68-1.64,7.91,7.91,0,0,1-1.08-2.46,11.19,11.19,0,0,1-.39-3V109.88a11,11,0,0,0-3,.38,12.82,12.82,0,0,0-2.5,1v9.37a12.14,12.14,0,0,0,.81,4.46,11.28,11.28,0,0,0,2.25,3.62,10.7,10.7,0,0,0,15.63,0,11.28,11.28,0,0,0,2.25-3.62,12.14,12.14,0,0,0,.81-4.46V114a13.09,13.09,0,0,1-3.92,1.33A11.6,11.6,0,0,1,201.85,115.45Z"/><path class="cls-3" d="M226.53,100.11V111a13.17,13.17,0,0,0-1.54-.8,11.43,11.43,0,0,0-8.89,0,11.63,11.63,0,0,0-3.62,2.45,11.27,11.27,0,0,0-1.6,2,11.7,11.7,0,0,0-.88,1.64,11.5,11.5,0,0,0,0,8.92,11.58,11.58,0,0,0,6.08,6.08,11,11,0,0,0,4.46.9,11.24,11.24,0,0,0,4.48-.9,11.62,11.62,0,0,0,6.1-6.08,11.07,11.07,0,0,0,.9-4.46v-22a11.53,11.53,0,0,0-3,.36A11.76,11.76,0,0,0,226.53,100.11Zm0,20v.72a8.66,8.66,0,0,1-.5,3,8.57,8.57,0,0,1-1.31,2.41,5.85,5.85,0,0,1-.87.92,5.45,5.45,0,0,1-1,.68,4.82,4.82,0,0,1-2.32.61,4.75,4.75,0,0,1-2.34-.61,6.43,6.43,0,0,1-1.89-1.65,7,7,0,0,1-.72-1.11,8,8,0,0,1-.54-1.3,9.65,9.65,0,0,1,0-6,8,8,0,0,1,1.28-2.43,6.26,6.26,0,0,1,1.89-1.64,4.58,4.58,0,0,1,2.3-.61,4.81,4.81,0,0,1,2.72.83,6.68,6.68,0,0,1,2.05,2.23v0a8.78,8.78,0,0,1,.76,1.64A9,9,0,0,1,226.53,120.1Z"/><path class="cls-3" d="M242.19,124a14.38,14.38,0,0,0,1.71.13H244c.58,0,1.15,0,1.71,0a14.28,14.28,0,0,0,4.37-.9,7.88,7.88,0,0,0,3.13-2.11,5.29,5.29,0,0,0,1.31-3.36,6.35,6.35,0,0,0-.66-3.19,8.85,8.85,0,0,0-2-2.7,9.65,9.65,0,0,0-3-1.87,9.8,9.8,0,0,0-3.69-.7,11.21,11.21,0,0,0-4.48.9,11.45,11.45,0,0,0-6.11,6.1,11.24,11.24,0,0,0-.9,4.48,11.07,11.07,0,0,0,.9,4.46,11.59,11.59,0,0,0,6.11,6.08,11.21,11.21,0,0,0,4.48.9,11,11,0,0,0,4.32-.86A11.58,11.58,0,0,0,253,129c.63-.71-.38-3-1.51-3.81a14.79,14.79,0,0,1-2.68,2.28,6.91,6.91,0,0,1-1.67.74,5.18,5.18,0,0,1-2,.21,4.91,4.91,0,0,1-2.35-.59,6.12,6.12,0,0,1-1.89-1.6,8,8,0,0,1-1.28-2.36l-.08-.26c.73.12,1.51.24,2.24.34Zm-1.48-8.59a5.55,5.55,0,0,1,1.82-1.57,4.94,4.94,0,0,1,2.37-.56,5.73,5.73,0,0,1,2.59.47,3.88,3.88,0,0,1,1.39,1.1,3,3,0,0,1,.59,1.24,6.06,6.06,0,0,1,.11.83,4.52,4.52,0,0,1-.23,1,2.87,2.87,0,0,1-1.17,1.41,6.54,6.54,0,0,1-2.86,1,10.71,10.71,0,0,1-2.23,0,13.23,13.23,0,0,1-3.86-1.17,9.37,9.37,0,0,1,.29-1.32A7.61,7.61,0,0,1,240.71,115.39Z"/><path class="cls-3" d="M211.75,108.35a9.13,9.13,0,0,1-1.76.18,8.47,8.47,0,0,1-3.38-.68h0a7.25,7.25,0,0,1-1.13,1.2,7.48,7.48,0,0,1-2.34,1.33,7.2,7.2,0,0,1-1.28.3v2.67a11.6,11.6,0,0,0,1.53-.14,13.57,13.57,0,0,0,4.28-1.5A16.14,16.14,0,0,0,211.75,108.35Z"/><path class="cls-3" d="M211.75,108.35a9.13,9.13,0,0,1-1.76.18,8.47,8.47,0,0,1-3.38-.68h0a7.25,7.25,0,0,1-1.13,1.2,7.48,7.48,0,0,1-2.34,1.33,7.2,7.2,0,0,1-1.28.3v2.67a11.6,11.6,0,0,0,1.53-.14,13.57,13.57,0,0,0,4.28-1.5A16.14,16.14,0,0,0,211.75,108.35Z"/><path class="cls-4" d="M153,126.71a10,10,0,0,0-.85-.6,5.32,5.32,0,0,1-4.83,1.67,6.89,6.89,0,0,1-2.58-.62,6.69,6.69,0,0,1-2.07-1.77,9.62,9.62,0,0,1-1.46-2.75,10.31,10.31,0,0,1-.54-3.37v-.62h0V100.5c-.55.24-1.11.47-1.66.74a23.09,23.09,0,0,0-4.52,3v3.89h0v10.94a12.67,12.67,0,0,0,1,5.08c.23.52.49,1,.76,1.48a11.77,11.77,0,0,0,2,2.66,11.43,11.43,0,0,0,1.84,1.49,13.11,13.11,0,0,0,2.35,1.31,12.67,12.67,0,0,0,5.08,1,12.93,12.93,0,0,0,4.35-.72,12.57,12.57,0,0,0,2-.94,10.37,10.37,0,0,0,1.61-1A11.61,11.61,0,0,0,153,126.71Z"/><path class="cls-4" d="M49.92,126.71a6.82,6.82,0,0,0-.62-.43,6.75,6.75,0,0,1-2.18,1.21,7.94,7.94,0,0,1-2.69.41,5.62,5.62,0,0,1-2.65-.66,6.88,6.88,0,0,1-2.18-1.85,9.4,9.4,0,0,1-1.47-2.75,10.31,10.31,0,0,1-.54-3.37v-.62h0V100.5c-.55.24-1.11.47-1.66.74a23.09,23.09,0,0,0-4.52,3v3.89h0v10.94a12.67,12.67,0,0,0,1,5.08,13.18,13.18,0,0,0,6.94,6.94,12.72,12.72,0,0,0,5.09,1,12.92,12.92,0,0,0,4.34-.72,13.07,13.07,0,0,0,3.61-2A11.55,11.55,0,0,0,49.92,126.71Z"/><path class="cls-4" d="M53.62,111.68v20h1.09a12.49,12.49,0,0,0,4.46-1.32v-20a10.91,10.91,0,0,0-3,.39A12.66,12.66,0,0,0,53.62,111.68Z"/><path class="cls-4" d="M56.39,100.86A3,3,0,0,0,53.3,104a3.09,3.09,0,0,0,.89,2.23,2.94,2.94,0,0,0,2.2.91A3.11,3.11,0,0,0,59.53,104a2.93,2.93,0,0,0-.91-2.2A3.07,3.07,0,0,0,56.39,100.86Z"/><path class="cls-4" d="M68.27,125.64a8.23,8.23,0,0,1-1.3-2.46,9.52,9.52,0,0,1-.47-3v-5.73a28.33,28.33,0,0,1,6,.18v-4.18s-2.7-.29-6-.42v-8.49a10.91,10.91,0,0,0-3,.39A13.29,13.29,0,0,0,61,103v17.23a11.07,11.07,0,0,0,.91,4.5A11.66,11.66,0,0,0,68,130.82a11.44,11.44,0,0,0,4.52.91v-3.82a4.73,4.73,0,0,1-2.36-.62A6.36,6.36,0,0,1,68.27,125.64Z"/><path class="cls-4" d="M92.25,112.7a11.87,11.87,0,0,0-3.68-2.48,11.35,11.35,0,0,0-4.48-.9,11.23,11.23,0,0,0-4.5.9,11.9,11.9,0,0,0-3.66,2.48,11.7,11.7,0,0,0-2.48,3.68,11.35,11.35,0,0,0-.91,4.48,11.24,11.24,0,0,0,.91,4.5,11.71,11.71,0,0,0,6.14,6.14,11.53,11.53,0,0,0,9,0,11.66,11.66,0,0,0,6.16-6.14,11.24,11.24,0,0,0,.91-4.5,11.35,11.35,0,0,0-.91-4.48A11.87,11.87,0,0,0,92.25,112.7Zm-2.59,11.18a8,8,0,0,1-1.3,2.48A6.23,6.23,0,0,1,86.43,128a4.76,4.76,0,0,1-2.34.62,4.7,4.7,0,0,1-2.36-.62,6.28,6.28,0,0,1-1.91-1.66,8,8,0,0,1-1.3-2.48,9.41,9.41,0,0,1-.48-3,9.25,9.25,0,0,1,.48-3,8.6,8.6,0,0,1,1.3-2.48,6.21,6.21,0,0,1,1.91-1.68,4.69,4.69,0,0,1,2.36-.61,4.75,4.75,0,0,1,2.34.61,6.17,6.17,0,0,1,1.93,1.68,8.6,8.6,0,0,1,1.3,2.48,9.25,9.25,0,0,1,.48,3A9.41,9.41,0,0,1,89.66,123.88Z"/><path class="cls-4" d="M132.93,116.38a11.67,11.67,0,0,0-2.47-3.68,11.92,11.92,0,0,0-3.69-2.48,11.63,11.63,0,0,0-9,0,11.66,11.66,0,0,0-6.14,6.16,11.18,11.18,0,0,0-.91,4.48v0a11.14,11.14,0,0,0,.91,4.5,11.84,11.84,0,0,0,2.48,3.66,11.59,11.59,0,0,0,3.66,2.47,11.07,11.07,0,0,0,4.5.91,11.45,11.45,0,0,0,2.52-.27,12,12,0,0,0,2.3-.77v-.08a11,11,0,0,0,1.51-.83,12.07,12.07,0,0,0,2.24.86,11,11,0,0,0,3,.37V120.86A11.18,11.18,0,0,0,132.93,116.38Zm-6.29,9.88-.22.26a7,7,0,0,1-.7.74l-.06,0a5.63,5.63,0,0,1-1,.71h0a3.54,3.54,0,0,1-.52.25l-.1,0a4.11,4.11,0,0,1-.46.15,2.27,2.27,0,0,1-.25.06l-.36.07a4.48,4.48,0,0,1-.64,0h0A4.68,4.68,0,0,1,120,128a6.27,6.27,0,0,1-1.94-1.66,8.19,8.19,0,0,1-1.29-2.48,9.23,9.23,0,0,1-.48-3,9.56,9.56,0,0,1,.39-2.72c0-.1,0-.21.09-.31s0-.11.07-.17a8.14,8.14,0,0,1,1.22-2.28,6.27,6.27,0,0,1,1.94-1.66,4.76,4.76,0,0,1,2.34-.62,4.86,4.86,0,0,1,2.61.74h0a4.57,4.57,0,0,1,.76.57,7,7,0,0,1,1,1.19,7.94,7.94,0,0,1,.5.78l.1.18a11.93,11.93,0,0,1,.54,1.26,10,10,0,0,1,.41,1.91c0,.11,0,.22,0,.33a.17.17,0,0,1,0,.07c0,.23,0,.47,0,.71a9.52,9.52,0,0,1-.47,3A8.36,8.36,0,0,1,126.64,126.26Z"/><path class="cls-3" d="M182.85,116.25a11.48,11.48,0,0,0-6.1-6.1,11.45,11.45,0,0,0-8.9,0,11.63,11.63,0,0,0-3.62,2.45,11.51,11.51,0,0,0-2.46,3.65,11.12,11.12,0,0,0-.9,4.44v0a11.07,11.07,0,0,0,.9,4.46,11.68,11.68,0,0,0,6.08,6.08,11.07,11.07,0,0,0,4.46.9,11.21,11.21,0,0,0,4.77-1v-.07a12.92,12.92,0,0,0,1.51-.83,11.78,11.78,0,0,0,2.21.86,11.25,11.25,0,0,0,2.95.36V120.73h0v0A11.12,11.12,0,0,0,182.85,116.25ZM176.61,126l-.21.26a6.92,6.92,0,0,1-.7.73l0,0a6.28,6.28,0,0,1-1,.7h0l-.51.25-.1,0-.46.16-.25.05-.35.07a4.48,4.48,0,0,1-.64,0h0a4.93,4.93,0,0,1-2.32-.61,6.17,6.17,0,0,1-1.88-1.62s0,0,0,0a7.91,7.91,0,0,1-1.28-2.45,9.43,9.43,0,0,1-.48-3,9.65,9.65,0,0,1,.43-2.84c0-.05,0-.11.05-.16l0-.09a8.42,8.42,0,0,1,1.25-2.34,6.21,6.21,0,0,1,1.91-1.64,4.71,4.71,0,0,1,2.32-.61,4.8,4.8,0,0,1,2.49.68,6.15,6.15,0,0,1,.52.37,2.88,2.88,0,0,1,.35.26c.12.11.23.23.34.35s.27.27.4.42l.3.41a8.42,8.42,0,0,1,.49.77l.1.18a9.25,9.25,0,0,1,.53,1.24c0,.12.07.25.1.37a9.77,9.77,0,0,1,.25,1.07s0,.06,0,.09a10,10,0,0,1,.11,1.48,9.36,9.36,0,0,1-.47,3A8,8,0,0,1,176.61,126Z"/><path class="cls-3" d="M157.89,115.23a12,12,0,0,0-2.33-2.16c-.58-.42-1.17-.79-1.78-1.15v0l-.23-.12-.16-.08-.59-.34c-.49-.27-.86-.47-1.16-.62h0l-.5-.28c-.68-.36-1.28-.72-1.8-1a7.53,7.53,0,0,1-1.28-1,3.53,3.53,0,0,1-.76-1.09,2.85,2.85,0,0,1-.21-1.31,4,4,0,0,1,1.14-2.54,3.92,3.92,0,0,1,3-1.14,6.35,6.35,0,0,1,2.21.45,6.72,6.72,0,0,1,2.51,1.87l0,0a7.36,7.36,0,0,0,1.11-1.5,13.47,13.47,0,0,0,.79-1.62A11.81,11.81,0,0,0,155,99.62a9.75,9.75,0,0,0-3.52-.8,10.8,10.8,0,0,0-4.42.57,8.78,8.78,0,0,0-2.95,1.81,7.46,7.46,0,0,0-1.71,2.45,9.37,9.37,0,0,0-.68,2.43,7.15,7.15,0,0,0,1.49,5.54,10.76,10.76,0,0,0,1.4,1.48h0a5.06,5.06,0,0,0,.65.46c.27.16,1.62,1,2.82,1.85l1.5,1a9.82,9.82,0,0,1,3.34,3.48,6.11,6.11,0,0,1,.57,3.73A4.67,4.67,0,0,1,153,125a10.41,10.41,0,0,1,1,.72,11.55,11.55,0,0,1,2.58,3,10.2,10.2,0,0,0,2.16-2.75,10.65,10.65,0,0,0,1.21-4.42,9.15,9.15,0,0,0-.48-3.56A9.38,9.38,0,0,0,157.89,115.23Z"/><path class="cls-4" d="M56.39,100.86A3,3,0,0,0,53.3,104a3.09,3.09,0,0,0,.89,2.23,2.94,2.94,0,0,0,2.2.91A3.11,3.11,0,0,0,59.53,104a2.93,2.93,0,0,0-.91-2.2A3.07,3.07,0,0,0,56.39,100.86Z"/><path class="cls-4" d="M110.8,110.13a11.57,11.57,0,0,0-6.53.73,11.84,11.84,0,0,0-3.66,2.48A11.56,11.56,0,0,0,98.14,117a9.8,9.8,0,0,0-.48,1.38,11.38,11.38,0,0,0-.43,3.1v10.14a11.28,11.28,0,0,0,5.54-1.37V121.5a9.25,9.25,0,0,1,.48-3c0-.15.11-.29.16-.43a7.85,7.85,0,0,1,1.14-2,6.5,6.5,0,0,1,1.9-1.66,4.79,4.79,0,0,1,2.32-.61,5.45,5.45,0,0,1,2.37.36l1.54-3.45A10.71,10.71,0,0,0,110.8,110.13Z"/><path class="cls-5" d="M127.87,117.86a10,10,0,0,1,.41,1.91c0,.11,0,.22,0,.33a.17.17,0,0,1,0,.07c0,.23,0,.47,0,.71a9.52,9.52,0,0,1-.47,3,8.36,8.36,0,0,1-1.23,2.38l-.22.26a7,7,0,0,1-.7.74l-.06,0a5.63,5.63,0,0,1-1,.71h0a3.54,3.54,0,0,1-.52.25l-.1,0a4.11,4.11,0,0,1-.46.15,2.27,2.27,0,0,1-.25.06l-.36.07a4.48,4.48,0,0,1-.64,0h0A4.68,4.68,0,0,1,120,128a6.27,6.27,0,0,1-1.94-1.66,8.19,8.19,0,0,1-1.29-2.48,9.23,9.23,0,0,1-.48-3,9.56,9.56,0,0,1,.39-2.72c0-.1,0-.21.09-.31s0-.11.07-.17.07-.17.11-.26l-5.71.25a11.58,11.58,0,0,0-.45,3.18v0a11.14,11.14,0,0,0,.91,4.5,11.84,11.84,0,0,0,2.48,3.66,11.59,11.59,0,0,0,3.66,2.47,11.07,11.07,0,0,0,4.5.91,11.45,11.45,0,0,0,2.52-.27,12,12,0,0,0,2.3-.77v-.08a11,11,0,0,0,1.51-.83,12.07,12.07,0,0,0,2.24.86,11,11,0,0,0,3,.37V120.86a11.27,11.27,0,0,0-.73-4l-5.58.18C127.65,117.3,127.77,117.57,127.87,117.86Z"/><path class="cls-5" d="M90.14,120.86a9.41,9.41,0,0,1-.48,3,8,8,0,0,1-1.3,2.48A6.23,6.23,0,0,1,86.43,128a4.76,4.76,0,0,1-2.34.62,4.7,4.7,0,0,1-2.36-.62,6.28,6.28,0,0,1-1.91-1.66,8,8,0,0,1-1.3-2.48,9.41,9.41,0,0,1-.48-3,10.39,10.39,0,0,1,.07-1.13l-5.53.44c0,.23,0,.46,0,.69a11.24,11.24,0,0,0,.91,4.5,11.71,11.71,0,0,0,6.14,6.14,11.53,11.53,0,0,0,9,0,11.66,11.66,0,0,0,6.16-6.14,11.53,11.53,0,0,0,.67-6.83l-5.47.35A9.92,9.92,0,0,1,90.14,120.86Z"/><path class="cls-5" d="M61.86,124.68A11.66,11.66,0,0,0,68,130.82a11.44,11.44,0,0,0,4.52.91v-3.82a4.73,4.73,0,0,1-2.36-.62,6.5,6.5,0,0,1-1.91-1.65,8.23,8.23,0,0,1-1.3-2.46,9.29,9.29,0,0,1-.45-2.49l-5.52.5A10.84,10.84,0,0,0,61.86,124.68Z"/><path class="cls-5" d="M35.2,128.34a13.28,13.28,0,0,0,4.14,2.8,12.72,12.72,0,0,0,5.09,1,12.92,12.92,0,0,0,4.34-.72,13.07,13.07,0,0,0,3.61-2,11.55,11.55,0,0,0-2.46-2.77,6.82,6.82,0,0,0-.62-.43,6.75,6.75,0,0,1-2.18,1.21,7.94,7.94,0,0,1-2.69.41,5.62,5.62,0,0,1-2.65-.66,6.88,6.88,0,0,1-2.18-1.85,9,9,0,0,1-1.08-1.8c-2,.24-4.05.49-6.05.75A13.39,13.39,0,0,0,35.2,128.34Z"/><path class="cls-5" d="M53.62,121.92v9.72h1.09a12.49,12.49,0,0,0,4.46-1.32v-8.95C57.31,121.54,55.46,121.73,53.62,121.92Z"/><path class="cls-5" d="M97.66,118.4a11.38,11.38,0,0,0-.43,3.1v10.14a11.28,11.28,0,0,0,5.54-1.37V121.5a9.25,9.25,0,0,1,.48-3c0-.15.11-.29.16-.43Z"/><path class="cls-5" d="M140.7,118.65v-2l-6.22.15v2.31a12.67,12.67,0,0,0,1,5.08c.23.52.49,1,.76,1.48a11.77,11.77,0,0,0,2,2.66,11.43,11.43,0,0,0,1.84,1.49,13.11,13.11,0,0,0,2.35,1.31,12.67,12.67,0,0,0,5.08,1,12.93,12.93,0,0,0,4.35-.72,12.57,12.57,0,0,0,2-.94,10.37,10.37,0,0,0,1.61-1,11.61,11.61,0,0,0-2.5-2.84,10,10,0,0,0-.85-.6,5.32,5.32,0,0,1-4.83,1.67,6.89,6.89,0,0,1-2.58-.62,6.69,6.69,0,0,1-2.07-1.77,9.62,9.62,0,0,1-1.46-2.75,10.31,10.31,0,0,1-.54-3.37v-.62Z"/><path class="cls-5" d="M152.9,119.9a6.11,6.11,0,0,1,.57,3.73A4.67,4.67,0,0,1,153,125a10.41,10.41,0,0,1,1,.72,11.55,11.55,0,0,1,2.58,3,10.2,10.2,0,0,0,2.16-2.75,10.65,10.65,0,0,0,1.21-4.42,9.15,9.15,0,0,0-.48-3.56,10.47,10.47,0,0,0-.76-1.62c-3,0-6,.06-9.05.11A9.47,9.47,0,0,1,152.9,119.9Z"/><path class="cls-5" d="M177.3,116.47a9.25,9.25,0,0,1,.53,1.24c0,.12.07.25.1.37a9.77,9.77,0,0,1,.25,1.07s0,.06,0,.09a10,10,0,0,1,.11,1.48,9.36,9.36,0,0,1-.47,3,8,8,0,0,1-1.22,2.35l-.21.26a6.92,6.92,0,0,1-.7.73l0,0a6.28,6.28,0,0,1-1,.7h0l-.51.25-.1,0-.46.16-.25.05-.35.07a4.48,4.48,0,0,1-.64,0h0a4.93,4.93,0,0,1-2.32-.61,6.17,6.17,0,0,1-1.88-1.62s0,0,0,0a7.91,7.91,0,0,1-1.28-2.45,9.43,9.43,0,0,1-.48-3,9.65,9.65,0,0,1,.43-2.84c0-.05,0-.11.05-.16l0-.09a8.72,8.72,0,0,1,.57-1.28l-5.67,0a11.12,11.12,0,0,0-.86,4.33v0a11.07,11.07,0,0,0,.9,4.46,11.68,11.68,0,0,0,6.08,6.08,11.07,11.07,0,0,0,4.46.9,11.21,11.21,0,0,0,4.77-1v-.07a12.92,12.92,0,0,0,1.51-.83,11.78,11.78,0,0,0,2.21.86,11.25,11.25,0,0,0,2.95.36V120.73h0v0a11.22,11.22,0,0,0-.84-4.28l-5.67,0Z"/><path class="cls-5" d="M201.85,116.75v3.89a11.61,11.61,0,0,1-.38,3,8.4,8.4,0,0,1-1.08,2.46,5.44,5.44,0,0,1-1.71,1.64,4.44,4.44,0,0,1-4.49,0,5.35,5.35,0,0,1-1.68-1.64,7.91,7.91,0,0,1-1.08-2.46,11.19,11.19,0,0,1-.39-3v-4.12l-5.49-.08v4.2a12.14,12.14,0,0,0,.81,4.46,11.28,11.28,0,0,0,2.25,3.62,10.7,10.7,0,0,0,15.63,0,11.28,11.28,0,0,0,2.25-3.62,12.14,12.14,0,0,0,.81-4.46V116.9Z"/><path class="cls-5" d="M226,117.61a.69.69,0,0,1,0,.1,9,9,0,0,1,.46,2.39v.72a8.66,8.66,0,0,1-.5,3,8.57,8.57,0,0,1-1.31,2.41,5.85,5.85,0,0,1-.87.92,5.45,5.45,0,0,1-1,.68,4.82,4.82,0,0,1-2.32.61,4.75,4.75,0,0,1-2.34-.61,6.43,6.43,0,0,1-1.89-1.65,7,7,0,0,1-.72-1.11,8,8,0,0,1-.54-1.3,9.65,9.65,0,0,1,0-6c.06-.18.13-.36.2-.54l-5.53-.19a11.41,11.41,0,0,0,.26,8.21,11.58,11.58,0,0,0,6.08,6.08,11,11,0,0,0,4.46.9,11.24,11.24,0,0,0,4.48-.9,11.62,11.62,0,0,0,6.1-6.08,11.07,11.07,0,0,0,.9-4.46V117.9Z"/><path class="cls-5" d="M242.19,124a14.38,14.38,0,0,0,1.71.13H244c.58,0,1.15,0,1.71,0a14.28,14.28,0,0,0,4.37-.9,7.88,7.88,0,0,0,3.13-2.11,5.2,5.2,0,0,0,1-1.82l-5.48-.38a3.61,3.61,0,0,1-.54.46,6.54,6.54,0,0,1-2.86,1,10.71,10.71,0,0,1-2.23,0,13.23,13.23,0,0,1-3.86-1.17c0-.29.1-.57.16-.85l-5.46-.3a11.36,11.36,0,0,0,.56,7.19,11.59,11.59,0,0,0,6.11,6.08,11.21,11.21,0,0,0,4.48.9,11,11,0,0,0,4.32-.86A11.58,11.58,0,0,0,253,129c.63-.71-.38-3-1.51-3.81a14.79,14.79,0,0,1-2.68,2.28,6.91,6.91,0,0,1-1.67.74,5.18,5.18,0,0,1-2,.21,4.91,4.91,0,0,1-2.35-.59,6.12,6.12,0,0,1-1.89-1.6,8,8,0,0,1-1.28-2.36l-.08-.26c.73.12,1.51.24,2.24.34Z"/><path class="cls-3" d="M38.22,142.48v-4.86h.69v2h2.31v-2h.69v4.86h-.69v-2.29H38.91v2.29Z"/><path class="cls-3" d="M46.73,142.6a2.08,2.08,0,0,1-1.63-.7,3.11,3.11,0,0,1,0-3.71,2.32,2.32,0,0,1,3.3,0,3.1,3.1,0,0,1,0,3.72A2.14,2.14,0,0,1,46.73,142.6Zm0-.51a1.35,1.35,0,0,0,1.15-.54,2.95,2.95,0,0,0,0-3,1.45,1.45,0,0,0-2.26,0,2.93,2.93,0,0,0,0,3A1.31,1.31,0,0,0,46.74,142.09Z"/><path class="cls-3" d="M52.57,142.6a5,5,0,0,1-1.26-.21v-.68a3.48,3.48,0,0,0,1.35.38,1,1,0,0,0,.66-.22.76.76,0,0,0,.08-1,1.77,1.77,0,0,0-.6-.45l-.33-.19a3.31,3.31,0,0,1-.88-.67,1.13,1.13,0,0,1-.25-.73,1.19,1.19,0,0,1,.41-.93,1.49,1.49,0,0,1,1-.36,4,4,0,0,1,1.19.19v.63a3.59,3.59,0,0,0-1.15-.31.92.92,0,0,0-.59.2.58.58,0,0,0-.23.47.66.66,0,0,0,.17.44,2.71,2.71,0,0,0,.62.44l.35.2a3,3,0,0,1,.88.67,1.21,1.21,0,0,1,.25.77,1.24,1.24,0,0,1-.47,1A1.9,1.9,0,0,1,52.57,142.6Z"/><path class="cls-3" d="M56.85,142.48v-4.86h1.32a2.1,2.1,0,0,1,1.27.3,1.17,1.17,0,0,1,.38,1,1.48,1.48,0,0,1-.53,1.22,2.2,2.2,0,0,1-1.45.44h-.31v1.93Zm.68-2.45h.28a1.47,1.47,0,0,0,.95-.28,1,1,0,0,0,.33-.8.72.72,0,0,0-.26-.63,1.59,1.59,0,0,0-.87-.18h-.43Z"/><path class="cls-3" d="M62.18,142.48v-4.86h.69v4.86Z"/><path class="cls-3" d="M66.78,142.48v-4.34H65.15v-.52h3.94v.52H67.47v4.34Z"/><path class="cls-3" d="M74.18,142.48l-.53-1.35H71.59l-.53,1.35h-.65l1.93-4.86H73l1.9,4.86Zm-.73-1.86-.83-2.09-.83,2.09Z"/><path class="cls-3" d="M77.24,142.48v-4.86h.69V142h2.19v.51Z"/><path class="cls-3" d="M85.63,142.48l-.53-1.35H83l-.53,1.35h-.64l1.92-4.86h.69l1.9,4.86Zm-.73-1.86-.83-2.09-.83,2.09Z"/><path class="cls-3" d="M88.69,142.48v-4.86h1.47a1.64,1.64,0,0,1,1.08.31,1.12,1.12,0,0,1,.37.9,1.43,1.43,0,0,1-1,1.38l1.62,2.27H91.4l-1.38-2h-.64v2Zm.69-2.57h.22c.87,0,1.3-.34,1.3-1,0-.5-.36-.75-1.09-.75h-.43Z"/><path class="cls-3" d="M98.68,143.45V137.3h.49v6.15Z"/><path class="cls-3" d="M108.12,142.6a2,2,0,0,1-1.62-.7,3.09,3.09,0,0,1,0-3.71,2.1,2.1,0,0,1,1.65-.69,2.14,2.14,0,0,1,1.66.69,3.1,3.1,0,0,1,0,3.72A2.17,2.17,0,0,1,108.12,142.6Zm0-.51a1.37,1.37,0,0,0,1.16-.54,2.48,2.48,0,0,0,.4-1.52,2.35,2.35,0,0,0-.41-1.48,1.45,1.45,0,0,0-2.26,0,2.93,2.93,0,0,0,0,3A1.32,1.32,0,0,0,108.13,142.09Z"/><path class="cls-3" d="M113,142.48v-4.86h1.62a3.75,3.75,0,0,1,1.17.16,1.86,1.86,0,0,1,.77.55,2.41,2.41,0,0,1,.51,1.61,2.57,2.57,0,0,1-.64,1.87,2.35,2.35,0,0,1-1.8.67Zm.7-.51h.88a1.6,1.6,0,0,0,1.34-.51,2.34,2.34,0,0,0,.42-1.46,2,2,0,0,0-.42-1.34,1.23,1.23,0,0,0-.6-.41,3.55,3.55,0,0,0-1.06-.11h-.56Z"/><path class="cls-3" d="M121.61,142.6a2,2,0,0,1-1.62-.7,3.09,3.09,0,0,1,0-3.71,2.32,2.32,0,0,1,3.3,0,3.1,3.1,0,0,1,0,3.72A2.14,2.14,0,0,1,121.61,142.6Zm0-.51a1.38,1.38,0,0,0,1.16-.54,2.48,2.48,0,0,0,.4-1.52,2.35,2.35,0,0,0-.41-1.48,1.45,1.45,0,0,0-2.26,0,2.93,2.93,0,0,0,0,3A1.32,1.32,0,0,0,121.62,142.09Z"/><path class="cls-3" d="M126.49,142.48v-4.86h.68l2.45,3.75v-3.75h.59v4.86h-.68l-2.45-3.75v3.75Z"/><path class="cls-3" d="M134.12,142.48v-4.34H132.5v-.52h3.94v.52h-1.63v4.34Z"/><path class="cls-3" d="M140.62,142.6a2.06,2.06,0,0,1-1.63-.7,2.7,2.7,0,0,1-.61-1.85,2.66,2.66,0,0,1,.62-1.86,2.32,2.32,0,0,1,3.3,0,3.1,3.1,0,0,1,0,3.72A2.14,2.14,0,0,1,140.62,142.6Zm0-.51a1.35,1.35,0,0,0,1.15-.54,2.48,2.48,0,0,0,.41-1.52,2.41,2.41,0,0,0-.41-1.48,1.45,1.45,0,0,0-2.26,0,2.38,2.38,0,0,0-.41,1.49,2.45,2.45,0,0,0,.4,1.5A1.33,1.33,0,0,0,140.63,142.09Z"/><path class="cls-3" d="M145.5,142.48v-4.86h.69V142h2.19v.51Z"/><path class="cls-3" d="M152.56,142.6a2,2,0,0,1-1.63-.7,3.09,3.09,0,0,1,0-3.71,2.11,2.11,0,0,1,1.65-.69,2.14,2.14,0,0,1,1.66.69,3.1,3.1,0,0,1,0,3.72A2.16,2.16,0,0,1,152.56,142.6Zm0-.51a1.36,1.36,0,0,0,1.15-.54,2.48,2.48,0,0,0,.41-1.52,2.41,2.41,0,0,0-.41-1.48,1.35,1.35,0,0,0-1.14-.54,1.34,1.34,0,0,0-1.13.54,3,3,0,0,0,0,3A1.33,1.33,0,0,0,152.57,142.09Zm-.47-4.88.79-1.05h.75l-1.06,1.05Z"/><path class="cls-3" d="M161.09,142.35a5.63,5.63,0,0,1-1.54.25,2.32,2.32,0,0,1-1.78-.66,3.16,3.16,0,0,1,0-3.77,2.28,2.28,0,0,1,1.76-.67,5.67,5.67,0,0,1,1.54.22v.64a5.22,5.22,0,0,0-1.54-.35,1.48,1.48,0,0,0-1.22.54,2.34,2.34,0,0,0-.44,1.51,2.18,2.18,0,0,0,.47,1.49,1.64,1.64,0,0,0,1.31.54,2.59,2.59,0,0,0,.74-.12v-1.59h.69Z"/><path class="cls-3" d="M163.91,142.48v-4.86h.69v4.86Z"/><path class="cls-3" d="M169.54,142.6a2.28,2.28,0,0,1-1.75-.66,3.16,3.16,0,0,1,0-3.77,2.3,2.3,0,0,1,1.77-.67,6.78,6.78,0,0,1,1.54.21v.65a5.22,5.22,0,0,0-1.54-.35,1.49,1.49,0,0,0-1.23.54,2.34,2.34,0,0,0-.43,1.51,2.18,2.18,0,0,0,.46,1.47,1.57,1.57,0,0,0,1.26.53,3.15,3.15,0,0,0,1.48-.42v.59A3.33,3.33,0,0,1,169.54,142.6Z"/><path class="cls-3" d="M175.6,142.6a2,2,0,0,1-1.62-.7,3.09,3.09,0,0,1,0-3.71,2.32,2.32,0,0,1,3.3,0,3.1,3.1,0,0,1,0,3.72A2.14,2.14,0,0,1,175.6,142.6Zm0-.51a1.35,1.35,0,0,0,1.15-.54,2.41,2.41,0,0,0,.41-1.52,2.35,2.35,0,0,0-.41-1.48,1.45,1.45,0,0,0-2.26,0,2.93,2.93,0,0,0,0,3A1.31,1.31,0,0,0,175.61,142.09Z"/><path class="cls-3" d="M184.61,143.45V137.3h.48v6.15Z"/><path class="cls-3" d="M193.37,142.48l-1.84-4.86h.69l1.51,4.07,1.45-4.07h.6L194,142.48Z"/><path class="cls-3" d="M198.09,142.48v-4.86h2.71v.52h-2v1.56h1.69v.51h-1.69V142h2.16v.51Z"/><path class="cls-3" d="M204.39,142.48v-4.34h-1.62v-.52h3.94v.52h-1.63v4.34Z"/><path class="cls-3" d="M209,142.48v-4.86h2.71v.52h-2v1.56h1.7v.51h-1.7V142h2.16v.51Z"/><path class="cls-3" d="M214.26,142.48v-4.86h1.47a1.63,1.63,0,0,1,1.07.31,1.09,1.09,0,0,1,.37.9,1.43,1.43,0,0,1-1,1.38l1.62,2.27H217l-1.39-2h-.64v2Zm.68-2.57h.22c.87,0,1.3-.34,1.3-1,0-.5-.36-.75-1.09-.75h-.43Z"/><path class="cls-3" d="M220.12,142.48v-4.86h.69v4.86Z"/><path class="cls-3" d="M223.67,142.48v-4.86h.68l2.45,3.75v-3.75h.59v4.86h-.68l-2.45-3.75v3.75Z"/><path class="cls-3" d="M233.45,142.48l-.53-1.35h-2.06l-.54,1.35h-.64l1.93-4.86h.68l1.9,4.86Zm-.73-1.86-.83-2.09-.83,2.09Zm-1.25-3.41.79-1.05H233L232,137.21Z"/><path class="cls-3" d="M236.51,142.48v-4.86H238a1.61,1.61,0,0,1,1.07.31,1.09,1.09,0,0,1,.37.9,1.42,1.42,0,0,1-1,1.38l1.63,2.27h-.85l-1.38-2h-.65v2Zm.68-2.57h.22c.87,0,1.31-.34,1.31-1,0-.5-.37-.75-1.09-.75h-.44Z"/><path class="cls-3" d="M242.37,142.48v-4.86h.69v4.86Z"/><path class="cls-3" d="M247.88,142.6a2,2,0,0,1-1.62-.7,3.09,3.09,0,0,1,0-3.71,2.32,2.32,0,0,1,3.3,0,3.1,3.1,0,0,1,0,3.72A2.14,2.14,0,0,1,247.88,142.6Zm0-.51a1.38,1.38,0,0,0,1.16-.54,2.48,2.48,0,0,0,.4-1.52,2.35,2.35,0,0,0-.41-1.48,1.45,1.45,0,0,0-2.26,0,2.93,2.93,0,0,0,0,3A1.32,1.32,0,0,0,247.89,142.09Z"/><path class="cls-3" d="M82.79,92.7l-14-24.28a8.59,8.59,0,0,1,0-8.55l14-24.27a8.55,8.55,0,0,1,7.4-4.28h28a8.55,8.55,0,0,1,7.4,4.28l14,24.27a8.59,8.59,0,0,1,0,8.55l-14,24.28a8.56,8.56,0,0,1-7.4,4.27h-28A8.56,8.56,0,0,1,82.79,92.7Z"/><path class="cls-6" d="M122.06,40.78l-.39-.2.18.14.31.25,0,.08c-.16.38-.32.76-.49,1.12a.93.93,0,0,0,0,.1l-.31.6c-.1.2-.2.41-.31.61l-.13.23c-.11.2-.23.4-.36.59l0,0-.13.2-.29.41-.18.23-.22.28-.06.07c-.19.24-.4.47-.61.7l-.51-.49-.21-.2-.33-.29-.21-.19-.31-.26-.22-.17-.3-.23-.22-.16-.3-.21-.21-.13-.3-.19a1.18,1.18,0,0,1-.19-.11l-.33-.17-.17-.08a4.89,4.89,0,0,0-.48-.2l-.87-.29-.26-.07-.67-.17-.19,0c-.28,0-.55-.1-.81-.12l-.18,0c-.25,0-.5,0-.74,0s-.61,0-.9,0l-.29,0-.52.07-.3.07-.45.11-.29.09-.43.17-.25.11a3.75,3.75,0,0,0-.44.24l-.2.11a6.41,6.41,0,0,0-.52.39l0,0c-.16.14-.32.29-.47.45a3.47,3.47,0,0,0-.25.29l-.19.22c-.11.15-.22.29-.32.44l-.07.1c-.08.12-.16.25-.23.38l-.06.09c-.08.15-.16.31-.23.46l0,.1c-.06.13-.11.27-.16.4s0,.07,0,.11-.1.32-.14.48l0,.13c0,.13,0,.26-.08.39a1.1,1.1,0,0,1,0,.18c0,.16,0,.32,0,.48a5.66,5.66,0,0,0,0,.58v0a4.69,4.69,0,0,0,.06.54v0a3.81,3.81,0,0,0,.12.51,4.56,4.56,0,0,0,.18.52c.07.16.14.31.22.46l0,.06a4.11,4.11,0,0,0,.24.39l.12.17c.06.09.13.17.2.26l.15.17c.1.11.2.23.31.34l.18.17.32.3.21.17.34.27a3.55,3.55,0,0,0,.31.23l.23.17c.19.13.37.26.57.38s.25.17.38.25l.89.55.1,0c.34.2.69.41,1.06.61l.58.32.34.19.5.27,0,0,.09,0,.41.19.06,0,.12.06.44.23.19.09.67.37.21.11.79.46.26.13.39.21,1.11.7.2.14a3.28,3.28,0,0,1,.31.2c.45.29.9.6,1.35.92l0,0,.66.49.22.18.37.3.6.52.34.32c.21.19.4.39.6.59l.27.28c.28.3.56.61.81.92a12.7,12.7,0,0,1,.92,1.26c.09.13.17.27.25.4.2.32.39.66.57,1L124,67l.13.3a3.54,3.54,0,0,1,.16.34l.12.27c.09.2.17.39.24.59l.09.25.06.14c0,.17.11.33.16.5s.11.42.16.63l0,.12s0,0,0,.07q.1.43.18.9c0,.1,0,.21,0,.31a2.54,2.54,0,0,1,0,.29c0,.11,0,.22,0,.33,0,.28,0,.57.07.86V73s0,.1,0,.15,0,.32,0,.48,0,.48,0,.72,0,.22,0,.33,0,.1,0,.16l-.06.72a.43.43,0,0,0,0,0c0,.45-.11.89-.19,1.33,0,0,0,.09,0,.14s0,.16-.05.25l-.12.55c0,.07,0,.14,0,.22l-.06.24-.12.41c0,.07,0,.15,0,.22s-.07.19-.1.29a3.59,3.59,0,0,1-.12.35,1.09,1.09,0,0,1,0,.17c0,.12-.09.24-.14.36l-.12.32,0,.1-.18.42-.15.32,0,.06c-.11.25-.23.49-.36.73l-.06.1c-.2.37-.41.72-.63,1.06l-.17.26-.2.31c-.11.16-.24.31-.35.46l-.31.41a1.71,1.71,0,0,0-.11.14c-.22.28-.46.55-.7.81l0,0c-.34.37-.69.72-1.06,1-.23-.36-.47-.71-.71-1.06-.09-.12-.16-.24-.25-.35-.3-.42-.62-.82-1-1.22l-.22-.23c-.27-.31-.55-.61-.85-.9l-.41-.38c-.31-.29-.61-.57-.94-.84s-.53-.42-.81-.62-.6-.41-.91-.6c.1-.17.18-.35.27-.52s.23-.56.33-.85l.06-.19c.08-.26.15-.53.21-.8s.07-.44.09-.66,0-.42,0-.63a1.28,1.28,0,0,0,0-.19,7.85,7.85,0,0,0,0-.84l0-.22c0-.21,0-.42-.08-.63s0-.21-.06-.31a4.88,4.88,0,0,0-.12-.55c0-.11-.06-.22-.09-.33s-.12-.43-.2-.64-.07-.2-.1-.3c-.1-.27-.22-.55-.34-.82l-.06-.14c-1-2.17-3.22-4.17-5.62-5.83l-2.5-1.71-.12-.07-.07,0-.67-.44,0,0-.61-.41h0l-1.36-.9-.07,0-.26-.17-.06,0-.17-.11-.13-.09-.2-.13-.06,0-.19-.12-.06,0-.18-.11,0,0-.31-.2h0l-.11-.06c-.26-.16-.5-.33-.74-.5l-.08-.06a2,2,0,0,1-.27-.22A17.09,17.09,0,0,1,97.45,58c-.23-.28-.44-.57-.64-.86L96.69,57l-.09-.14c-.06-.09-.1-.19-.16-.28-.14-.25-.29-.5-.41-.76s-.14-.3-.21-.45-.21-.51-.3-.77l-.1-.27c0-.07,0-.15,0-.22-.07-.24-.13-.48-.19-.72s-.08-.35-.11-.53S95,52.31,95,52l-.06-.52c0-.3,0-.61,0-.92,0-.15,0-.3,0-.46q0-.7.09-1.44l0-.2c0-.22.07-.45.11-.68a.17.17,0,0,0,0-.07c.06-.27.12-.54.19-.81l0-.09c.06-.24.14-.48.22-.73s.07-.24.11-.36c.13-.37.27-.75.43-1.14,0-.07.07-.15.1-.23l-2.9-5V70.83c0,.49,0,1,.06,1.45a.34.34,0,0,0,0,.1c0,.44.08.86.15,1.28,0,.09,0,.17,0,.26,0,.3.12.61.19.91s.07.34.12.5c.1.39.21.78.34,1.15s.31.87.49,1.28v0c.14.32.29.62.44.92s.31.58.48.86l.23.39c.25.4.52.78.8,1.15s.41.47.61.7l.22.24c.25.26.51.51.77.74l0,0a9.32,9.32,0,0,0,.86.66l0,0a10.36,10.36,0,0,0,.94.58,7.76,7.76,0,0,0,.84.34l.19.07a9.7,9.7,0,0,0,1,.28l.13,0c.34.08.68.15,1,.2h0a11.11,11.11,0,0,0,1.16.12l.91,0h.19l.85,0c.23,0,.46,0,.69-.07h.13l.77-.13.17,0,.63-.16.1,0c.22-.07.44-.15.65-.24l.16-.06.53-.24.12-.06.59-.35.23-.17c.14-.1.28-.19.41-.3s.34-.29.5-.44l.17-.17.32-.33h0l.22.15.22.15.38.27.13.09.45.36.2.16c.25.22.5.43.74.66l.12.12c.27.26.52.52.77.79.11.11.24.23.35.35l.07.09.26.3c.16.2.33.39.49.58l.2.28.21.28c.28.38.54.77.79,1.16-.37.26-.75.52-1.14.76l-.11.06-.16.09c-.42.25-.85.49-1.29.7s-1,.54-1.51.78l-.45.2-.56.25-.91.34c-.36.13-.72.25-1.08.35l-.49.13-.29.08c-.51.12-1,.23-1.55.32l-.29,0c-.53.08-1.07.15-1.62.2h0c-.64,0-1.28.08-1.94.08-.4,0-.8,0-1.19,0l-.39,0-.78-.06h-.11l-.54-.07-.4,0-.74-.14-.3,0-1-.23-.18,0-.77-.22,0,0c-.24-.07-.48-.15-.71-.24l-.34-.11c-.34-.13-.69-.27-1-.42-.59-.26-1.17-.54-1.73-.85L94,89.62q-.6-.34-1.17-.72l-.52-.34q-.61-.44-1.2-.9l-.32-.25a.5.5,0,0,1-.08-.07,18.92,18.92,0,0,1-1.4-1.29A18.23,18.23,0,0,1,88,84.67l-.27-.31-.23-.28c-.2-.26-.39-.53-.58-.8L94.86,97h23.37a8.56,8.56,0,0,0,7.4-4.27l13.15-23Z"/><path class="cls-7" d="M114.27,83.16a15.55,15.55,0,0,0-1.44-1,10.91,10.91,0,0,1-1,.93q-2.59,2.11-7.16,1.88a11.93,11.93,0,0,1-4.35-1,11.4,11.4,0,0,1-3.48-3,15.88,15.88,0,0,1-2.47-4.63,17.21,17.21,0,0,1-.91-5.68v-1h0V39c-.94.39-1.87.79-2.8,1.25a37.94,37.94,0,0,0-7.62,5.12v6.55l-.06,0V70.35a21.36,21.36,0,0,0,1.73,8.58A22.33,22.33,0,0,0,86,81.41a19.19,19.19,0,0,0,3.35,4.49,19.82,19.82,0,0,0,3.11,2.52,22.25,22.25,0,0,0,4,2.2A21.15,21.15,0,0,0,105,92.36a21.71,21.71,0,0,0,7.32-1.22,21.47,21.47,0,0,0,3.45-1.57A20.54,20.54,0,0,0,118.49,88,19.6,19.6,0,0,0,114.27,83.16Z"/><path class="cls-4" d="M122.46,63.79a20.63,20.63,0,0,0-3.92-3.64c-1-.69-2-1.33-3-1.93l0,0-.39-.21-.27-.13c-.33-.19-.66-.4-1-.58l-2-1.05-.07,0-.84-.47c-1.14-.62-2.15-1.21-3-1.78a13.24,13.24,0,0,1-2.17-1.71,6,6,0,0,1-1.28-1.85,5,5,0,0,1-.36-2.21A6.8,6.8,0,0,1,106.12,44,6.62,6.62,0,0,1,111.24,42a10.85,10.85,0,0,1,3.74.75A11.39,11.39,0,0,1,119.21,46l.07-.07a13,13,0,0,0,1.89-2.52,22.29,22.29,0,0,0,1.32-2.74,19.23,19.23,0,0,0-4.95-3.13,16.44,16.44,0,0,0-5.94-1.36,18.26,18.26,0,0,0-7.44,1,14.92,14.92,0,0,0-5,3.06,12.09,12.09,0,0,0-2.88,4.13,15.41,15.41,0,0,0-1.14,4.09,12,12,0,0,0,2.5,9.34A18.31,18.31,0,0,0,100,60.2h0a9,9,0,0,0,1.1.77c.45.27,2.72,1.77,4.75,3.11l2.52,1.71c2.41,1.68,4.63,3.68,5.64,5.87A10.15,10.15,0,0,1,115,78a7.59,7.59,0,0,1-.87,2.37,17.48,17.48,0,0,1,1.73,1.23,19.41,19.41,0,0,1,4.36,5,17.41,17.41,0,0,0,3.63-4.65,17.76,17.76,0,0,0,2-7.44,15.52,15.52,0,0,0-.8-6A15.77,15.77,0,0,0,122.46,63.79Z"/><path class="cls-4" d="M146.34,84,142,76.51a2.61,2.61,0,0,1,0-2.62l4.3-7.46a2.64,2.64,0,0,1,2.28-1.31h8.61a2.62,2.62,0,0,1,2.27,1.31l4.31,7.46a2.61,2.61,0,0,1,0,2.62L159.5,84a2.62,2.62,0,0,1-2.27,1.31h-8.61A2.64,2.64,0,0,1,146.34,84Z"/><path class="cls-8" d="M156.14,69.23a4,4,0,0,0-.33-.47,3.32,3.32,0,0,1-6,2.81l0,.05L151.12,74a13.39,13.39,0,0,0-3.85,3.56l.25,2.76-.22.38,2.66,4.6h7.27A2.62,2.62,0,0,0,159.5,84l2.58-4.46Z"/><circle class="cls-7" cx="152.75" cy="70.06" r="3.33"/><path class="cls-7" d="M154,81.89a8.51,8.51,0,0,1,.55-2.84l-.9-1.89.4,0a3.25,3.25,0,0,1,1.28.21,2.73,2.73,0,0,1,.9.67l.28-.08a2.11,2.11,0,0,1,.56,0,1.62,1.62,0,0,1,.49,0,2.55,2.55,0,0,1,.28.08,3.61,3.61,0,0,1,.59-.5,4.71,4.71,0,0,0-3.56-3.41,3.61,3.61,0,0,1,1.12,2,.61.61,0,0,1,.49.6.63.63,0,1,1-.92-.55A2.79,2.79,0,0,0,153.69,74h-1.8a2,2,0,0,0-.85.53,4.16,4.16,0,0,0-.87,2.69,1.85,1.85,0,0,1,.94.85,1.93,1.93,0,0,1-.79,2.6l-.1,0a.22.22,0,0,1-.11-.42,1.45,1.45,0,0,0,.72-.87,1.51,1.51,0,0,0-.11-1.12,1.47,1.47,0,1,0-2.6,1.39.22.22,0,0,1-.09.3.23.23,0,0,1-.3-.1,1.9,1.9,0,0,1,2-2.78,4.42,4.42,0,0,1,1-2.87l.19-.16a4.71,4.71,0,0,0-3.35,7l.55,1a5.72,5.72,0,0,0,.39.57h5.58A5.46,5.46,0,0,1,154,81.89Z"/><path class="cls-7" d="M159.52,81.83c-.1.86-.18,1.48-1.34,1.71a6.14,6.14,0,0,1-1.06.13h-.2a6.49,6.49,0,0,1-1.06-.13c-1.17-.23-1.24-.85-1.35-1.75a8.34,8.34,0,0,1,.57-2.66l0-.11-.63-1.33a2,2,0,0,1,.6.15,2.44,2.44,0,0,1,.83.66l.13.16.2-.09a1.59,1.59,0,0,1,.36-.1,1.46,1.46,0,0,1,.44,0,1.22,1.22,0,0,1,.38,0,1.59,1.59,0,0,1,.36.1l.19.1.14-.17a2.48,2.48,0,0,1,.82-.66,2.09,2.09,0,0,1,.61-.15L158.92,79l0,.11A8.57,8.57,0,0,1,159.52,81.83Zm-1.27.9a1,1,0,0,1-.75.11.51.51,0,0,1-.26-.37l0-.15s0,0,0,0c.53-.07.93-.36.93-.71s-.53-.71-1.17-.71-1.17.32-1.17.71.4.64.93.71l0,0c0,.06,0,.1,0,.15a.54.54,0,0,1-.26.37,1,1,0,0,1-.75-.11.22.22,0,0,0-.3.07.21.21,0,0,0,.08.3,1.67,1.67,0,0,0,.76.22.92.92,0,0,0,.4-.08A1,1,0,0,0,157,83a.78.78,0,0,0,.68.33,1.74,1.74,0,0,0,.77-.22.22.22,0,0,0,.07-.3A.21.21,0,0,0,158.25,82.73Zm-.58-2.29a.35.35,0,1,0-.35-.35A.35.35,0,0,0,157.67,80.44Zm-1.3,0a.35.35,0,1,0-.35-.35A.35.35,0,0,0,156.37,80.44Z"/><path class="cls-4" d="M165.72,73.13l-4.31-7.46a2.61,2.61,0,0,1,0-2.62l4.31-7.46A2.63,2.63,0,0,1,168,54.28h8.61a2.64,2.64,0,0,1,2.28,1.31l4.3,7.46a2.61,2.61,0,0,1,0,2.62l-4.3,7.46a2.64,2.64,0,0,1-2.28,1.31H168A2.63,2.63,0,0,1,165.72,73.13Z"/><path class="cls-8" d="M175.51,58.39a3,3,0,0,0-.32-.47,3.32,3.32,0,0,1-6,2.81l0,.05,1.34,2.36a13.48,13.48,0,0,0-3.84,3.56l.25,2.76-.22.38,2.66,4.6h7.26a2.64,2.64,0,0,0,2.28-1.31l2.57-4.46Z"/><path class="cls-7" d="M172,71.74h-4.09a5.72,5.72,0,0,1-.39-.57l-.55-1a4.7,4.7,0,0,1,2.93-6.92l.71,1.62a.17.17,0,0,0,.11.09.16.16,0,0,0,.13,0l1.15-.85Zm-2.51-4.54c0,.1,0,.22.06.32a1.17,1.17,0,0,0,.09.32.21.21,0,0,0,.29.13.32.32,0,0,0,.25-.27,2.56,2.56,0,0,0,0-.39.94.94,0,0,1,.22-.62.86.86,0,0,0,.19-.58.67.67,0,0,0-.68-.7,1.09,1.09,0,0,0-.54.1h0l-.05,0a1.09,1.09,0,0,0-.69-.06.6.6,0,0,0-.47.46.9.9,0,0,0,.18.81,1,1,0,0,1,.21.59c0,.12,0,.24,0,.36a.35.35,0,0,0,.41.34.3.3,0,0,0,.17-.21l.06-.24.06-.32a.19.19,0,0,1,.1-.16C169.43,67.1,169.44,67.1,169.46,67.2Zm0-1.53a.64.64,0,0,1,.73.11.58.58,0,0,1,.1.55.62.62,0,0,1-.13.27.93.93,0,0,0-.23.64,2.44,2.44,0,0,1,0,.27c0,.07,0,.15-.08.2l-.11,0a.31.31,0,0,1-.09-.23,2.58,2.58,0,0,0,0-.29.6.6,0,0,0-.06-.19.27.27,0,0,0-.26-.18.27.27,0,0,0-.25.18,1.33,1.33,0,0,0-.09.44l0,.18a.47.47,0,0,1-.06.09.2.2,0,0,1-.18-.18c0-.07,0-.15,0-.23s0-.22,0-.33a.73.73,0,0,0-.16-.36.75.75,0,0,1-.16-.73.47.47,0,0,1,.44-.34,1,1,0,0,1,.45.11l.27.14.17,0v0Z"/><path class="cls-7" d="M170.79,64.6l1.24-.92h.19l1.24.92.6-1.38a5.56,5.56,0,0,0-.83-.08H171a5.56,5.56,0,0,0-.83.08Z"/><path class="cls-7" d="M177.31,70.21l-.55,1a5.72,5.72,0,0,1-.39.57h-4.09V64.12l1.15.85a.16.16,0,0,0,.13,0,.17.17,0,0,0,.11-.09l.71-1.62A4.7,4.7,0,0,1,177.31,70.21ZM176,65.56a.85.85,0,0,0-1.67,0c-.08.47.16.82.72,1a4.9,4.9,0,0,0-.14,1.62,1,1,0,0,0,.51,0,4.64,4.64,0,0,0-.15-1.61C175.79,66.37,176.05,66,176,65.56Zm-1.4.13a.57.57,0,1,1,.56.56A.57.57,0,0,1,174.58,65.69Zm-1.24.63a.52.52,0,0,1,.12.46c0,.07,0,.14,0,.21a6.07,6.07,0,0,0,0,1.13s0,0,0,.06a1.74,1.74,0,0,0,.51,0,5.26,5.26,0,0,0-.13-1.64c-.18-.28-.43-.5-.59-.8l.15-.13.71-.54s.07-.06,0-.1a6.56,6.56,0,0,0-1.12.72v.12Z"/><path class="cls-7" d="M175.42,59.68a2.56,2.56,0,0,0,0-.39s0,0,0-.07a.43.43,0,0,1,0,0,3.07,3.07,0,0,0,0-.53,1.6,1.6,0,0,0-.05-.21c0-.12-.07-.24-.11-.36l-.08-.2a2.55,2.55,0,0,0-.23-.43h0a3.24,3.24,0,0,0-.67-.76h0l-.13-.09a2.48,2.48,0,0,0-.26-.19l-.26-.14-.28-.13L173,56a1.19,1.19,0,0,0-.27-.07,2.52,2.52,0,0,0-.48-.05l-.14,0-.15,0a2.52,2.52,0,0,0-.48.05,1.19,1.19,0,0,0-.27.07l-.32.1-.28.13-.26.14a2.48,2.48,0,0,0-.26.19l-.13.09h0a3.07,3.07,0,0,0-.68.76h0a2.55,2.55,0,0,0-.23.43c0,.07-.05.14-.08.2s-.08.24-.11.36,0,.14-.05.21a3.07,3.07,0,0,0,0,.53.43.43,0,0,1,0,0s0,0,0,.07a2.56,2.56,0,0,0,0,.39h0a2.36,2.36,0,0,0,.1.46h0s0,.09,0,.14a2.39,2.39,0,0,0,.15.37,1.28,1.28,0,0,0,.11.2,2.5,2.5,0,0,0,.21.35l0,0h0a3.79,3.79,0,0,0,.38.42h0l.11.09.35.26a1.29,1.29,0,0,0,.16.09c.13.07.25.14.39.2a1.66,1.66,0,0,0,.21.06,2.91,2.91,0,0,0,.39.12l.3,0c.11,0,.23,0,.35,0s.23,0,.34,0l.3,0a2.91,2.91,0,0,0,.39-.12,1.66,1.66,0,0,0,.21-.06c.14-.06.26-.13.39-.2a1.29,1.29,0,0,0,.16-.09l.35-.26.11-.09h0a3.79,3.79,0,0,0,.38-.42h0l0,0c.08-.11.15-.23.22-.35l.1-.2a2.39,2.39,0,0,0,.15-.37.78.78,0,0,0,0-.14h0a2.36,2.36,0,0,0,.1-.46Z"/><path class="cls-4" d="M146.34,61.9,142,54.44a2.63,2.63,0,0,1,0-2.63l4.3-7.46A2.64,2.64,0,0,1,148.62,43h8.61a2.62,2.62,0,0,1,2.27,1.31l4.31,7.46a2.63,2.63,0,0,1,0,2.63L159.5,61.9a2.62,2.62,0,0,1-2.27,1.31h-8.61A2.64,2.64,0,0,1,146.34,61.9Z"/><path class="cls-8" d="M156.14,47.15a3.83,3.83,0,0,0-.33-.46,3.32,3.32,0,0,1-6,2.81l0,0,1.35,2.37a13.25,13.25,0,0,0-3.85,3.56l.25,2.76-.22.37L150,63.21h7.27a2.61,2.61,0,0,0,2.27-1.32l2.58-4.45Z"/><path class="cls-7" d="M154.85,52A3.61,3.61,0,0,1,156,54a.61.61,0,0,1,.49.6.63.63,0,1,1-1.26,0,.6.6,0,0,1,.34-.54,2.78,2.78,0,0,0-1.85-2.19h-.58l.67,4.29-1,1.67-1-1.67.67-4.29h-.5a2.13,2.13,0,0,0-.85.52,4.17,4.17,0,0,0-.87,2.69,1.91,1.91,0,0,1,.15,3.45.19.19,0,0,1-.1,0,.24.24,0,0,1-.2-.12.22.22,0,0,1,.09-.3,1.47,1.47,0,0,0,.61-2,1.47,1.47,0,0,0-2.6,1.38.22.22,0,0,1-.09.3.22.22,0,0,1-.3-.09,1.92,1.92,0,0,1,2-2.79,4.42,4.42,0,0,1,1-2.86l.19-.16a4.71,4.71,0,0,0-3.35,7l.55,1a5.72,5.72,0,0,0,.39.57H157a5.65,5.65,0,0,0,.38-.57h0l.56-1A4.71,4.71,0,0,0,154.85,52Z"/><circle class="cls-7" cx="152.75" cy="47.99" r="3.33"/></g></g></svg>