<svg width="41" height="41" viewBox="0 0 41 41" fill="none" xmlns="http://www.w3.org/2000/svg">
<path d="M41 20.5C41 31.8218 31.8218 41 20.5 41C9.17816 41 0 31.8218 0 20.5C0 9.17816 9.17816 0 20.5 0C31.8218 0 41 9.17816 41 20.5Z" fill="#008689" fill-opacity="0.4"/>
<path d="M21.4778 19.6556C18.7033 18.9344 17.8111 18.1889 17.8111 17.0278C17.8111 15.6956 19.0456 14.7667 21.1111 14.7667C22.8467 14.7667 23.7144 15.4267 24.0322 16.4778C24.1789 16.9667 24.5822 17.3333 25.0956 17.3333H25.4622C26.2689 17.3333 26.8433 16.5389 26.5622 15.7811C26.0489 14.3389 24.8511 13.1411 22.9444 12.6767V11.8333C22.9444 10.8189 22.1256 10 21.1111 10C20.0967 10 19.2778 10.8189 19.2778 11.8333V12.64C16.9067 13.1533 15 14.6933 15 17.0522C15 19.8756 17.3344 21.2811 20.7444 22.1C23.8 22.8333 24.4111 23.9089 24.4111 25.0456C24.4111 25.8889 23.8122 27.2333 21.1111 27.2333C19.0944 27.2333 18.0556 26.5122 17.6522 25.4856C17.4689 25.0089 17.0533 24.6667 16.5522 24.6667H16.21C15.3911 24.6667 14.8167 25.4978 15.1222 26.2556C15.8189 27.9544 17.4444 28.9567 19.2778 29.3478V30.1667C19.2778 31.1811 20.0967 32 21.1111 32C22.1256 32 22.9444 31.1811 22.9444 30.1667V29.3722C25.3278 28.92 27.2222 27.5389 27.2222 25.0333C27.2222 21.5622 24.2522 20.3767 21.4778 19.6556Z" fill="#008689"/>
</svg>
