<svg width="41" height="41" viewBox="0 0 41 41" fill="none" xmlns="http://www.w3.org/2000/svg">
<path d="M41 20.5C41 31.8218 31.8218 41 20.5 41C9.17816 41 0 31.8218 0 20.5C0 9.17816 9.17816 0 20.5 0C31.8218 0 41 9.17816 41 20.5Z" fill="#008689" fill-opacity="0.4"/>
<path d="M30.1539 14.8948L30.1517 14.7687C30.0902 13.1116 29.4772 11.9348 28.2149 11.0615C27.2 10.3768 25.7755 10 24.2053 10H24.1638C22.8969 10 21.5696 10.2587 20.6188 10.6896L20.5776 10.7079L20.5435 10.6928C19.7915 10.3504 18.7992 10.1149 17.7489 10.0302C17.7267 10.0286 17.7022 10.0274 17.6823 10.0283L15.9968 10.0505C15.973 10.0508 15.9498 10.0528 15.926 10.055C14.7522 10.1879 13.72 10.5364 12.9361 11.0673C11.6802 11.9339 11.066 13.1099 11.0045 14.787L11.0026 14.9367C11.0013 15.0091 11 15.0779 11 15.15C11.019 17.4478 11.5415 18.389 12.1465 19.4795L12.2453 19.6571C12.8907 20.7723 13.5192 22.0607 13.5015 24.4364C13.4992 27.8652 14.1383 29.6607 14.6763 30.5665C15.2744 31.5634 15.6442 32 16.6677 32C17.6498 32 18.2264 31.1598 18.2869 30.3458C18.3271 29.9371 18.3345 29.4683 18.3426 28.9718C18.3609 27.8507 18.3837 26.4549 18.8001 25.0465L18.8143 24.9995C18.9887 24.4332 19.1859 23.7909 19.5627 23.2239C19.7741 22.9047 20.223 22.581 20.6716 22.581C21.0191 22.581 21.3254 22.7915 21.5835 23.2062C21.9619 23.8147 22.18 24.4744 22.3528 25.04C22.7747 26.4536 22.9558 28.0901 22.8393 29.4191C22.7608 30.3258 22.9356 31.0199 23.358 31.481C23.7992 31.9624 24.3346 31.9994 24.4884 31.9994H24.4891C25.4557 31.9994 25.8849 31.5569 26.4825 30.5626C27.0192 29.6601 27.6592 27.8646 27.6557 24.4312C27.6396 22.0633 28.2693 20.7723 28.9218 19.642L29.0094 19.483C29.6137 18.3928 30.1362 17.451 30.1562 15.1432C30.1568 15.0628 30.1555 14.9801 30.1539 14.8948ZM27.7631 18.7928L27.6808 18.9418C26.9696 20.1735 26.2122 21.7164 26.2308 24.437C26.2341 27.7062 25.6224 29.2221 25.2588 29.8325C24.8212 30.5617 24.7468 30.5749 24.5029 30.5755C24.3687 30.5536 24.1969 30.2637 24.259 29.5436C24.3922 28.0226 24.195 26.2335 23.7171 24.6291C23.5012 23.9241 23.24 23.1725 22.7937 22.4546C22.274 21.618 21.5207 21.1575 20.6716 21.1575C19.6708 21.1575 18.7972 21.8004 18.3747 22.4372C17.885 23.1757 17.645 23.955 17.4525 24.5815L17.4352 24.6356C16.9618 26.2386 16.9374 27.742 16.9181 28.9499C16.9103 29.4358 16.9033 29.8554 16.8672 30.2238C16.8669 30.227 16.8202 30.5758 16.6677 30.5758C16.3678 30.5758 16.3434 30.5758 15.899 29.8354C15.5344 29.2221 14.9237 27.7062 14.9256 24.4425C14.9459 21.7132 14.1891 20.1726 13.4851 18.9563L13.3917 18.7883C12.8389 17.7927 12.4396 17.0736 12.4235 15.1448C12.4235 15.0876 12.4251 15.0268 12.4264 14.9637L12.4284 14.8218C12.4731 13.6196 12.8669 12.848 13.7402 12.245C14.3217 11.8512 15.1203 11.5857 16.0515 11.4763L17.6672 11.4547C18.5321 11.5275 19.3639 11.7225 19.9604 11.994L20.2603 12.1266L22.5047 13.3168C22.6112 13.3732 22.7254 13.3999 22.8381 13.3999C23.0932 13.3999 23.34 13.2625 23.4681 13.0211C23.6521 12.6736 23.5199 12.2424 23.1724 12.0577L22.3567 11.625C22.9294 11.4991 23.5582 11.4264 24.1634 11.4264H24.205C25.4756 11.4264 26.6469 11.7247 27.4108 12.2392C28.2889 12.8471 28.6824 13.6193 28.7265 14.807L28.7288 14.9215C28.7304 14.9978 28.732 15.0721 28.732 15.1381C28.714 17.0771 28.3153 17.7966 27.7631 18.7928Z" fill="#008689"/>
<path d="M15.1845 18.1315C14.9548 18.1315 14.7292 18.0204 14.5918 17.8155C13.9859 16.9103 14.0001 15.4598 14.6256 14.2875C15.1298 13.3425 15.9413 12.8013 16.8513 12.8013C17.2448 12.8013 17.5637 13.1198 17.5637 13.5137C17.5637 13.9069 17.2448 14.2261 16.8513 14.2261C16.3484 14.2261 16.0282 14.6856 15.8818 14.9588C15.5179 15.6406 15.4702 16.5663 15.7753 17.0226C15.9944 17.3502 15.9066 17.7926 15.58 18.0111C15.4587 18.0922 15.3213 18.1315 15.1845 18.1315Z" fill="#008689"/>
</svg>
